<svg xmlns="http://www.w3.org/2000/svg" width="327.121" height="236" xmlns:xlink="http://www.w3.org/1999/xlink"><title>Grass</title><defs><linearGradient id="g"><stop stop-color="#366b04" offset="0"/><stop stop-color="#366b04" stop-opacity="0" offset="1"/></linearGradient><linearGradient id="f"><stop stop-color="#336404" offset="0"/><stop stop-color="#336404" stop-opacity="0" offset="1"/></linearGradient><linearGradient id="d"><stop stop-color="#336404" offset="0"/><stop stop-color="#4e9a06" offset="1"/></linearGradient><linearGradient id="e"><stop stop-color="#336404" offset="0"/><stop stop-color="#4e9a06" offset="1"/></linearGradient><linearGradient id="c"><stop stop-color="#4e9a06" offset="0"/><stop stop-color="#336404" offset="1"/></linearGradient><linearGradient id="b"><stop stop-color="#336404" offset="0"/><stop stop-color="#4e9a06" offset="1"/></linearGradient><linearGradient id="a"><stop stop-color="#73d216" offset="0"/><stop stop-color="#4e9a06" offset="1"/></linearGradient><linearGradient id="C" x1=".645" x2=".055" y1=".215" y2=".219" xlink:href="#a"/><linearGradient id="B" x1=".592" x2="-.092" y1=".178" y2=".183" xlink:href="#a"/><linearGradient id="A" x1=".5" x2="-.185" y1=".341" y2=".345" xlink:href="#a"/><linearGradient id="z" x2=".373" y1=".148" y2=".194" xlink:href="#a"/><linearGradient id="y" x1=".554" x2=".025" y1=".069" y2=".082" xlink:href="#a"/><linearGradient id="x" x1="1" x2="0" y1=".588" xlink:href="#b"/><linearGradient id="w" x1=".829" x2="1.437" y1=".308" y2=".315" xlink:href="#c"/><linearGradient id="v" x1=".526" x2="-.262" y1=".179" y2=".184" xlink:href="#d"/><linearGradient id="u" x1="-.653" x2="1" y1=".556" y2="-.078" xlink:href="#b"/><linearGradient id="t" x1=".449" x2="-.224" y1=".113" y2=".119" xlink:href="#e"/><linearGradient id="s" x1=".645" x2=".055" y1=".215" y2=".219" xlink:href="#a"/><linearGradient id="r" x1=".645" x2=".055" y1=".215" y2=".219" xlink:href="#a"/><linearGradient id="q" x1=".592" x2="-.092" y1=".178" y2=".183" xlink:href="#a"/><linearGradient id="p" x1=".5" x2="1.184" y1=".341" y2=".345" xlink:href="#a"/><linearGradient id="o" x2=".373" y1=".148" y2=".194" xlink:href="#a"/><linearGradient id="n" x1=".422" x2="-.263" y1=".056" y2=".069" xlink:href="#a"/><linearGradient id="m" x1="1" x2="0" y1=".588" xlink:href="#b"/><linearGradient id="l" x1=".829" x2="1.437" y1=".308" y2=".315" xlink:href="#c"/><linearGradient id="k" x1=".526" x2="-.263" y1=".276" y2=".281" xlink:href="#d"/><linearGradient id="j" x1="-.653" x2="1" y1=".556" y2="-.078" xlink:href="#b"/><linearGradient id="i" x1=".449" x2="-.224" y1=".113" y2=".119" xlink:href="#e"/><linearGradient id="V" x1=".408" x2="1.092" y1=".178" y2=".183" xlink:href="#a"/><linearGradient id="U" x1=".5" x2="1.184" y1=".341" y2=".345" xlink:href="#a"/><linearGradient id="T" x1="1" x2=".627" y1=".148" y2=".194" xlink:href="#a"/><linearGradient id="S" x1=".447" x2=".975" y1=".069" y2=".082" xlink:href="#a"/><linearGradient id="R" x1=".171" x2="-.436" y1=".308" y2=".315" xlink:href="#c"/><linearGradient id="Q" x1=".474" x2="1.263" y1=".179" y2=".184" xlink:href="#d"/><linearGradient id="P" x1="1.653" x2="0" y1=".556" y2="-.078" xlink:href="#b"/><linearGradient id="O" x1=".551" x2="1.224" y1=".113" y2=".119" xlink:href="#e"/><linearGradient id="N" x1=".355" x2=".945" y1=".215" y2=".219" xlink:href="#a"/><linearGradient id="M" x1=".355" x2=".945" y1=".215" y2=".219" xlink:href="#a"/><linearGradient id="L" x1=".408" x2="1.092" y1=".178" y2=".183" xlink:href="#a"/><linearGradient id="K" x1=".5" x2="-.184" y1=".341" y2=".345" xlink:href="#a"/><linearGradient id="J" x1="1" x2=".627" y1=".148" y2=".194" xlink:href="#a"/><linearGradient id="I" x1=".578" x2="1.263" y1=".056" y2=".069" xlink:href="#a"/><linearGradient id="H" x2="1" y1=".588" xlink:href="#b"/><linearGradient id="G" x1=".171" x2="-.437" y1=".308" y2=".315" xlink:href="#c"/><linearGradient id="F" x1=".474" x2="1.263" y1=".276" y2=".281" xlink:href="#d"/><linearGradient id="E" x1="1.653" x2="0" y1=".556" y2="-.078" xlink:href="#b"/><linearGradient id="D" x1=".551" x2="1.224" y1=".113" y2=".119" xlink:href="#e"/><linearGradient id="h" x1=".48" x2=".48" y1=".936" y2="-.245" xlink:href="#f"/><linearGradient id="W" x1=".48" x2=".48" y1=".936" y2="-.245" xlink:href="#f"/><linearGradient id="X" x1=".449" x2="-.224" y1=".113" y2=".119" xlink:href="#e"/><linearGradient id="Y" x1="-.653" x2="1" y1=".556" y2="-.078" xlink:href="#b"/><linearGradient id="Z" x1=".526" x2="-.263" y1=".276" y2=".281" xlink:href="#d"/><linearGradient id="aa" x1=".829" x2="1.437" y1=".308" y2=".315" xlink:href="#c"/><linearGradient id="ab" x1="1" x2="0" y1=".588" xlink:href="#b"/><linearGradient id="ac" x1=".422" x2="-.263" y1=".056" y2=".069" xlink:href="#a"/><linearGradient id="ad" x2=".373" y1=".148" y2=".194" xlink:href="#a"/><linearGradient id="ae" x1=".5" x2="1.184" y1=".341" y2=".345" xlink:href="#a"/><linearGradient id="af" x1=".592" x2="-.092" y1=".178" y2=".183" xlink:href="#a"/><linearGradient id="ag" x1=".645" x2=".055" y1=".215" y2=".219" xlink:href="#a"/><linearGradient id="ah" x1=".645" x2=".055" y1=".215" y2=".219" xlink:href="#a"/><linearGradient id="ai" x1=".449" x2="-.224" y1=".113" y2=".119" xlink:href="#e"/><linearGradient id="aj" x1="-.653" x2="1" y1=".556" y2="-.078" xlink:href="#b"/><linearGradient id="ak" x1=".526" x2="-.262" y1=".179" y2=".184" xlink:href="#d"/><linearGradient id="al" x1=".829" x2="1.437" y1=".308" y2=".315" xlink:href="#c"/><linearGradient id="am" x1="1" x2="0" y1=".588" xlink:href="#b"/><linearGradient id="an" x1=".554" x2=".025" y1=".069" y2=".082" xlink:href="#a"/><linearGradient id="ao" x2=".373" y1=".148" y2=".194" xlink:href="#a"/><linearGradient id="ap" x1=".5" x2="-.185" y1=".341" y2=".345" xlink:href="#a"/><linearGradient id="aq" x1=".592" x2="-.092" y1=".178" y2=".183" xlink:href="#a"/><linearGradient id="ar" x1=".645" x2=".055" y1=".215" y2=".219" xlink:href="#a"/><linearGradient id="as" x1=".551" x2="1.224" y1=".113" y2=".119" xlink:href="#e"/><linearGradient id="at" x1="1.653" x2="0" y1=".556" y2="-.078" xlink:href="#b"/><linearGradient id="au" x1=".474" x2="1.263" y1=".276" y2=".281" xlink:href="#d"/><linearGradient id="av" x1=".171" x2="-.437" y1=".308" y2=".315" xlink:href="#c"/><linearGradient id="aw" x2="1" y1=".588" xlink:href="#b"/><linearGradient id="ax" x1=".578" x2="1.263" y1=".056" y2=".069" xlink:href="#a"/><linearGradient id="ay" x1="1" x2=".627" y1=".148" y2=".194" xlink:href="#a"/><linearGradient id="az" x1=".5" x2="-.184" y1=".341" y2=".345" xlink:href="#a"/><linearGradient id="aA" x1=".408" x2="1.092" y1=".178" y2=".183" xlink:href="#a"/><linearGradient id="aB" x1=".355" x2=".945" y1=".215" y2=".219" xlink:href="#a"/><linearGradient id="aC" x1=".355" x2=".945" y1=".215" y2=".219" xlink:href="#a"/><linearGradient id="aD" x1=".551" x2="1.224" y1=".113" y2=".119" xlink:href="#e"/><linearGradient id="aE" x1="1.653" x2="0" y1=".556" y2="-.078" xlink:href="#b"/><linearGradient id="aF" x1=".474" x2="1.263" y1=".179" y2=".184" xlink:href="#d"/><linearGradient id="aG" x1=".171" x2="-.436" y1=".308" y2=".315" xlink:href="#c"/><linearGradient id="aH" x1=".447" x2=".975" y1=".069" y2=".082" xlink:href="#a"/><linearGradient id="aI" x1="1" x2=".627" y1=".148" y2=".194" xlink:href="#a"/><linearGradient id="aJ" x1=".5" x2="1.184" y1=".341" y2=".345" xlink:href="#a"/><linearGradient id="aK" x1=".408" x2="1.092" y1=".178" y2=".183" xlink:href="#a"/><linearGradient id="aL" x1=".48" x2=".48" y1=".936" y2="-.245" xlink:href="#f"/><linearGradient id="aM" x1=".449" x2="-.224" y1=".113" y2=".119" xlink:href="#e"/><linearGradient id="aN" x1="-.653" x2="1" y1=".556" y2="-.078" xlink:href="#b"/><linearGradient id="aO" x1=".526" x2="-.263" y1=".276" y2=".281" xlink:href="#d"/><linearGradient id="aP" x1=".829" x2="1.437" y1=".308" y2=".315" xlink:href="#c"/><linearGradient id="aQ" x1="1" x2="0" y1=".588" xlink:href="#b"/><linearGradient id="aR" x1=".422" x2="-.263" y1=".056" y2=".069" xlink:href="#a"/><linearGradient id="aS" x2=".373" y1=".148" y2=".194" xlink:href="#a"/><linearGradient id="aT" x1=".5" x2="1.184" y1=".341" y2=".345" xlink:href="#a"/><linearGradient id="aU" x1=".592" x2="-.092" y1=".178" y2=".183" xlink:href="#a"/><linearGradient id="aV" x1=".645" x2=".055" y1=".215" y2=".219" xlink:href="#a"/><linearGradient id="aW" x1=".645" x2=".055" y1=".215" y2=".219" xlink:href="#a"/><linearGradient id="aX" x1=".449" x2="-.224" y1=".113" y2=".119" xlink:href="#e"/><linearGradient id="aY" x1="-.653" x2="1" y1=".556" y2="-.078" xlink:href="#b"/><linearGradient id="aZ" x1=".526" x2="-.262" y1=".179" y2=".184" xlink:href="#d"/><linearGradient id="ba" x1=".829" x2="1.437" y1=".308" y2=".315" xlink:href="#c"/><linearGradient id="bb" x1="1" x2="0" y1=".588" xlink:href="#b"/><linearGradient id="bc" x1=".554" x2=".025" y1=".069" y2=".082" xlink:href="#a"/><linearGradient id="bd" x2=".373" y1=".148" y2=".194" xlink:href="#a"/><linearGradient id="be" x1=".5" x2="-.185" y1=".341" y2=".345" xlink:href="#a"/><linearGradient id="bf" x1=".592" x2="-.092" y1=".178" y2=".183" xlink:href="#a"/><linearGradient id="bg" x1=".645" x2=".055" y1=".215" y2=".219" xlink:href="#a"/><linearGradient id="bh" x1=".551" x2="1.224" y1=".113" y2=".119" xlink:href="#e"/><linearGradient id="bi" x1="1.653" x2="0" y1=".556" y2="-.078" xlink:href="#b"/><linearGradient id="bj" x1=".474" x2="1.263" y1=".276" y2=".281" xlink:href="#d"/><linearGradient id="bk" x1=".171" x2="-.437" y1=".308" y2=".315" xlink:href="#c"/><linearGradient id="bl" x2="1" y1=".588" xlink:href="#b"/><linearGradient id="bm" x1=".578" x2="1.263" y1=".056" y2=".069" xlink:href="#a"/><linearGradient id="bn" x1="1" x2=".627" y1=".148" y2=".194" xlink:href="#a"/><linearGradient id="bo" x1=".5" x2="-.184" y1=".341" y2=".345" xlink:href="#a"/><linearGradient id="bp" x1=".408" x2="1.092" y1=".178" y2=".183" xlink:href="#a"/><linearGradient id="bq" x1=".355" x2=".945" y1=".215" y2=".219" xlink:href="#a"/><linearGradient id="br" x1=".355" x2=".945" y1=".215" y2=".219" xlink:href="#a"/><linearGradient id="bs" x1=".551" x2="1.224" y1=".113" y2=".119" xlink:href="#e"/><linearGradient id="bt" x1="1.653" x2="0" y1=".556" y2="-.078" xlink:href="#b"/><linearGradient id="bu" x1=".474" x2="1.263" y1=".179" y2=".184" xlink:href="#d"/><linearGradient id="bv" x1=".171" x2="-.436" y1=".308" y2=".315" xlink:href="#c"/><linearGradient id="bw" x1=".447" x2=".975" y1=".069" y2=".082" xlink:href="#a"/><linearGradient id="bx" x1="1" x2=".627" y1=".148" y2=".194" xlink:href="#a"/><linearGradient id="by" x1=".5" x2="1.184" y1=".341" y2=".345" xlink:href="#a"/><linearGradient id="bz" x1=".408" x2="1.092" y1=".178" y2=".183" xlink:href="#a"/><linearGradient id="bA" x1=".517" x2=".517" y1="1.229" y2="-.004" xlink:href="#g"/></defs><title>Layer 1</title><g><path fill="url(#h)" d="M47.66 152.6c-1.68 2.76-6.9 21.5-8.74 21.17-1.87.1-2.04-4.24-2.26-8.25-.2-3.4-.4-6.6-1.78-6.6-1.7 0-8.62 11.14-11.68 10.38-.9-.22-.08-6.67-.4-8.56l-3.73 18.53-6.74-16.16-6.04 7.1-4.37-4.12v70.38H108.36V171.1l-4.36 3.86-6.04-6.6-6.74 15-3.72-17.22c-.33 1.76.5 7.76-.4 7.97-3.07.72-10-9.62-11.7-9.6-1.36 0-1.6 2.92-1.77 6.08-.22 3.73-.4 7.78-2.26 7.7-1.85.3-7.06-17.12-8.74-19.67-1.62 2.16 1.5 7.1-1 9.26l-2.36-2.1-4.63-8.87-5.97 5.68c-2.52-2.3.6-7.65-1-9.97z"/><path fill="url(#i)" d="M14.48 172.3s-5.8 26.75-6.08 40.58c-.16 7.58-3.8 24.9-3.8 24.9l6.33.22s2.4-29.16 2.07-43.05c-.2-8.95 1.48-22.65 1.48-22.65z"/><path fill="url(#j)" d="M22.57 147.52s3.78 33.6 3.54 53.8c-.13 11.06-3.3 36.36-3.3 36.36l5.52.32s2.08-42.58 1.8-62.86c-.18-13.07-7.55-27.62-7.55-27.62z"/><path fill="url(#k)" d="M20 157.5s5.64 35.74 3.6 55.38c-.8 7.54-3.8 24.9-3.8 24.9l6.34.22s2.4-29.16 2.07-43.05C28 186 20 157.5 20 157.5z"/><path fill="url(#l)" d="M10.43 127.12L6.8 205l.52 33H2.95L6 158.12l4.43-31z"/><path fill="url(#m)" d="M16.36 159.9s-8.73 32.55-8.48 48.73c.13 8.86 3.3 29.1 3.3 29.1l-5.52.27s-2.08-34.1-1.8-50.33c.18-10.47 12.5-27.77 12.5-27.77z"/><path fill="url(#n)" d="M17.56 137.2l-3.57.32 2.34 59.77-3.22 40.34 5.36.36 1.75-69.77-5-28.2 2.33-2.82z"/><path fill="url(#o)" d="M33.4 156.1s-12.5 36.35-12.28 52.53c.12 8.86 2.92 29.1 2.92 29.1l-4.87.27s-1.83-34.1-1.58-50.33c.15-10.47 15.8-31.56 15.8-31.56z"/><path fill="url(#p)" d="M5.83 94.8L2.26 197.3l3.2 40.34-5.34.36-2.5-98.06L5.8 94.8z"/><path fill="url(#q)" d="M26.15 123.07l4.33 74.22-3.22 40.34 5.36.36 1.75-69.77-8.22-45.16z"/><path fill="url(#r)" d="M6 163.8s6.92 35.25 6.64 49.08c-.15 7.58-3.8 24.9-3.8 24.9l6.34.22s2.4-29.16 2.07-43.05C17.05 186 6 163.8 6 163.8z"/><path fill="url(#s)" d="M15.54 163.8s6.92 35.25 6.64 49.08c-.15 7.58-3.8 24.9-3.8 24.9l6.34.22s2.4-29.16 2.07-43.05c-.22-8.95-11.26-31.14-11.26-31.14z"/><path fill="url(#t)" d="M49.3 172.3s-5.82 26.75-6.1 40.58c-.15 7.58-3.8 24.9-3.8 24.9l6.34.22s2.4-29.16 2.07-43.05c-.2-8.95 1.5-22.65 1.5-22.65z"/><path fill="url(#u)" d="M52.9 147.52s3.78 33.6 3.54 53.8c-.13 11.06-3.32 36.36-3.32 36.36l5.53.32s2.1-42.58 1.8-62.86c-.18-13.07-7.55-27.62-7.55-27.62z"/><path fill="url(#v)" d="M44.85 167.05s5.46 26.2 3.4 45.83c-.77 7.54-3.8 24.9-3.8 24.9l6.35.22s2.4-29.16 2.07-43.05c-.2-8.95-8.02-27.9-8.02-27.9z"/><path fill="url(#w)" d="M35.95 127.12L32.32 205l.52 33h-4.38l3.05-79.88 4.45-31z"/><path fill="url(#x)" d="M44.82 159.9s-8.72 32.55-8.48 48.73c.13 8.86 3.32 29.1 3.32 29.1l-5.53.27s-2.1-34.1-1.8-50.33c.17-10.47 12.5-27.77 12.5-27.77z"/><path fill="url(#y)" d="M51.18 137.4l2.97.12 2.34 59.77-3.22 40.34 5.36.36 1.74-69.77-5.17-32.43-4.02 1.6z"/><path fill="url(#z)" d="M60.34 156.1s-12.48 36.35-12.27 52.53c.12 8.86 2.92 29.1 2.92 29.1l-4.87.27s-1.84-34.1-1.6-50.33c.17-10.47 15.8-31.56 15.8-31.56z"/><path fill="url(#A)" d="M33.94 107.16l3.57 93.64-3.2 36.87 5.35.33 2.5-89.58-8.2-41.26z"/><path fill="url(#B)" d="M41.76 123.07l4.33 74.22-3.22 40.34 5.36.36 1.74-69.77-8.22-45.16z"/><path fill="url(#C)" d="M46.95 163.8s6.92 35.25 6.64 49.08c-.16 7.58-3.82 24.9-3.82 24.9l6.35.22s2.4-29.16 2.07-43.05C58 186 46.95 163.8 46.95 163.8z"/><path fill="#4d9805" d="M49.9 163.8s6.9 35.25 6.63 49.08c-.15 7.58-3.8 24.9-3.8 24.9l6.34.22s2.4-29.16 2.07-43.05C60.94 186 49.9 163.8 49.9 163.8z"/><path fill="url(#D)" d="M73.3 172.3s5.8 26.75 6.1 40.58c.14 7.58 3.8 24.9 3.8 24.9l-6.35.22s-2.4-29.16-2.07-43.05c.2-8.95-1.48-22.65-1.48-22.65z"/><path fill="url(#E)" d="M99.2 147.52s-3.76 33.6-3.52 53.8c.13 11.06 3.32 36.36 3.32 36.36l-5.53.32s-2.1-42.58-1.8-62.86c.17-13.07 7.54-27.62 7.54-27.62z"/><path fill="url(#F)" d="M67.77 157.5s-5.63 35.74-3.58 55.38c.77 7.54 3.8 24.9 3.8 24.9l-6.35.22s-2.4-29.16-2.07-43.05c.2-8.95 8.2-37.45 8.2-37.45z"/><path fill="url(#G)" d="M77.35 127.12L80.98 205l-.52 33h4.38l-3.06-79.88-4.43-31z"/><path fill="url(#H)" d="M71.42 159.9s8.73 32.55 8.5 48.73c-.14 8.86-3.33 29.1-3.33 29.1l5.52.27s2.1-34.1 1.8-50.33c-.18-10.47-12.5-27.77-12.5-27.77z"/><path fill="url(#I)" d="M70.22 137.2l3.57.32-2.35 59.77 3.2 40.34-5.34.36-1.74-69.77 5-28.2-2.34-2.82z"/><path fill="url(#J)" d="M87.9 156.1s12.48 36.35 12.26 52.53c-.1 8.86-2.92 29.1-2.92 29.1l4.87.27s1.85-34.1 1.6-50.33c-.16-10.47-15.8-31.56-15.8-31.56z"/><path fill="url(#K)" d="M67.45 94.8l3.57 102.5-3.2 40.34 5.35.36 2.5-98.06-8.22-45.15z"/><path fill="url(#L)" d="M110.14 123.07l-4.33 74.22 3.22 40.34-5.36.36-1.74-69.77 8.22-45.16z"/><path fill="url(#M)" d="M81.8 163.8s-6.93 35.25-6.65 49.08c.15 7.58 3.8 24.9 3.8 24.9l-6.34.22s-2.4-29.16-2.06-43.05c.2-8.95 11.25-31.14 11.25-31.14z"/><path fill="url(#N)" d="M72.24 163.8s-6.92 35.25-6.64 49.08c.15 7.58 3.8 24.9 3.8 24.9l-6.34.22s-2.4-29.16-2.07-43.05c.2-8.95 11.24-31.14 11.24-31.14z"/><path fill="url(#O)" d="M87 172.3s5.8 26.75 6.08 40.58c.15 7.58 3.8 24.9 3.8 24.9l-6.34.22s-2.4-29.16-2.07-43.05C88.67 186 87 172.3 87 172.3z"/><path fill="url(#P)" d="M83.38 147.52s-3.78 33.6-3.54 53.8c.14 11.06 3.32 36.36 3.32 36.36l-5.53.32s-2.08-42.58-1.8-62.86c.18-13.07 7.55-27.62 7.55-27.62z"/><path fill="url(#Q)" d="M91.43 167.05s-5.45 26.2-3.4 45.83c.78 7.54 3.8 24.9 3.8 24.9l-6.34.22s-2.4-29.16-2.08-43.05c.2-8.95 8-27.9 8-27.9z"/><path fill="url(#R)" d="M101.84 127.12l3.63 77.88-.52 33h4.37l-3.05-79.88-4.43-31z"/><path fill="url(#S)" d="M85.1 137.4l-2.97.12-2.34 59.77 3.2 40.34-5.35.36-1.75-69.77 5.17-32.43 4.03 1.6z"/><path fill="url(#T)" d="M75.94 156.1s12.48 36.35 12.27 52.53c-.1 8.86-2.9 29.1-2.9 29.1l4.86.27s1.84-34.1 1.6-50.33c-.17-10.47-15.82-31.56-15.82-31.56z"/><path fill="url(#U)" d="M102.35 107.16l-3.57 93.64 3.2 36.87-5.35.33-2.5-89.58 8.22-41.26z"/><path fill="url(#V)" d="M94.52 123.07L90.2 197.3l3.2 40.34-5.35.36-1.75-69.77 8.22-45.16z"/></g><g><path fill="url(#W)" d="M192.24 515.54c-1.67 2.75-6.88 21.48-8.73 21.16-1.87.1-2.03-4.24-2.25-8.25-.2-3.4-.4-6.6-1.78-6.6-1.7 0-8.63 11.14-11.68 10.38-.92-.22-.1-6.67-.43-8.56l-3.7 18.53-6.76-16.16-6.02 7.1-4.37-4.13v70.4H252.97v-65.36l-4.37 3.85-6.03-6.6-6.75 15-3.7-17.22c-.35 1.75.48 7.75-.43 7.96-3.05.7-9.97-9.63-11.67-9.62-1.38 0-1.6 2.93-1.8 6.1-.2 3.72-.37 7.77-2.25 7.68-1.85.3-7.05-17.1-8.73-19.66-1.62 2.15 1.5 7.1-1 9.25l-2.36-2.1-4.63-8.87-5.98 5.68c-2.5-2.3.6-7.64-1-9.96z" transform="matrix(-1 0 0 1 361.333 -362.931)"/><path fill="url(#X)" d="M159.07 535.23s-5.8 26.75-6.1 40.58c-.14 7.6-3.8 24.9-3.8 24.9l6.35.23s2.4-29.16 2.07-43.04c-.22-8.97 1.47-22.67 1.47-22.67z" transform="matrix(-1 0 0 1 361.333 -362.931)"/><path fill="url(#Y)" d="M167.16 510.45s3.77 33.6 3.53 53.8c-.14 11.06-3.33 36.36-3.33 36.36l5.53.33s2.1-42.58 1.8-62.86c-.17-13.07-7.54-27.62-7.54-27.62z" transform="matrix(-1 0 0 1 361.333 -362.931)"/><path fill="url(#Z)" d="M164.6 520.43s5.63 35.74 3.58 55.38c-.78 7.55-3.8 24.9-3.8 24.9l6.34.23s2.4-29.16 2.07-43.04c-.22-8.97-8.2-37.47-8.2-37.47z" transform="matrix(-1 0 0 1 361.333 -362.931)"/><path fill="url(#aa)" d="M155.02 490.05l-3.63 77.88.5 33h-4.37l3.06-79.88 4.42-31z" transform="matrix(-1 0 0 1 361.333 -362.931)"/><path fill="url(#ab)" d="M160.95 522.83s-8.73 32.55-8.5 48.73c.14 8.86 3.33 29.1 3.33 29.1l-5.53.27s-2.1-34.1-1.8-50.33c.18-10.47 12.5-27.77 12.5-27.77z" transform="matrix(-1 0 0 1 361.333 -362.931)"/><path fill="url(#ac)" d="M162.15 500.14l-3.57.3 2.34 59.78-3.2 40.35 5.34.36 1.75-69.77-4.98-28.2 2.33-2.82z" transform="matrix(-1 0 0 1 361.333 -362.931)"/><path fill="url(#ad)" d="M177.97 519.04s-12.48 36.34-12.26 52.52c.12 8.86 2.93 29.1 2.93 29.1l-4.87.27s-1.84-34.1-1.6-50.33c.17-10.47 15.8-31.56 15.8-31.56z" transform="matrix(-1 0 0 1 361.333 -362.931)"/><path fill="url(#ae)" d="M150.42 457.72l-3.57 102.5 3.2 40.35-5.35.36-2.5-98.06 8.22-45.15z" transform="matrix(-1 0 0 1 361.333 -362.931)"/><path fill="url(#af)" d="M170.73 486l4.33 74.22-3.2 40.35 5.35.36 1.75-69.77-8.22-45.16z" transform="matrix(-1 0 0 1 361.333 -362.931)"/><path fill="url(#ag)" d="M150.58 526.74s6.92 35.24 6.64 49.07c-.15 7.6-3.8 24.9-3.8 24.9l6.34.23s2.4-29.16 2.07-43.04c-.2-8.97-11.25-31.16-11.25-31.16z" transform="matrix(-1 0 0 1 361.333 -362.931)"/><path fill="url(#ah)" d="M160.13 526.74s6.92 35.24 6.64 49.07c-.15 7.6-3.8 24.9-3.8 24.9l6.34.23s2.4-29.16 2.08-43.04c-.2-8.97-11.25-31.16-11.25-31.16z" transform="matrix(-1 0 0 1 361.333 -362.931)"/><path fill="url(#ai)" d="M193.87 535.23s-5.8 26.75-6.08 40.58c-.16 7.6-3.82 24.9-3.82 24.9l6.35.23s2.4-29.16 2.07-43.04c-.2-8.97 1.47-22.67 1.47-22.67z" transform="matrix(-1 0 0 1 361.333 -362.931)"/><path fill="url(#aj)" d="M197.5 510.45s3.77 33.6 3.53 53.8c-.14 11.06-3.32 36.36-3.32 36.36l5.54.33s2.08-42.58 1.8-62.86c-.18-13.07-7.55-27.62-7.55-27.62z" transform="matrix(-1 0 0 1 361.333 -362.931)"/><path fill="url(#ak)" d="M189.44 529.98s5.45 26.2 3.4 45.83c-.78 7.55-3.8 24.9-3.8 24.9l6.35.23s2.38-29.16 2.06-43.04c-.2-8.97-8.02-27.92-8.02-27.92z" transform="matrix(-1 0 0 1 361.333 -362.931)"/><path fill="url(#al)" d="M180.53 490.05l-3.63 77.88.52 33h-4.37l3.05-79.88 4.43-31z" transform="matrix(-1 0 0 1 361.333 -362.931)"/><path fill="url(#am)" d="M189.4 522.83s-8.72 32.55-8.48 48.73c.14 8.86 3.32 29.1 3.32 29.1l-5.53.27s-2.07-34.1-1.8-50.33c.2-10.47 12.5-27.77 12.5-27.77z" transform="matrix(-1 0 0 1 361.333 -362.931)"/><path fill="url(#an)" d="M195.77 500.32l2.97.13 2.34 59.77-3.2 40.35 5.34.36 1.75-69.77-5.17-32.43-4.03 1.6z" transform="matrix(-1 0 0 1 361.333 -362.931)"/><path fill="url(#ao)" d="M204.93 519.04s-12.48 36.34-12.27 52.52c.1 8.86 2.92 29.1 2.92 29.1l-4.87.27s-1.82-34.1-1.58-50.33c.16-10.47 15.8-31.56 15.8-31.56z" transform="matrix(-1 0 0 1 361.333 -362.931)"/><path fill="url(#ap)" d="M178.52 470.1l3.57 93.63-3.22 36.87 5.36.33 2.5-89.58-8.22-41.26z" transform="matrix(-1 0 0 1 361.333 -362.931)"/><path fill="url(#aq)" d="M186.35 486l4.33 74.22-3.2 40.35 5.34.36 1.75-69.77-8.22-45.16z" transform="matrix(-1 0 0 1 361.333 -362.931)"/><path fill="url(#ar)" d="M191.53 526.74s6.92 35.24 6.65 49.07c-.16 7.6-3.8 24.9-3.8 24.9l6.33.23s2.4-29.16 2.08-43.04c-.2-8.97-11.25-31.16-11.25-31.16z" transform="matrix(-1 0 0 1 361.333 -362.931)"/><path fill="#4d9805" d="M166.86 163.8s-6.92 35.25-6.65 49.08c.16 7.58 3.82 24.9 3.82 24.9l-6.34.22s-2.4-29.16-2.07-43.05c.2-8.95 11.26-31.14 11.26-31.14z"/><path fill="url(#as)" d="M217.9 535.23s5.8 26.75 6.07 40.58c.16 7.6 3.8 24.9 3.8 24.9l-6.33.23s-2.4-29.16-2.07-43.04c.2-8.97-1.48-22.67-1.48-22.67z" transform="matrix(-1 0 0 1 361.333 -362.931)"/><path fill="url(#at)" d="M243.8 510.45s-3.78 33.6-3.54 53.8c.14 11.06 3.32 36.36 3.32 36.36l-5.53.33s-2.08-42.58-1.8-62.86c.18-13.07 7.55-27.62 7.55-27.62z" transform="matrix(-1 0 0 1 361.333 -362.931)"/><path fill="url(#au)" d="M212.36 520.43s-5.63 35.74-3.6 55.38c.8 7.55 3.82 24.9 3.82 24.9l-6.35.23s-2.4-29.16-2.07-43.04c.2-8.97 8.2-37.47 8.2-37.47z" transform="matrix(-1 0 0 1 361.333 -362.931)"/><path fill="url(#av)" d="M221.94 490.05l3.63 77.88-.52 33h4.37l-3.05-79.88-4.43-31z" transform="matrix(-1 0 0 1 361.333 -362.931)"/><path fill="url(#aw)" d="M216 522.83s8.74 32.55 8.5 48.73c-.14 8.86-3.32 29.1-3.32 29.1l5.53.27s2.1-34.1 1.8-50.33c-.17-10.47-12.5-27.77-12.5-27.77z" transform="matrix(-1 0 0 1 361.333 -362.931)"/><path fill="url(#ax)" d="M214.8 500.14l3.58.3-2.35 59.78 3.22 40.35-5.36.36-1.76-69.77 5-28.2-2.33-2.82z" transform="matrix(-1 0 0 1 361.333 -362.931)"/><path fill="url(#ay)" d="M232.48 519.04s12.48 36.34 12.27 52.52c-.12 8.86-2.92 29.1-2.92 29.1l4.87.27s1.83-34.1 1.58-50.33c-.16-10.47-15.8-31.56-15.8-31.56z" transform="matrix(-1 0 0 1 361.333 -362.931)"/><path fill="url(#az)" d="M212.04 457.72l3.57 102.5-3.2 40.35 5.35.36 2.5-98.06-8.2-45.15z" transform="matrix(-1 0 0 1 361.333 -362.931)"/><path fill="url(#aA)" d="M254.72 486l-4.33 74.22 3.2 40.35-5.35.36-1.75-69.77 8.22-45.16z" transform="matrix(-1 0 0 1 361.333 -362.931)"/><path fill="url(#aB)" d="M226.37 526.74s-6.92 35.24-6.64 49.07c.15 7.6 3.8 24.9 3.8 24.9l-6.34.23s-2.4-29.16-2.08-43.04c.2-8.97 11.25-31.16 11.25-31.16z" transform="matrix(-1 0 0 1 361.333 -362.931)"/><path fill="url(#aC)" d="M216.83 526.74s-6.92 35.24-6.64 49.07c.14 7.6 3.8 24.9 3.8 24.9l-6.35.23s-2.4-29.16-2.07-43.04c.2-8.97 11.25-31.16 11.25-31.16z" transform="matrix(-1 0 0 1 361.333 -362.931)"/><path fill="url(#aD)" d="M231.58 535.23s5.8 26.75 6.1 40.58c.14 7.6 3.8 24.9 3.8 24.9l-6.35.23s-2.4-29.16-2.07-43.04c.2-8.97-1.48-22.67-1.48-22.67z" transform="matrix(-1 0 0 1 361.333 -362.931)"/><path fill="url(#aE)" d="M227.97 510.45s-3.78 33.6-3.54 53.8c.13 11.06 3.32 36.36 3.32 36.36l-5.53.33s-2.1-42.58-1.8-62.86c.18-13.07 7.55-27.62 7.55-27.62z" transform="matrix(-1 0 0 1 361.333 -362.931)"/><path fill="url(#aF)" d="M236.02 529.98s-5.46 26.2-3.4 45.83c.77 7.55 3.8 24.9 3.8 24.9l-6.35.23s-2.4-29.16-2.07-43.04c.2-8.97 8.02-27.92 8.02-27.92z" transform="matrix(-1 0 0 1 361.333 -362.931)"/><path fill="url(#aG)" d="M246.42 490.05l3.63 77.88-.52 33h4.38l-3.04-79.88-4.44-31z" transform="matrix(-1 0 0 1 361.333 -362.931)"/><path fill="url(#aH)" d="M229.7 500.32l-2.98.13-2.34 59.77 3.2 40.35-5.35.36-1.74-69.77 5.16-32.43 4.03 1.6z" transform="matrix(-1 0 0 1 361.333 -362.931)"/><path fill="url(#aI)" d="M220.53 519.04s12.48 36.34 12.27 52.52c-.12 8.86-2.92 29.1-2.92 29.1l4.87.27s1.83-34.1 1.58-50.33c-.16-10.47-15.8-31.56-15.8-31.56z" transform="matrix(-1 0 0 1 361.333 -362.931)"/><path fill="url(#aJ)" d="M246.93 470.1l-3.57 93.63 3.22 36.87-5.36.33-2.5-89.58 8.2-41.26z" transform="matrix(-1 0 0 1 361.333 -362.931)"/><path fill="url(#aK)" d="M239.1 486l-4.32 74.22 3.2 40.35-5.35.36-1.74-69.77 8.2-45.16z" transform="matrix(-1 0 0 1 361.333 -362.931)"/></g><g><path fill="url(#aL)" d="M263.16 152.6c-1.68 2.76-6.9 21.5-8.74 21.17-1.87.1-2.04-4.24-2.26-8.25-.2-3.4-.4-6.6-1.78-6.6-1.7 0-8.62 11.14-11.68 10.38-.9-.22-.08-6.67-.4-8.56l-3.73 18.53-6.74-16.16-6.04 7.1-4.37-4.12v70.38H323.86V171.1l-4.36 3.86-6.04-6.6-6.74 15-3.72-17.22c-.33 1.76.5 7.76-.4 7.97-3.07.72-10-9.62-11.7-9.6-1.36 0-1.6 2.92-1.77 6.08-.22 3.73-.4 7.78-2.26 7.7-1.85.3-7.06-17.12-8.74-19.67-1.62 2.16 1.5 7.1-1 9.26l-2.36-2.1-4.63-8.87-5.97 5.68c-2.52-2.3.6-7.65-1-9.97z"/><path fill="url(#aM)" d="M229.98 172.3s-5.8 26.75-6.08 40.58c-.16 7.58-3.8 24.9-3.8 24.9l6.33.22s2.4-29.16 2.07-43.05c-.2-8.95 1.48-22.65 1.48-22.65z"/><path fill="url(#aN)" d="M238.07 147.52s3.78 33.6 3.54 53.8c-.13 11.06-3.3 36.36-3.3 36.36l5.52.32s2.08-42.58 1.8-62.86c-.18-13.07-7.55-27.62-7.55-27.62z"/><path fill="url(#aO)" d="M235.5 157.5s5.64 35.74 3.6 55.38c-.8 7.54-3.8 24.9-3.8 24.9l6.34.22s2.4-29.16 2.07-43.05c-.2-8.95-8.2-37.45-8.2-37.45z"/><path fill="url(#aP)" d="M225.93 127.12L222.3 205l.52 33h-4.37l3.05-79.88 4.43-31z"/><path fill="url(#aQ)" d="M231.86 159.9s-8.73 32.55-8.48 48.73c.13 8.86 3.3 29.1 3.3 29.1l-5.52.27s-2.08-34.1-1.8-50.33c.18-10.47 12.5-27.77 12.5-27.77z"/><path fill="url(#aR)" d="M233.06 137.2l-3.57.32 2.34 59.77-3.22 40.34 5.36.36 1.75-69.77-5-28.2 2.33-2.82z"/><path fill="url(#aS)" d="M248.9 156.1s-12.5 36.35-12.28 52.53c.12 8.86 2.92 29.1 2.92 29.1l-4.87.27s-1.83-34.1-1.58-50.33c.15-10.47 15.8-31.56 15.8-31.56z"/><path fill="url(#aT)" d="M221.33 94.8l-3.57 102.5 3.2 40.34-5.34.36-2.5-98.06 8.2-45.15z"/><path fill="url(#aU)" d="M241.65 123.07l4.33 74.22-3.22 40.34 5.36.36 1.75-69.77-8.22-45.16z"/><path fill="url(#aV)" d="M221.5 163.8s6.92 35.25 6.64 49.08c-.15 7.58-3.8 24.9-3.8 24.9l6.34.22s2.4-29.16 2.07-43.05c-.2-8.95-11.25-31.14-11.25-31.14z"/><path fill="url(#aW)" d="M231.04 163.8s6.92 35.25 6.64 49.08c-.15 7.58-3.8 24.9-3.8 24.9l6.34.22s2.4-29.16 2.07-43.05c-.22-8.95-11.26-31.14-11.26-31.14z"/><path fill="url(#aX)" d="M264.8 172.3s-5.82 26.75-6.1 40.58c-.15 7.58-3.8 24.9-3.8 24.9l6.34.22s2.4-29.16 2.07-43.05c-.2-8.95 1.5-22.65 1.5-22.65z"/><path fill="url(#aY)" d="M268.4 147.52s3.78 33.6 3.54 53.8c-.13 11.06-3.32 36.36-3.32 36.36l5.53.32s2.1-42.58 1.8-62.86c-.18-13.07-7.55-27.62-7.55-27.62z"/><path fill="url(#aZ)" d="M260.35 167.05s5.46 26.2 3.4 45.83c-.77 7.54-3.8 24.9-3.8 24.9l6.35.22s2.4-29.16 2.07-43.05c-.2-8.95-8.02-27.9-8.02-27.9z"/><path fill="url(#ba)" d="M251.45 127.12L247.82 205l.52 33h-4.38l3.05-79.88 4.45-31z"/><path fill="url(#bb)" d="M260.32 159.9s-8.72 32.55-8.48 48.73c.13 8.86 3.32 29.1 3.32 29.1l-5.53.27s-2.1-34.1-1.8-50.33c.17-10.47 12.5-27.77 12.5-27.77z"/><path fill="url(#bc)" d="M266.68 137.4l2.97.12L272 197.3l-3.22 40.34 5.36.36 1.74-69.77-5.17-32.43-4.02 1.6z"/><path fill="url(#bd)" d="M275.84 156.1s-12.48 36.35-12.27 52.53c.12 8.86 2.92 29.1 2.92 29.1l-4.87.27s-1.84-34.1-1.6-50.33c.17-10.47 15.8-31.56 15.8-31.56z"/><path fill="url(#be)" d="M249.44 107.16L253 200.8l-3.2 36.87 5.35.33 2.5-89.58-8.2-41.26z"/><path fill="url(#bf)" d="M257.26 123.07l4.33 74.22-3.22 40.34 5.36.36 1.74-69.77-8.22-45.16z"/><path fill="url(#bg)" d="M262.45 163.8s6.92 35.25 6.64 49.08c-.16 7.58-3.82 24.9-3.82 24.9l6.35.22s2.4-29.16 2.07-43.05c-.2-8.95-11.25-31.14-11.25-31.14z"/><path fill="#4d9805" d="M265.4 163.8s6.9 35.25 6.63 49.08c-.15 7.58-3.8 24.9-3.8 24.9l6.34.22s2.4-29.16 2.07-43.05c-.2-8.95-11.25-31.14-11.25-31.14z"/><path fill="url(#bh)" d="M288.8 172.3s5.8 26.75 6.1 40.58c.14 7.58 3.8 24.9 3.8 24.9l-6.35.22s-2.4-29.16-2.07-43.05c.2-8.95-1.48-22.65-1.48-22.65z"/><path fill="url(#bi)" d="M314.7 147.52s-3.76 33.6-3.52 53.8c.13 11.06 3.32 36.36 3.32 36.36l-5.53.32s-2.1-42.58-1.8-62.86c.17-13.07 7.54-27.62 7.54-27.62z"/><path fill="url(#bj)" d="M283.27 157.5s-5.63 35.74-3.58 55.38c.77 7.54 3.8 24.9 3.8 24.9l-6.35.22s-2.4-29.16-2.07-43.05c.2-8.95 8.2-37.45 8.2-37.45z"/><path fill="url(#bk)" d="M292.85 127.12l3.63 77.88-.52 33h4.38l-3.06-79.88-4.43-31z"/><path fill="url(#bl)" d="M286.92 159.9s8.73 32.55 8.5 48.73c-.14 8.86-3.33 29.1-3.33 29.1l5.52.27s2.1-34.1 1.8-50.33c-.18-10.47-12.5-27.77-12.5-27.77z"/><path fill="url(#bm)" d="M285.72 137.2l3.57.32-2.35 59.77 3.2 40.34-5.34.36-1.74-69.77 5-28.2-2.34-2.82z"/><path fill="url(#bn)" d="M303.4 156.1s12.48 36.35 12.26 52.53c-.1 8.86-2.92 29.1-2.92 29.1l4.87.27s1.85-34.1 1.6-50.33c-.16-10.47-15.8-31.56-15.8-31.56z"/><path fill="url(#bo)" d="M282.95 94.8l3.57 102.5-3.2 40.34 5.35.36 2.5-98.06-8.22-45.15z"/><path fill="url(#bp)" d="M325.64 123.07l-4.33 74.22 3.22 40.34-5.36.36-1.74-69.77 8.22-45.16z"/><path fill="url(#bq)" d="M297.3 163.8s-6.93 35.25-6.65 49.08c.15 7.58 3.8 24.9 3.8 24.9l-6.34.22s-2.4-29.16-2.06-43.05c.2-8.95 11.25-31.14 11.25-31.14z"/><path fill="url(#br)" d="M287.74 163.8s-6.92 35.25-6.64 49.08c.15 7.58 3.8 24.9 3.8 24.9l-6.34.22s-2.4-29.16-2.07-43.05c.2-8.95 11.24-31.14 11.24-31.14z"/><path fill="url(#bs)" d="M302.5 172.3s5.8 26.75 6.08 40.58c.15 7.58 3.8 24.9 3.8 24.9l-6.34.22s-2.4-29.16-2.07-43.05c.2-8.95-1.47-22.65-1.47-22.65z"/><path fill="url(#bt)" d="M298.88 147.52s-3.78 33.6-3.54 53.8c.14 11.06 3.32 36.36 3.32 36.36l-5.53.32s-2.08-42.58-1.8-62.86c.18-13.07 7.55-27.62 7.55-27.62z"/><path fill="url(#bu)" d="M306.93 167.05s-5.45 26.2-3.4 45.83c.78 7.54 3.8 24.9 3.8 24.9L301 238s-2.4-29.16-2.08-43.05c.2-8.95 8-27.9 8-27.9z"/><path fill="url(#bv)" d="M317.34 127.12l3.63 77.88-.52 33h4.37l-3.05-79.88-4.43-31z"/><path fill="url(#bw)" d="M300.6 137.4l-2.97.12-2.34 59.77 3.2 40.34-5.35.36-1.75-69.77 5.17-32.43 4.03 1.6z"/><path fill="url(#bx)" d="M291.44 156.1s12.48 36.35 12.27 52.53c-.1 8.86-2.9 29.1-2.9 29.1l4.86.27s1.84-34.1 1.6-50.33c-.17-10.47-15.82-31.56-15.82-31.56z"/><path fill="url(#by)" d="M317.85 107.16l-3.57 93.64 3.2 36.87-5.35.33-2.5-89.58 8.22-41.26z"/><path fill="url(#bz)" d="M310.02 123.07l-4.33 74.22 3.2 40.34-5.35.36-1.75-69.77 8.22-45.16z"/></g><path fill="url(#bA)" d="M-1.3 216.12h327v22.5h-327z"/></svg>