<svg xmlns="http://www.w3.org/2000/svg" width="400" height="300"><g fill-rule="evenodd"><path fill="#faeec4" d="M309.68 13.1c0 1.82-.02 1.87-1.13 2.54-2.13 1.3-7 5.16-6.76 5.36.36.3 2.48.87 6.98 1.83.9.2 1.8.4 2 .45.5.13 1.37 2.1 2.48 5.55 1.42 4.37 1.38 4.35 3.03 1.33.53-1 1.12-2.04 1.3-2.34.3-.5-2.88-7.2-7.2-15.2l-.72-1.36v1.85M107.8 16c-2.7 1.23-3.3 1.83-2.25 2.22.3.1.6.27.68.36.35.4 1.54.93 2.1.93 1.4 0 2.4.85 2.4 2.04.02 3.5 1.17 4.96 2.3 2.9l.68-1.2-1.34-4.27c-.75-2.35-1.45-4.26-1.57-4.25-.13 0-1.47.58-3 1.27m152.24 1.67c-.1.15.15.25.55.23.38-.03.64-.15.57-.27-.2-.3-.93-.28-1.13.04m.57 1.54c-.07.15 0 .35.16.45.56.35.35 2.42-.3 3-.74.68-.76 1.06-.05 1.06 1.24 0 3.37-3.04 2.65-3.76-.6-.6-2.22-1.08-2.44-.73M40.77 27.03c-1.95 1.38-1.8.8-2.35 8.37-.38 5.3-.4 4.97.2 4.47.3-.25 1.9-.52 4.13-.7 4.56-.4 4.6-.5 1.5-3.65-2.66-2.7-2.63-2.58-1.5-6.94.84-3.3.68-3.44-1.97-1.56m41.6 5.28c-8.3.55-8 .48-7.77 1.85.45 2.7 1.63 7.6 2.06 8.63l.46 1.12 2.3-2.97c1.26-1.63 2.55-3.4 2.88-3.95.84-1.4 1.33-1.58 3.55-1.26 2.1.3 7.17.4 7.17.12 0-1.17-2.92-4.06-4.02-4-.35.03-3.33.23-6.63.46m197.3 2.5c-.34.22-.06.65 1.4 2.2l1.85 1.9-.44 2.34c-.5 2.6-.46 2.72.62 2.45 1.28-.33 1.6-1.24 1.8-5.37l.22-3.82h-2.5c-1.38.02-2.7.14-2.94.3m57.45 1.94c-2 3.45-5.07 8.3-5.42 8.6-.22.2-2.68.44-5.87.6-6.5.34-6.1.1-4.1 2.38 2.62 3 1.2 3 18.03-.03 3.48-.63 4.94-1.2 3.1-1.2-.65 0-.8-.26-1.52-2.6-1.25-4.15-3.07-8.8-3.44-8.8-.1 0-.44.47-.77 1.04m32.46 2.77c-.1.12.08.44.4.73.75.63.75.7.46 5.04l-.24 3.4.7-.38c.98-.52 2.26-1.43 3.9-2.76 1.47-1.18 2.35-1.37 3.8-.8.45.2 1.1.45 1.43.58.32.13 1.2.5 1.94.84 1.85.83 2.06.45 1.02-1.87-1.08-2.42-.93-2.34-7.47-3.66-2.97-.6-5.5-1.14-5.6-1.2-.1-.06-.26-.03-.36.07M115.82 60.1c0 .25.13.5.3.56.87.3.4 2.92-.78 4.33-1.92 2.28-3.33 4.2-7.77 10.6-1.8 2.6-2.15 3.33-1.57 3.4.37.02 7.44-.36 13.22-.72l5.35-.33.9.86c.5.48 1.64 1.88 2.54 3.12 2 2.76 4.12 5.55 5.1 6.75.42.5 1.32 1.67 2.02 2.6 1.5 2.06 1.76 2.05 2.2-.07.43-2 1.5-6.5 1.77-7.36.15-.53-1.72-2.54-11.54-12.43-6.45-6.47-11.73-11.57-11.73-11.3m150.2 2.22c-.5.06-1.23.18-1.63.27l-.7.15.6.58c.36.32.78.6.95.6.18 0 .32.64.32 1.47 0 2.07.78 2.34 1.48.52.36-.96.43-3.83.1-3.76-.13.03-.64.1-1.13.16m-216.9 4.53c-.3.33-1.17.84-1.95 1.13-3.22 1.22-8.46 4.05-8.46 4.58 0 .22 1.35.9 4.5 2.23.73.3 2.05.88 2.93 1.3.88.4 1.7.72 1.84.72.6 0 1.37 1.35 1.6 2.78.13.87.36 2.38.52 3.37.3 1.97 1.14 5.28 1.4 5.54.2.2 1.13-.92 2.7-3.16l1.05-1.53-1.2-3.86c-3.67-11.92-4.35-13.73-4.93-13.1m322.97 9.17c0 .33-.68.48-2.78.62-3.96.28-7.5.74-7.77 1.02-.14.14 1.42 1.9 3.45 3.9l3.7 3.66-.4 1.88c-1.15 5.23-1.5 7.87-1.1 7.7 4.4-1.6 4.46-1.73 4.88-10 .18-3.64.38-7.12.44-7.74.07-.62 0-1.2-.15-1.3-.16-.08-.28.03-.28.27M31.03 94.65c-1.07.86-4.2 3.05-8.23 5.75-1.56 1.04-3.18 2.18-3.6 2.53l-.75.64 1.48-.14c1.32-.13 1.57-.05 2.25.67 4.33 4.55 6.16 6.3 6.36 6.1.3-.3.87-4.84.87-7 0-2.35.5-2.86 4.96-5.07 4.25-2.1 4.32-2.25 1.63-3.27-2.85-1.06-3.86-1.1-4.96-.22m291.28 12.1c-.18 2.94-.47 6.43-.64 7.75-.16 1.32-.3 3.23-.3 4.23 0 2.02-.24 2.28-4.05 4.3-1.95 1.05-2.85 1.56-7.35 4.23-2.07 1.22-4.13 2.42-4.6 2.65-1.07.57-.78.83 2.1 1.82 1.3.44 2.82 1.02 3.4 1.27 3.5 1.52 3.47 1.53 8.55-2.6 1.5-1.22 7.4-5.57 7.55-5.57.08 0 .7-.47 1.4-1.04 2.1-1.75 7.66-6.12 9.46-7.44.93-.68 1.76-1.33 1.85-1.43.07-.1.4-.3.74-.45.58-.25.58-.26-.06-.37-.37-.06-.93.03-1.26.2-1.18.64-1.86.35-3.88-1.67-1.1-1.1-3.76-3.62-5.9-5.6-2.15-2-4.36-4.08-4.9-4.62-1.7-1.64-1.74-1.53-2.12 4.35m60.25 3.3c-.42.62-1.05 1.75-1.4 2.5l-.64 1.4-2.88.14c-3.4.17-3.53.26-2.4 1.43 1.2 1.27 1.37 1.28 6.28.47 4.45-.75 5.07-.92 4.5-1.3-.3-.2-1.1-2.56-1.6-4.72-.3-1.27-.95-1.24-1.86.07m-333.5 14.68c-.5.05-1.75.18-2.78.27l-1.9.18v1.34c0 4.04.92 4.8 2.77 2.3 1.66-2.23 1.4-2.1 4.15-1.95 2.7.16 3.1-.22 1.6-1.6-.8-.73-1.44-.83-3.86-.54m25.18 14.62c-.7 1.83.82 3.9 1.6 2.2.24-.53.66-.78 1.54-.92 2.55-.4 1.62-1.7-1.23-1.7-1.22 0-1.8.13-1.9.42m-41.97 9.95c-.84 1.28-.4 1.92 1.05 1.53.9-.24 1.35-.23 1.8.04.3.2.77.37 1.02.37.88 0-.15-1.4-1.53-2.06-1.67-.8-1.74-.8-2.34.12m297.95 9.14c-.33.14-.43.27-.23.28.22 0 .3.23.18.54-.1.3-.12.46-.04.38.2-.2.9-1.5.78-1.48-.05 0-.36.14-.7.28m-1.24 1.62c0 .23.18.35.4.27.22-.1.4-.28.4-.42 0-.14-.18-.26-.4-.26-.22 0-.4.2-.4.42"/><path fill="#efbc0c" d="M307.92 6.03c-.06 1.46.02 2.07.24 1.93.2-.13.33.44.36 1.7.03 1.04.1 1.5.18 1 .25-1.8 1.35-1.47 4.93 1.48 3.03 2.5 6.48 12.16 5.25 14.73-.72 1.53-.15 1.04.68-.57.8-1.57 1.2-1.7 5.23-1.7 5.98 0 6.7-.35 4.9-2.38-.53-.62-1.4-1.64-1.93-2.3-.53-.64-1.5-1.77-2.17-2.52-.67-.74-1.2-1.4-1.2-1.5 0-.08.52-2.23 1.17-4.78 1.28-5.06 1.28-5.12 0-5.12-.98 0-1.02.02-4.73 2-.7.4-1.5.7-1.73.7-.23 0-.42.12-.42.25 0 1.08-2.3.2-6.22-2.36-4.9-3.22-4.43-3.17-4.54-.57m-197.36 3.8c-.13.78-.3 1.63-.36 1.87-.36 1.33-.34 2.2.03 1.07.53-1.6.83-1.6 2.22-.04 1.92 2.2 3.52 8.83 2.48 10.3-.2.3-.04.16.38-.28.8-.83 3.58-1.2 4-.52.2.34 2.83.37 2.83.04 0-.13-.6-1.23-1.35-2.43-1.6-2.6-1.64-3.1-.45-5.44 1.6-3.17 1.4-3.32-2.93-2.25l-1.58.4-2.4-2.08c-2.86-2.46-2.57-2.4-2.86-.64M308.68 14c.12.3-.07.7-.53 1.08l-.72.6.75-.45c.75-.45 1.2-1.73.63-1.73-.16 0-.22.22-.12.5M73.12 15.07c-.1.37-.17 2.52-.18 4.78-.03 5.3.44 4.62-6.3 9.03-2.27 1.47-2.36 1.73-.84 2.23.63.2 1.9.7 2.8 1.14.94.42 1.75.7 1.83.63.07-.08-.15-.23-.5-.34-.98-.3-.72-.92.8-1.9 4.24-2.72 6.02-2.98 14.27-2.13l3.53.37 1.6 1.83c.87 1 1.84 2.27 2.16 2.8.3.54.67.98.8.98.3 0-1.33-2.4-2.63-3.88-2.6-2.95-2.6-3.04-.9-7.5 2.12-5.54 2.12-5.62-.16-4.85-2.03.7-5.78 1.73-7.2 1.98-.97.18-1.28.02-4.66-2.62-4.5-3.5-4.23-3.36-4.42-2.55m191.25 3.02c0 .1.15.5.33.92.52 1.13.08 2.2-1.55 3.83-1.58 1.57-1.7 1.76-1.1 1.76.2 0 .54.42.73.93.36.95 1.6.85 1.6-.13 0-.7 1.34-1.7 2.33-1.7 1.24 0 1.28-.68.08-1.38-.76-.46-.9-.73-.97-2-.07-1.23-1.43-3.32-1.43-2.22m-160.3.57c.14.14.57.3.96.38.4.08.8.3.94.52.14.2.25.25.25.08 0-.5-1.12-1.3-1.77-1.26-.34 0-.5.14-.37.28m197.65 3.23c-.1.18.17.3.65.3.66 0 .75-.07.4-.3-.58-.37-.82-.37-1.05 0M32.1 24.46c0 .06.43.3.94.57.7.35.85.36.6.05-.32-.37-1.53-.86-1.53-.62m-3.46.72c.1.15.04.62-.12 1.04-.23.62-.2.73.15.6.28-.12.44.02.45.38 0 .3.2 1.63.4 2.94l.4 2.4-2.8 2.67c-2.84 2.72-3.2 3.2-2.35 3.2.26 0 .4.15.3.3-.17.27.67.46 1.4.34.14 0 .24.1.24.27 0 .18.4.3.9.3s.9.14.9.3c0 .17.34.27.76.24.4-.03.75-.17.75-.3 0-.15.18-.16.38-.03.2.14.68.26 1.06.28.37.02.7.1.75.16.58 1 .8 1.54.8 1.92 0 .25.14.45.3.45.17 0 .3.28.3.6 0 .33.3 1.1.64 1.73 1.04 1.86 2.37 2.82 2.37 1.7 0-.24.14-.37.3-.27.17.1.3-.1.3-.43 0-.34.14-.62.3-.62.17 0 .3-.2.3-.5 0-.26.1-.4.2-.3.26.27 1.05-1.27.84-1.62-.1-.15.08-.27.38-.27.45 0 .47-.04.1-.28-.36-.23-.38-.36-.08-.66.45-.45.48-.85.07-.85-.15 0-.3.2-.3.42 0 .58-1.44 2.06-1.8 1.84-.4-.25-1.13-2.03-1.62-3.9-.7-2.7.7-9.73 2.27-11.3.55-.54.55-.55-.02-.55-.32 0-.67.14-.77.3-.27.43-1.4.25-2.34-.38-.44-.28-.93-.5-1.1-.5-.17 0-.3-.15-.3-.3 0-.18-.2-.3-.46-.3-.25 0-.45-.12-.45-.24s-.36-.4-.8-.6c-.94-.43-3.2-.5-2.96-.1m13.52.02c-.13.23.06.27.6.13.55-.14.9-.07 1.1.2.25.35.28.35.18-.02-.15-.53-1.6-.77-1.88-.3m-1.78.76c-.32.24-.52.5-.44.57.07.08.47-.12.88-.44.4-.32.6-.58.44-.58-.16 0-.56.2-.88.44m333.2.9c0 .27-.12.4-.3.3-.16-.1-.3.14-.3.58 0 .42-.13.77-.3.77-.18 0-.24-.13-.14-.3.1-.16-.04-.3-.32-.3-.37 0-.42.1-.18.4.47.56.04 2.22-.5 1.9-.1-.08-.2.36-.24.96-.02.6-.1 1.44-.2 1.85-.1.42-.17.86-.2.98 0 .13-.48.23-1.06.23-.58 0-1.3.13-1.58.28-.28.15-1.13.45-1.87.66-2.55.73-3.27 1.53-2.13 2.36.33.23.52.53.44.66-.08.14.07.25.32.25.26 0 .47.12.47.26s.32.43.73.64c.4.22.65.55.54.73-.1.18.04.14.32-.1.44-.35.58-.3 1.1.3.33.37.7.6.8.48.1-.1-.23-.55-.75-1-1.27-1.04-1.2-1.42.32-1.88 5-1.5 13.37 1 14.14 4.27.12.44.34.8.5.8.2 0 .2-.18.03-.5-.52-1-.96-3.1-.74-3.47.12-.2 1.07-1.47 2.1-2.82 2.8-3.62 2.77-3.7-2.02-3.7h-3.92l-.8-.93c-.45-.52-1.1-1.37-1.42-1.9-1.87-3-2.85-3.93-2.85-2.7m-56.36 2.7c-1.65 2.77-2.06 3.3-2.6 3.24-.32-.02-.42.07-.24.25.5.5 1.2-.05 2.04-1.63.46-.86 1.1-1.93 1.4-2.4.32-.44.5-.8.4-.8-.1 0-.55.6-1 1.35m-30.6-.1c-.2.2-.37.52-.37.7 0 .2-.2.53-.45.74-.56.47-.6.94-.04.73 1.6-.6 2.15 5.58.83 9.3-.34 1-.46 1.63-.27 1.44.42-.42 1.44-.48 1.44-.1 0 .15.24.35.53.45.3.1 1.13.52 1.87.92 1.8.98 2.06.1 1.06-3.76-.17-.68.05-1.03 1.62-2.58 2.35-2.3 2.38-2.8.16-2.8-2.7 0-3.42-.47-4.63-3.1-1.12-2.42-1.18-2.5-1.74-1.93m-243.9 2.15c-.1.25-.1.7-.03 1 .1.33.16.18.18-.36.03-.7.1-.8.33-.45.2.28.3.32.3.1 0-.56-.58-.78-.77-.28m3.48 4.02c0 .2-.2.27-.5.15-.5-.2-.5-.18-.02.32.3.3.68.43.88.3.2-.12.26-.07.13.14-.13.2 0 .57.26.84.32.33.43.75.3 1.23-.1.47-.06.66.14.54.4-.25.4-1.96 0-1.96-.15 0-.3-.16-.3-.37 0-.48-.9-1.65-.9-1.2m94.37 3.6c-4.33 3.54-9 7.45-9.74 8.1-2.64 2.44-3.18 2.5-7.8.97-.9-.3-2.53-.77-3.6-1.04-1.07-.28-3.37-.95-5.1-1.5-3.48-1.1-5.4-1.5-5.4-1.14 0 .27.28 1.04 2.2 6.24 1.74 4.73 3.57 9.18 3.7 9.04.08-.06-.4-1.5-1.06-3.22-1.6-4.23-1.6-4.23 5.36-2 5.7 1.8 7.7 3.2 12.6 8.8 2.14 2.46 8.77 12.8 9.3 14.54.2.64.27.5.46-.84.3-2.12.75-2.56 3.6-3.5 1.3-.45 2.66-.93 3-1.07 1.93-.83 6.2-2.42 10.87-4.05 1.92-.67 1.88-.83-.45-2.25-1-.62-2.02-1.27-2.24-1.46-.55-.46-5.03-3.33-5.2-3.33-.15.02-5.44-3.45-6.52-4.25-.47-.34-.56-1.37-.82-9.78-.36-11.5-.08-10.78-3.17-8.25m-100.66.64c-.16.05-.3.2-.3.3 0 .25 3.4.07 3.67-.2.2-.2-2.8-.3-3.36-.1m40.44.73c-.24.36-.93 1.2-1.53 1.84-.58.65-1 1.25-.93 1.33.08.07.2.08.25.02 1.3-1.58 2.9-3.65 2.9-3.75 0-.3-.25-.1-.68.54m26.6-.24c-.1.23-.37.33-.64.23-.3-.13-.4-.07-.25.16.27.44 1.68.47 1.68.03 0-.18.1-.26.25-.17.13.08.25-.02.25-.22 0-.5-1.1-.55-1.3-.04m262.86 1.18c.18.4.38.68.44.62.2-.18-.28-1.35-.54-1.35-.14 0-.1.34.1.74m-259.18-.07c.08.13.34.24.58.24.23 0 .43.14.43.3 0 .18.13.3.3.3.18 0 .16-.22-.06-.57-.2-.3-.6-.56-.88-.53-.3.02-.47.14-.38.27m259.16 2.64c0 .92.06 1.3.13.84.08-.46.08-1.2 0-1.65-.06-.47-.12-.1-.12.8m-253.35-.82c0 .13.4.23.92.23.5 0 1.13.2 1.37.46.25.25.6.45.78.45.3 0-.88-1.16-1.24-1.2-1.04-.15-1.83-.12-1.83.08m213.05.53c.6.4 1.6.4 1.35 0-.1-.15-.55-.3-1-.28-.62 0-.7.06-.35.3m-12.1.5c-.1.1-.2.46-.2.8 0 .73.27.5.44-.37.13-.68.08-.76-.24-.44m5.8.1c0 .18.2.3.45.3s.45-.12.45-.3c0-.15-.2-.3-.45-.3s-.45.15-.45.3M124.9 45c.07.26.45.5.85.52.58.04.6.02.13-.1-.33-.1-.7-.33-.85-.52-.16-.22-.2-.2-.12.1m258.94 0c0 .26.17.8.4 1.2.43.75.44.75.45.1 0-.38-.13-.7-.28-.7-.16 0-.34-.23-.42-.5-.1-.38-.14-.4-.16-.1m-277.1.6c-.08.33.03.64.27.73.28.1.43-.04.43-.4 0-.8-.5-1.04-.7-.34m240.8 2c1.42.43.88 1.14-3.03 4-3.4 2.5-16.6 3.65-18.97 1.66-.38-.32-.18-.02.46.66 1.3 1.4 1.4 2 .68 4.18-.54 1.66-2 7.95-2 8.6 0 .44 3.64-.84 7.2-2.52.75-.35 1.66-.78 2.03-.95 1.45-.67 2.28-.34 7.07 2.78 2.6 1.7 4.8 3.02 4.9 2.94.16-.17-.65-9.28-.96-10.8-.17-.88.14-1.27 2.6-3.23.72-.56 2.4-1.95 3.7-3.06 1.33-1.12 2.52-2.03 2.65-2.03 1.33 0-.2-.94-2.4-1.48-2.4-.6-5.1-1.1-3.9-.73M323.32 51c.65.67 1.24 1.2 1.32 1.2.1 0-.37-.53-1.02-1.2-.64-.65-1.24-1.2-1.32-1.2-.07 0 .4.55 1.03 1.2m-.37 2.23c.3.22.52.53.52.7 0 .15.2.28.45.28.56 0 .56.04-.1-.74-.32-.36-.76-.64-.98-.64-.3 0-.28.12.1.4M49.38 56.65c-.1 1.1-.3 2.6-.47 3.28-.16.7-.26 2.05-.23 3 .04 1.56.06 1.6.15.4.25-3.33.32-3.34 3.25-.56 3.6 3.43 5.86 10.66 5.84 18.77.02.2-.4.88-.92 1.5l-.94 1.14 1-1.07c.57-.6 1.34-1.44 1.72-1.9.56-.66.87-.8 1.5-.66.45.1 2.3.3 4.1.5 1.82.16 4.04.43 4.94.6 2.37.4 2.38.43-1.92-6.77-2.4-4-2.6-2.8 1.97-12 1.35-2.73 1.23-2.94-1.18-2.15-.77.25-1.94.55-2.6.66-.66.12-2.2.47-3.43.77-3.5.88-3.2 1-7.98-3.48-5.06-4.76-4.55-4.55-4.8-2.03m19.36 1.57c-.25.15-.72.38-1.05.5-.44.2-.18.28.98.35 1.44.1 2.47-.3 2.47-.96 0-.28-1.9-.18-2.4.1m3.4.26c.54.6.68 2.6.2 2.9-.17.1-.3.45-.3.77s-.12.6-.25.6c-.3 0-4.25 7.77-4.25 8.33 0 .44 1.75 3.6 2.12 3.82.14.1.48.67.75 1.28.86 2 1.16 2.6 1.33 2.76.45.43 2.4 3.34 2.4 3.6 0 .17.12.3.3.3.15 0 .3-.34.3-.75 0-.4-.1-.75-.24-.75-.14 0-.42-.28-.63-.63-.22-.36-.25-.55-.07-.44.53.33.36-.44-.3-1.38-.35-.48-.8-.86-.98-.83-.8.1-1.1-.06-1.1-.56.02-.48.06-.47.46.05.33.44.44.47.44.13 0-.24-.2-.7-.44-1.03-.24-.32-.45-.76-.45-.98-.02-.72-1.24-2.15-1.83-2.15-.65 0-.8-.47-.2-.7.28-.12.26-.23-.07-.46-.24-.17-.54-.24-.67-.15-.13.1-.24-.06-.24-.33s.13-.4.3-.3c.16.1.3.05.3-.12 0-.16-.14-.38-.3-.48-.17-.1-.3-.35-.28-.55.02-.24.08-.23.18.04.22.55.97-.5 1-1.37 0-.38.13-.68.3-.68.16 0 .3-.42.3-.92 0-.54.12-.84.3-.73.16.1.3-.03.3-.3 0-.24.1-.45.23-.45.23 0 .77-1.13 1.13-2.4.1-.42.34-.92.5-1.12 1.06-1.32 1.72-3.38 1.1-3.38-.2 0-.27-.1-.16-.2.35-.35-.45-1-1.23-1-.73 0-.75.02-.28.54m195.72 1.1c-.53.4-.53.5-.1.97.72.8.9 2.46.53 4.58-.48 2.64-.15 2.93 2.92 2.65.2-.02.37-.22.37-.45 0-.25.14-.33.37-.2.26.16.25.07-.03-.28-.22-.27-.6-.5-.85-.5-.28 0-.38-.18-.26-.48.1-.26.17-.6.17-.75 0-.16.14-.28.32-.28.16 0 .2.15.1.34-.14.22-.1.27.12.14.2-.12.35-.4.35-.62 0-.22.2-.48.47-.58.26-.1.4-.3.3-.45-.1-.15 0-.34.2-.42.22-.08.4-.53.43-1 .02-.48-.03-.63-.1-.34-.17.6-1 .7-1 .1 0-.23-.34-.48-.75-.56-.66-.12-.7-.08-.38.33.25.3.1.26-.44-.12-.8-.58-1.18-1.27-.46-.85.2.12.07-.12-.3-.53-.37-.4-.6-.84-.47-.95.4-.4-.97-.18-1.53.25M114.22 65.2c-.66.88-.86 1.28-.45.9.63-.58 1.94-2.48 1.7-2.48-.05 0-.6.7-1.25 1.57m232.94 1.12c-.15 2.66-.04 3.9.35 3.9.16 0 .3-.34.3-.75 0-.4.12-.75.3-.75.15 0 .3-.27.3-.6 0-.33-.13-.6-.28-.6-.14 0-.4-.78-.55-1.73l-.28-1.73-.14 2.25m-12.58-1.5c0 .16-.24.3-.54.3-.3 0-.67.1-.82.25-.16.14-1.1.56-2.1.93-.98.37-2.77 1.14-3.98 1.7-1.2.56-2.32 1.02-2.47 1.02-.45 0-.34.52.16.7.25.1.4.02.37-.18-.04-.2.25-.4.64-.47.45-.06.64 0 .5.22-.1.17-.06.32.1.32.17 0 .4-.14.5-.3.1-.17.03-.3-.14-.3-.18 0-.32-.15-.32-.34 0-.2.3-.27.75-.2.5.1.75.02.75-.26 0-.48 1.08-.55 1.37-.08.14.24.3.24.53 0 .18-.18.63-.32 1-.32.4 0 .7-.14.7-.3 0-.17.3-.3.64-.3.48 0 .6-.14.48-.6-.1-.4 0-.6.28-.6.24 0 .36.13.25.3-.1.16.02.2.3.1.24-.1.45-.35.45-.56 0-.22.28-.5.63-.6.8-.25 2.08.06 2.08.5 0 .17-.23.24-.52.15-.46-.15-.46-.12.02.2.3.2.85.62 1.2.92.36.3 1.1.74 1.67.98.56.23 1.25.7 1.54 1.02.27.33.73.6 1 .6.26 0 .5.13.5.3 0 .16.2.3.44.3s.45.1.45.25c0 .14.5.5 1.1.83.63.3 1.2.67 1.3.8.48.64 2.34.07 2.46-.76.13-.88-.48-1.17-.78-.37-.2.5-1.4.63-1.4.15 0-.17-.26-.3-.6-.3-.32 0-.6-.14-.6-.3 0-.17-.2-.3-.44-.3-.25 0-.45-.14-.45-.3 0-.17-.22-.3-.46-.3-.25 0-.46-.1-.47-.23 0-.23-1.04-.98-4.85-3.53-1.9-1.28-3.24-1.72-3.24-1.05m40.93 3.22c-.28.62-.77 1.5-1.08 1.95-.55.8-.55.84 0 1.64.67 1 1.08 1.88 1.83 3.83 1.2 3.18 1.14 4.6-.6 11.72l-.94 3.92-1.58 1.02c-.88.56-1.54 1.07-1.48 1.13.07.07.5-.14.96-.45.46-.32 1.47-.9 2.25-1.3l1.4-.72 4.52 2.32c3.62 1.86 4.53 2.22 4.53 1.8 0-.46-.4-3.32-1.18-8.2l-.26-1.65 3.7-3.65c3.26-3.23 3.6-3.67 3.03-3.84-.65-.2-2.3-.46-6.5-1.02-3.27-.43-3.12-.3-5.48-5.18-2.4-4.94-2.38-4.93-3.12-3.34m-52.62 1.8c0 .14.27.27.6.3.33.02.6-.1.6-.24 0-.16-.27-.28-.6-.28-.33 0-.6.1-.6.23m-276 9.1c0 .3.1.57.24.57.15 0 .2.24.1.53-.14.45-.12.46.2.07.28-.38.32-.34.2.23-.1.37-.03.6.12.5.37-.23.35-1.33-.03-1.33-.15 0-.3-.2-.3-.43 0-.68-.46-.8-.5-.16m75.76-.4c.37.06.98.06 1.35 0 .38-.08.07-.14-.67-.14s-1.05.06-.67.13m-4.2.3c.37.07.97.07 1.35 0 .38-.07.07-.13-.67-.13s-1.05.06-.67.13m243.43.3c0 .15.36.6.82 1l.82.74-.75-.9c-.42-.5-.8-.96-.84-1.03-.04-.06-.07 0-.07.18m-252.3.3c.46.08 1.14.08 1.5 0 .38-.06 0-.12-.82-.1-.83 0-1.13.05-.67.12m9.72 1.13c-.13.34.05.45.7.45 1 0 1.45-.44.73-.72-.77-.3-1.25-.2-1.43.27m-93.78 2.25c-.84.82-1.53 1.63-1.53 1.8 0 .16-.8 1.1-1.8 2.1-1.82 1.84-2.47 2.1-3.95 1.54-.38-.14-2.28-.35-4.22-.47l-3.53-.22v.92c0 .64-.14.92-.46.92-.26 0-.4.14-.28.3.1.17.3.25.43.16.3-.2 1.5.85 1.5 1.3 0 .2.12.34.27.34.14 0 .47.44.73.98s.8 1.5 1.23 2.1c1.3 1.94 1.28 2.14-1 6.84-1.17 2.4-2.12 4.5-2.12 4.7 0 .46 2.03.52 2.7.1.3-.2.52-.16.67.08.17.27.22.27.23-.02 0-.2.2-.37.47-.37.26 0 .4-.14.28-.3-.16-.27.67-.4 2.62-.38.3 0 .44-.13.35-.28-.1-.15-.53-.24-.96-.2-2.17.27.52-5.66 3.45-7.6 3.85-2.54 8.85-4.73 10.85-4.74.58 0 .92-.13.8-.3-.1-.17-.4-.3-.7-.3-1.4 0-1.94-1.38-2.73-6.92-.58-4.04-1-4.3-3.28-2.08m32.59 1.7c.13.36.08.43-.2.25-.27-.16-.34-.13-.2.1.34.55.8.4.8-.25-.02-.33-.15-.6-.3-.6-.17 0-.2.23-.1.5m-8.92 5.22c0 .34.15.54.3.43.18-.1.3-.38.3-.6 0-.25-.12-.45-.3-.45-.15 0-.3.28-.3.62m.08 1.84c.15.45.83.7.83.3 0-.16-.2-.38-.46-.47-.3-.1-.43-.04-.36.18m1.45.4c.15.2.18.44.06.56-.12.12 0 .13.25.04.64-.25.6-1.02-.07-.97-.36.04-.45.16-.25.4m-12.4 3.36c.58.44.63.6.3.96-.32.37-.3.37.16.02.56-.43-.02-1.53-.8-1.5-.2 0-.03.23.34.52m328.26.1c.24.23.5.23.9 0 .47-.28.43-.32-.34-.33-.65 0-.8.08-.56.33m-43.42 1.9c0 .26.17.46.38.46.2 0 .83.4 1.37.9 1.04.95 1.44 1.15 1.06.54-.5-.82-1.18-1.44-1.55-1.44-.2 0-.47-.2-.56-.45-.1-.24-.3-.45-.45-.45-.15 0-.27.2-.27.45m-.88 3.58c-.2.24-.3.95-.24 1.58l.12 1.15.05-1.22c.03-.67.2-1.38.4-1.57.2-.2.3-.38.2-.38-.1 0-.34.2-.53.43m5.38-.1c0 .32 1.75 2.22 1.9 2.07.07-.08-.32-.62-.88-1.2-.56-.57-1.02-.96-1.02-.86M20.1 104.38c0 .15.3.2.68.15.5-.1.88.16 1.43.9.42.58.8 1 .86.94.06-.06-.26-.6-.7-1.17-.76-1-2.25-1.53-2.25-.82m311.92.84c.6.6 1.15 1.02 1.24.93.2-.2-1.67-2-2.07-2.02-.14 0 .23.5.82 1.1m-10.26 1.9c0 .74.06 1.04.13.67.06-.37.06-.98 0-1.35-.08-.37-.14-.07-.14.68m35.48 0c-.1.16.02.3.26.3.25 0 .54-.14.64-.3.1-.17-.02-.3-.26-.3-.25 0-.54.13-.64.3m-327.53.45c0 .24.14.45.3.45.17 0 .3-.2.3-.45s-.13-.45-.3-.45c-.16 0-.3.2-.3.45m325.2-.26c-.42.42-.2.7.56.7.5 0 .73-.13.65-.37-.13-.43-.9-.64-1.2-.33m5.2.67c0 .3.2.72.45.93.4.33.45.26.38-.56-.07-1-.84-1.35-.84-.38m-330.82 1.68c-.14.5-.46 1.07-.72 1.27-.64.52-.04.46.64-.06.37-.3.52-.7.44-1.27l-.12-.85-.24.9m326.46-.45c-.1.16-.47.3-.82.3s-1.05.12-1.56.28c-.5.17-1.73.45-2.72.65-1 .2-3.02.68-4.5 1.08-1.5.4-3.38.86-4.2 1.05-.83.2-1.35.4-1.16.46.2.06 1.46-.16 2.82-.5 2.57-.64 3.9-.77 3.88-.4-.06 4.23-8.65 16.6-11.52 16.6-.13 0-.65.3-1.15.65-1.06.74-9.67 5.15-10.75 5.5-.4.1-1.53.58-2.52 1.03-1 .45-2 .88-2.22.95-.23.08.25.38 1.06.7 2 .72 1.94.65 2.58 3.82.32 1.53.7 3.26.83 3.84.7 2.84 2.1 9.06 2.43 10.77l.38 1.93.78-.9c.42-.48 1.72-2 2.87-3.38 1.16-1.38 2.36-2.75 2.68-3.05.33-.3.8-.87 1.06-1.27.6-.9 2.75-3.45 4.54-5.4l1.37-1.46 2.83.35c8.02 1 16.12 1.68 16.4 1.4.24-.23-.44-1.8-1.08-2.48-.3-.3-.93-1.3-1.43-2.2-.5-.9-1.5-2.56-2.24-3.66-4.83-7.32-5.72-9.1-4.77-9.7.15-.1.3-.4.3-.64 0-.42 1.17-3.13 2.38-5.5.3-.6.64-1.4.75-1.8.12-.42.8-2 1.54-3.53 1.23-2.57 2.2-5.02 2.22-5.55 0-.33-.85-.27-1.06.08m25.7.66c-.4.4-.46 1.13-.08 1.13.15 0 .33-.34.4-.75.17-.87.17-.87-.3-.4m-60 1.9c0 .66.06.9.13.52.06-.37.06-.9 0-1.2-.1-.3-.15.02-.14.68m14.13.57c.8.76 1.6 1.38 1.76 1.38.18 0 .27-.04.2-.1-.07-.04-.87-.66-1.78-1.37l-1.65-1.3 1.46 1.4m23.2-.4c-.57.65-.47 1.66.12 1.3.23-.15.2-.28-.07-.47-.23-.15-.27-.27-.1-.27.16 0 .46-.27.67-.6.5-.8.05-.77-.63.03m-39.44.82c-.22.14-.25.37-.08.65.23.36.3.35.47-.1.24-.63.1-.85-.4-.55m19.28.65c-.76.33.03.33 1.06 0 .6-.2.62-.24.13-.25-.32 0-.87.1-1.2.25m-19.55 1.66c0 .22.15.32.32.2.18-.1.15.04-.07.3-.42.53-.2 1.26.27.97.42-.27.33-1.56-.12-1.73-.22-.1-.4.03-.4.25m70.12.26c0 1.64-4.44 3.23-8.66 3.1-3-.07-3.27-.04-2.88.4.5.54.57 1.35.13 1.62-.17.1-.3.56-.3 1 0 .46-.12.96-.27 1.12-.14.15-.35.87-.46 1.58-.22 1.52-.26 1.52 3.35-.14 2.65-1.23 2.13-1.27 4.45.32 3.43 2.35 3.42 2.35 3.03-1.3l-.3-2.83 1.02-.86c4.12-3.48 4.4-3.84 2.83-3.84-.4 0-.8-.14-.9-.3-.3-.46-1.05-.36-1.05.13m-346.08.4c-.07.12-.1 1.08-.04 2.13.13 2.74-.17 3.13-4.3 5.6-.3.18.4 1.03.86 1.03.3 0 .57.12.57.27 0 .14.3.34.64.43.35.1.56.28.47.42-.07.14.22.28.66.3l.8.08-.75-.4c-3.9-1.98 4.95-4.2 9.76-2.42.6.23.6.22.04-.4-.52-.6-.53-.72-.1-1.64.44-.94 1.1-3.12 1.1-3.62 0-.3-1.77 0-3.55.58-1.16.38-1.4.37-1.95-.03-3.83-2.78-3.9-2.82-4.18-2.35m313.97.7c0 .4-.14.54-.36.4-.23-.15-.3-.06-.17.26.1.28 0 .55-.27.65-.25.1-.36.3-.26.48.26.43.87-.24 1.28-1.43.2-.57.22-.97.05-.97-.15 0-.28.28-.28.62m-1.72 5.2c0 .57.14.97.27.9.27-.17.18-1.48-.12-1.78-.1-.1-.17.3-.15.87M72.9 133.82c-.02.7-.05.7-.28.16-.2-.48-.26-.37-.28.53 0 .63.1 1.13.28 1.13.64 0 .25.56-.6.86-.5.16-.9.44-.9.62 0 .17-.16.28-.36.24-.65-.14-.6.9.1 1.55l.67.64.86-.83c.8-.75 1.08-.82 3.7-.92 1.55-.06 2.82-.23 2.82-.4 0-.15.12-.2.27-.12.48.3.6-.7.12-1.18-.25-.26-.4-.77-.34-1.15.1-.56 0-.7-.7-.74-.6-.06-.86.06-.86.38 0 .58-.42.58-.9 0-.2-.24-.56-.45-.8-.45-.22 0-.4-.14-.4-.3 0-.2-.14-.25-.3-.15-.17.1-.4-.02-.48-.27-.3-.8-1.62-.46-1.64.42m-38.27 10.7c-.78 1.2-1.34 1.6-2.28 1.6-.8.02-1.74.7-1.74 1.24 0 .37.52.35.76-.02.43-.7 2.17-.3 3.83.9 1.88 1.36 1.9 1.36 2.5.75.24-.25.66-.57.93-.72.58-.33.23-.75-1.28-1.58-.5-.27-1.18-1.07-1.53-1.78l-.63-1.28-.57.87"/><path fill="#f3d574" d="M307.48 2.3c-.5.5-.2 1.04.47.83.94-.28 1.03-.42.52-.74-.53-.35-.73-.36-1-.1m-.2 2.05c0 .74.4 1 .74.48.23-.35-.1-1.23-.45-1.23-.15 0-.27.34-.27.75m20.25.15c-.1.17.03.3.28.3.27 0 .48.2.48.45s.14.45.3.45c.4 0 .37-.34-.12-.97-.45-.6-.66-.66-.93-.23m-1.8.6c-.1.17.02.3.27.3.24 0 .53-.13.63-.3.1-.16 0-.3-.26-.3-.25 0-.54.14-.64.3m1.95 1.78c0 .34.14.62.3.62.17 0 .3-.2.3-.43 0-.24-.13-.52-.3-.62-.16-.1-.3.1-.3.43m-20.4 1.35c0 .74.15 1.43.34 1.55.22.14.27.08.13-.14-.13-.2-.07-.54.1-.76.24-.28.25-.65.04-1.2-.44-1.13-.62-.96-.62.55m19.8.92c0 .25.14.45.3.45.17 0 .3-.2.3-.45s-.13-.45-.3-.45c-.16 0-.3.2-.3.45m-18.1.35c-.1.1-.2.6-.2 1.06 0 .5-.2.94-.45 1.03-.68.25-.57 1.53.15 1.75 1 .32.7 1.28-.68 2.15-.7.44-1.87 1.32-2.6 1.95-.72.64-1.42 1.16-1.57 1.16-.14 0-.83.55-1.53 1.2-1.4 1.35-1.37 1.46.78 2.1.7.2 1.48.5 1.77.64.28.14.92.27 1.4.27.5 0 .97.14 1.08.3.1.17.82.3 1.6.3 1.82.03 3.05 1.1 3.05 2.7 0 .3.13.65.3.76.16.1.3.58.3 1.07 0 .48.13.88.3.88.16 0 .3.34.3.74 0 .4.13.82.3.92.16.1.3.4.3.7 0 .27.28.84.6 1.25l.6.76.63-.75c.72-.86 2.35-3.47 3.33-5.32 1.33-2.53-1.83-12.2-4.82-14.72-2.48-2.1-4.5-3.27-4.92-2.86M110.6 11.66c-.08.14-.24.82-.35 1.5-.2 1.25-.24 1.3-3 2.67-2.64 1.3-3.77 2.47-2.4 2.47.23 0 .47.1.53.23.25.57 2.36 1.85 3.35 2.04.8.15 1.1.35 1.1.77 0 .3.12.57.26.57s.3.9.38 1.96c.22 3.45 1.85 3.54 3.8.22 1.17-2 1.16-4.48-.03-8.1-.8-2.5-3.1-5.2-3.64-4.32m203.93 8.96c2.8 5.46 3.34 6.77 3.07 7.2-.18.3-.77 1.35-1.3 2.34-1.66 3.02-1.62 3.04-3.04-1.32-1.1-3.46-2-5.43-2.47-5.56-.2-.05-1.12-.26-2.02-.45-4.5-.96-6.62-1.52-7-1.83-.23-.2 4.64-4.06 6.77-5.36 1.1-.67 1.13-.72 1.13-2.53v-1.84l.72 1.35c.4.75 2.26 4.35 4.13 8.02m11.35-6.37c0 .25.14.45.3.45.17 0 .3-.2.3-.45 0-.24-.13-.45-.3-.45-.16 0-.3.2-.3.45m-18.9.15c-.37.24-.32.3.22.3.37 0 .68-.13.68-.3 0-.37-.32-.37-.9 0m-194.62 4.56l1.35 4.27-.66 1.2c-1.14 2.07-2.3.62-2.3-2.9 0-1.18-1-2.03-2.4-2.03-.57 0-1.76-.5-2.1-.92-.1-.1-.4-.26-.7-.36-1.05-.4-.44-1 2.27-2.23 1.53-.7 2.87-1.28 3-1.28.1 0 .8 1.9 1.56 4.24m191.22-2.26c-.24.24.04.7.4.7.17 0 .3-.2.3-.45 0-.46-.36-.6-.7-.25m-43.7 1.96c0 .36.15 1.1.35 1.65.34.95.3 1.04-.6 1.8-1.1.9-1.23 1.48-.37 1.76.34.1.6.3.6.47 0 .15.27.28.6.28.34 0 .6.14.6.3 0 .17.22.3.5.3.3 0 .4-.16.3-.45-.1-.28.36-.98 1.3-1.9 1.54-1.54 2-2.55 1.65-3.65-.14-.48-.28-.57-.52-.32-.42.4-1.7.43-1.7.03 0-.16-.5-.3-1.06-.3-.58 0-1.06-.13-1.06-.3 0-.16-.13-.3-.3-.3-.16 0-.3.3-.3.66m3.2 1.28c.7.72-1.43 3.77-2.65 3.77-.7 0-.68-.37.06-1.04.65-.6.86-2.66.3-3-.17-.1-.23-.3-.15-.45.23-.34 1.85.15 2.45.74m36.34.65c-.4.4-.24 1.6.23 1.6s.54-.4.2-1.3c-.13-.28-.32-.43-.44-.3m1.58 1.9c0 .17.2.3.44.3.25 0 .45-.13.45-.3 0-.16-.2-.3-.44-.3-.25 0-.45.14-.45.3M27.9 24c0 .5.14.9.3.9.17 0 .3-.32.3-.73 0-.4-.13-.8-.3-.9-.17-.12-.3.18-.3.72M373 25.5c0 .34.13.6.3.6.16 0 .3-.26.3-.6 0-.32-.14-.6-.3-.6-.17 0-.3.28-.3.6m-330.84-.07c-.33.08-1.14.5-1.8.95-.66.44-1.56.96-2 1.14-1.3.57-2.94 5.57-3 9.24-.02 2.12.83 5.18 1.7 6.12.44.45 1.95-.84 1.95-1.66 0-.23.15-.4.3-.4.18 0 .3-.2.3-.46 0-.25.1-.45.23-.45 8.28-.18 8.94-.63 5.78-3.95-3.44-3.62-3.13-2.92-2.55-5.9.3-1.42.63-2.9.78-3.27.5-1.3-.05-1.76-1.67-1.35m286.77.1c.53.3 1.6.24 1.94-.12.12-.1-.38-.2-1.1-.18-1.02 0-1.22.08-.84.3m-286.2 3.06c-1.13 4.36-1.16 4.24 1.5 6.94 3.1 3.15 3.06 3.26-1.5 3.64-2.24.2-3.82.46-4.13.7-.6.5-.58.83-.2-4.47.57-7.57.4-7 2.36-8.38 2.65-1.88 2.8-1.75 1.96 1.56M372.4 27.3c0 .34.13.6.3.6.16 0 .3-.26.3-.6 0-.32-.14-.6-.3-.6-.17 0-.3.28-.3.6M75.16 28.47c-2.82 1.04-5.85 2.86-5.85 3.5 0 .23.64.63 1.42.92 3.56 1.3 3.12.73 4.38 5.7.62 2.47 1.35 4.8 1.6 5.22l.5.73.47-.72c.25-.38.76-1 1.12-1.36.36-.36 1.47-1.78 2.47-3.17 1-1.38 1.95-2.7 2.13-2.9.32-.37 4.68-.32 8.74.1.97.1 1.44.04 1.53-.23.14-.4-.36-1.73-.66-1.73-.1 0-.44-.43-.76-.97-.3-.53-1.28-1.8-2.16-2.8l-1.6-1.83-3.52-.34c-7.17-.7-8.22-.7-9.83-.1m301.72.35c.3.6.9.83.9.37 0-.32-.66-.96-.98-.96-.13 0-.1.28.07.6m.9 1.23c0 .48.9 1.28 1.13 1.02.12-.12.05-.3-.16-.36-.2-.08-.38-.33-.38-.57 0-.23-.14-.42-.3-.42-.17 0-.3.15-.3.33m-92.56 1.95c-.26.26-.47.7-.47 1 0 .73-1.17 1.15-3.64 1.32-2.6.18-3.48.88-2.42 1.93.4.37.82.68.96.68.15 0 .5.33.82.7.3.4.85.88 1.22 1.07.7.37 1 2.14.37 2.14-.17 0-.3.6-.3 1.3 0 .7-.15 1.44-.33 1.62-.25.25-.17.42.28.67.64.33 2.75-.4 2.75-.95 0-.13.14-.24.3-.24 2 0 3.5-7.3 2.1-10.27-.72-1.55-.92-1.66-1.63-.95m101.13-.2c-.1.15.23.4.72.58.8.3 1.55 0 1.1-.43-.28-.3-1.67-.4-1.83-.15m-295.7.85c.92.7 2.35 2.68 2.35 3.2 0 .28-5.08.2-7.17-.1-2.22-.33-2.7-.16-3.55 1.25-.33.54-1.62 2.32-2.88 3.95l-2.3 2.97-.46-1.12c-.43-1.03-1.6-5.93-2.07-8.63-.26-1.44-1.37-1.26 14.4-2.3.34-.02 1.1.33 1.7.78m-62.92.25c-.32.23-.5.5-.4.6.1.12.42-.02.7-.3.27-.27.45-.55.4-.6-.07-.07-.38.07-.7.3m116.34.42c-1.25.56-1.8 1.1-1.45 1.44.1.1.46.03.78-.17s.77-.36 1-.36c.24 0 .5-.16.57-.37.1-.25.24-.27.45-.07.4.38.96 4.7.68 5.1-.13.16-.2 1.92-.16 3.9.2 11.84.6 13.95 2.55 13.95.26 0 .63.17.82.37.2.2.45.27.56.16.1-.1-.35-.7-1.02-1.33l-1.2-1.14-.16-3.15c-.1-1.72-.22-6.02-.3-9.55-.1-4.04-.27-6.53-.48-6.73-.18-.18-.32-.68-.32-1.1 0-1.22-.88-1.56-2.32-.92m243.32.35c-.2.34-.32.68-.24.76.08.1.3-.13.5-.5.45-.84.24-1.05-.26-.25m-102.53 4.7c-.2 4.1-.52 5.02-1.8 5.34-1.08.26-1.1.14-.62-2.46l.44-2.34-1.84-1.9c-2.2-2.3-2.1-2.48 1.54-2.5h2.5l-.2 3.84m52.22-2.24c-.27.57-.7 1.28-1 1.6-.28.3-.83 1.17-1.23 1.9-.4.75-1.36 2.32-2.15 3.5l-1.43 2.12-1.86.2c-1.03.1-3.1.2-4.6.2-2.54 0-4.8.3-5.2.7-.14.15 2.67 3.4 5.83 6.8 2 2.15 15.45 1.1 19-1.5 4.58-3.38 4.65-3.6 1.24-4.36-3.26-.7-3.38-.82-4.52-4.33-.55-1.7-1.07-3-1.16-2.9-.08.1 0 .54.17 1 .17.45.68 2 1.1 3.46.73 2.34.88 2.6 1.53 2.6 1.83 0 .38.56-3.1 1.2-16.82 3.03-15.4 3.02-18.04.02-1.98-2.27-2.38-2.04 4.1-2.37 3.2-.17 5.66-.42 5.9-.62.34-.3 3.4-5.14 5.4-8.6.8-1.35.84-1.33 1.8.94.47 1.08.9 1.9.95 1.85.2-.2-1.56-4.22-1.9-4.33-.2-.08-.56.34-.83.9m32.1 1.57c-.82.23-1.6.42-1.72.43-.8.04 1.35 2.7 2.18 2.7.37 0 .37 0 .3 4.44l-.06 3.67h.78c.42 0 .77-.12.77-.3 0-.15.18-.3.4-.3.22 0 .83-.4 1.35-.9.5-.48 1.05-.9 1.18-.9.14 0 .56-.28.94-.64.75-.7 3.15-.84 3.75-.24.16.16.6.3.97.3.36 0 .74.13.84.3.1.16.45.3.77.3.33 0 .6.13.6.3 0 .16.47.3 1.05.3 1.25 0 1.24.07.27-2.56-.43-1.16-.86-2.37-.95-2.7-.78-2.88-8.96-5.43-13.43-4.2M24.9 39.32c0 .18.28.3.6.3.34 0 .6-.13.6-.3 0-.15-.26-.3-.6-.3-.32 0-.6.15-.6.3m111.33.3c0 .17-.1.3-.22.26-.47-.12-1.76.78-2.75 1.92l-1.04 1.2 1.64-.97c1.92-1.13 3.4-2.7 2.54-2.7-.08 0-.15.15-.15.3m239.32 1.04c6.54 1.32 6.4 1.24 7.47 3.65 1.04 2.3.83 2.7-1.02 1.86-.75-.34-1.63-.7-1.95-.84-.34-.13-.98-.4-1.44-.57-1.43-.58-2.3-.4-3.77.8-1.65 1.32-2.93 2.23-3.9 2.74l-.7.37.23-3.4c.3-4.34.3-4.4-.44-5.04-.53-.46-.58-1.1-.06-.8.1.07 2.62.6 5.6 1.2m-256.43 3.12c0 .48 1.85 1.3 3.82 1.7 1.12.23 2.33.5 2.7.63.43.12.68.08.68-.13 0-.2-.34-.34-.75-.34-.4 0-.75-.12-.75-.3 0-.15-.54-.52-1.2-.8-.66-.3-1.2-.64-1.2-.77s-.3-.08-.66.1c-.5.28-.7.28-.77.02-.13-.38-1.87-.48-1.87-.1m209.3.08c-.5.2-.42.24.38.26 1.02 0 1.25-.12.6-.37-.2-.07-.64-.03-.97.1m-10.8.58c-.1.2.2.3.75.3s.86-.1.75-.3c-.1-.15-.44-.3-.75-.3-.3 0-.65.15-.75.3m-1.05.74c0 .24.13.52.3.62.16.1.3-.1.3-.43 0-.34-.14-.62-.3-.62-.17 0-.3.2-.3.44m-203.82 8.14c-.1.1.14 1.1.56 2.2 1.12 2.9 2.5 7 2.5 7.38 0 .35-.97 1.86-2.93 4.53-.62.83-1.82 2.52-2.68 3.74-6.33 9.03-6.2 8.57-2.1 8.27 1.5-.1 4.85-.32 7.4-.48 2.57-.16 5.62-.37 6.8-.48l2.14-.2 1.4 1.77c2.94 3.76 8.18 10.55 9.28 12.05 1.86 2.55 1.75 2.7 3.9-5.63.58-2.23 1.28-5.07 1.57-6.33l.52-2.28-1.3-2.23c-8.84-15.15-15.13-20.62-25.65-22.32-.67-.1-1.3-.1-1.4 0m38.06 4.78c.1.25.4.45.68.45.3.02.67.16.85.35.2.18.5.27.7.2.22-.06-.18-.42-.87-.78-1.5-.78-1.58-.8-1.35-.2m116.74.65c-.85.84 0 1.18 1 .4l.75-.6h-.78c-.42 0-.86.08-.97.2m-113.78.4c.43.82 1.44 1.8 1.86 1.8.23 0 .34.12.25.27-.23.38 2.56 1.87 3.12 1.66.34-.13.2-.3-.5-.65-.54-.25-.98-.57-.98-.7 0-.15-.6-.52-1.3-.83-.72-.32-1.62-.9-2-1.3-.38-.38-.58-.5-.45-.25m112.67 1.3c-.4.86-.6.95-2 1.03-2.24.13-2.5.63-1 1.98 1.16 1.05 1.2 1.14 1.2 3.04v1.95h1.02c.56 0 1.06-.14 1.12-.32.06-.17.4-.33.78-.36.45-.03.63-.2.52-.48-.1-.23-.02-1.23.16-2.22.4-2.18.17-3.7-.7-4.78l-.66-.8-.45.95M139.1 83.85c-.28.86-1.35 5.36-1.77 7.36-.45 2.12-.7 2.13-2.2.08-.7-.94-1.6-2.1-2.02-2.6-.98-1.2-3.1-4-5.1-6.76-.9-1.24-2.03-2.64-2.52-3.1l-.9-.87-5.36.33c-5.78.36-12.85.74-13.2.7-.6-.05-.25-.78 1.56-3.4 4.44-6.37 5.85-8.3 7.77-10.6 1.18-1.4 1.65-4.02.77-4.32-.16-.05-.3-.3-.3-.57 0-.27 5.3 4.83 11.74 11.3 9.82 9.9 11.7 11.9 11.53 12.44m-90-22.55c-.1.36-.23 1.58-.33 2.7-.23 2.6-.3 2.78-1.6 3.4-2.37 1.1-3.9 1.87-5.76 2.93-1.06.6-2.24 1.26-2.62 1.45-1.02.5-.83 1.28.45 1.82 6.7 2.8 9.3 4.07 9.53 4.68.1.27.45 2.04.78 3.94 1.32 7.84 1.32 7.84 3.58 5.34 2.43-2.7 4.8-5.68 4.8-6.06.02-8.07-2.25-15.3-5.85-18.74-2.45-2.33-2.78-2.5-2.98-1.47m223.07.68c0 .24.2.44.45.44s.45-.13.45-.27c0-.15-.2-.35-.45-.44-.28-.1-.45 0-.45.27m-4.8 1.63c0 1.58-.42 3.02-.98 3.37-.6.37-.83-.05-.83-1.57 0-.83-.14-1.48-.32-1.48-.17 0-.6-.27-.94-.6l-.6-.57.7-.16c.4-.1 1.12-.22 1.62-.28.5-.06 1-.13 1.12-.16.13-.02.23.62.23 1.44m-108.33-.33c0 .38 2.14 1.98 3.26 2.44.67.28 1.16.76 1.43 1.42.57 1.36 1.46 1.38 1.2.02-.2-.95-1.36-2.32-1.98-2.32-.17 0-.3-.15-.3-.34 0-.2-.27-.27-.6-.18-.34.1-.54.05-.46-.1.08-.13-.28-.45-.8-.7-1.05-.53-1.76-.62-1.76-.23m111.8 2.32c-.25.66-.23.72.28.72.25 0 .45-.2.45-.44 0-.63-.5-.84-.72-.3m63.5-.27c-.2.1-.37.36-.37.6 0 .33.14.37.56.14.57-.3 1.18-.27 2.3.15.5.18.5.12-.13-.44-.67-.6-1.52-.78-2.34-.45M54.06 79.95l1.2 3.87-1.07 1.54c-1.57 2.24-2.5 3.35-2.7 3.17-.26-.25-1.1-3.56-1.4-5.53-.17-1-.4-2.5-.54-3.37-.22-1.43-1-2.78-1.6-2.78-.12 0-.95-.33-1.83-.73-.88-.42-2.2-1-2.94-1.3-3.15-1.35-4.5-2.02-4.5-2.24 0-.53 5.25-3.36 8.47-4.58.78-.3 1.66-.8 1.95-1.13.58-.64 1.26 1.17 4.94 13.1M271.6 67.28c-.02.28-.13.5-.26.48-.12-.02-.53-.02-.9 0-.9.05-.87.64.04.64.8 0 1.52-.7 1.3-1.27-.1-.24-.17-.2-.2.14m56.4.8c0 .15.27.26.6.23.33-.02.6-.15.6-.28 0-.13-.27-.23-.6-.23-.33 0-.6.12-.6.28m-1.5.62c0 .16-.17.3-.4.3-.54 0-2 .7-2 .97 0 .12.28.22.62.22.34 0 .53-.14.43-.3-.1-.17.1-.3.42-.3.33 0 .68-.14.78-.3.1-.17.45-.3.77-.3s.58-.14.58-.3c0-.17-.27-.3-.6-.3-.33 0-.6.13-.6.3m-167.74 2.4c0 .16.2.3.43.3.24 0 .52-.14.62-.3.1-.17-.1-.3-.44-.3-.34 0-.62.13-.62.3m213.97 2.4c-.87 1.7-1.43 2.43-1.9 2.52-.36.07-2.28.3-4.26.53-1.98.22-3.22.44-2.76.5.46.05 1.77-.05 2.9-.23 1.14-.18 2.83-.32 3.75-.32 1.3 0 1.66-.1 1.66-.47 0-.26.1-.4.26-.3.15.1.23.67.16 1.3-.06.6-.26 4.1-.44 7.72-.42 8.28-.47 8.4-4.87 10.02-.2.06-.23-.37-.12-1.2.1-.73.25-1.87.34-2.53.18-1.35-.46.9-.85 2.97-.34 1.82 1.66 1.25 6.46-1.84l1.68-1.1.96-3.9c1.96-8.07 1.9-9.47-.63-14.52-.9-1.83-.93-1.82-2.32.84m-228.96 3c-.17.3-.4 1.22-.5 2-.1.8-.4 2.13-.67 2.95-.56 1.68-.64 2.92-.18 3.15.15.08.3-.28.33-.8.03-.54.33-1.73.68-2.65.35-.92.64-2.07.64-2.56 0-.48.13-.88.3-.88.16 0 .3-.4.3-.9 0-1.03-.43-1.18-.9-.3m-72.32 1.02c0 .23.2.5.45.6.38.13.4.06.14-.43-.36-.68-.58-.75-.58-.16m289.94-.22c-.74.3-.32.86 3.2 4.3 2.67 2.62 3.6 3.74 3.7 4.38l.1.87.17-.83c.16-.75-.18-1.18-3.52-4.5-3.64-3.6-3.85-3.92-2.66-4.2l.6-.15-.6-.02c-.33 0-.77.05-.97.14m-287.48 3.4c.2.34.46.6.58.6.36 0-.08-.84-.53-1.02-.35-.13-.36-.05-.06.43m293.84 7.5c-.1.5-.14 1-.06 1.08.1.1.25-.26.36-.78.12-.52.14-1 .06-1.1-.08-.07-.24.28-.36.8M49.3 90.5c-.1.25 0 .62.17.8.26.26.34.14.34-.47 0-.9-.2-1.05-.5-.34m-20.94 2.63c-1.84.67-5.66 2.66-7.77 4.06-2.82 1.84-5.62 7.87-3.54 7.58.38-.06.93.1 1.2.36.67.6 1.84.3 1.84-.45 0-1.02 1.33-.7 2.27.52 1.35 1.78 5.65 5.83 6.1 5.74.67-.14 1.22-2.3 1.6-6.3l.34-3.8 1.38-.7c.76-.37 1.42-.8 1.48-.9.05-.13.35-.23.66-.23.68 0 3.84-1.82 4.58-2.64.58-.65.32-.93-1.6-1.77-.4-.18-1.63-.75-2.7-1.27-2.3-1.1-3.35-1.13-5.84-.23M36 94.86c2.68 1.02 2.6 1.17-1.64 3.27-4.45 2.2-4.95 2.72-4.95 5.07 0 2.16-.55 6.7-.86 7-.2.2-2.03-1.55-6.36-6.1-.68-.72-.93-.8-2.25-.67l-1.48.14.75-.64c.42-.35 2.04-1.5 3.6-2.54 4.04-2.7 7.17-4.9 8.24-5.76 1.1-.9 2.1-.84 4.95.22m286.46 6.22c-.22.36-1.16 14.47-.98 14.65.18.17.36-1.84.83-8.98.4-5.88.45-5.98 2.13-4.34.55.55 2.76 2.63 4.9 4.62 2.15 2 4.8 4.52 5.9 5.6 2.03 2.03 2.7 2.32 3.9 1.7.32-.2.88-.28 1.25-.2.64.1.64.1.06.36-.33.14-.67.34-.75.45-.1.1-.93.75-1.86 1.43-1.8 1.32-7.37 5.7-9.46 7.43-.7.56-1.32 1.03-1.4 1.03-.15 0-6.06 4.35-7.55 5.57-5.08 4.13-5.06 4.12-8.55 2.6-.58-.26-2.1-.84-3.4-1.28-2.88-1-3.17-1.25-2.1-1.8.47-.24 2.53-1.44 4.6-2.66 4.5-2.67 5.4-3.18 7.35-4.22.82-.44 2.07-1.18 2.78-1.65l1.28-.85-.06-2.28-.06-2.3-.1 2.15-.1 2.15-1.27.83c-.7.46-1.95 1.2-2.77 1.65-2.6 1.4-7.48 4.25-7.95 4.64-.25.2-1.4.87-2.55 1.5-3.25 1.73-3.3 1.58 1.35 3.43 1.73.7 3.7 1.5 4.35 1.8 1.35.62 6.9 2.7 7.16 2.7.1 0 1-.38 2.05-.86 1.03-.47 2.2-.96 2.6-1.08 1.08-.35 9.7-4.76 10.76-5.5.5-.37 1.03-.67 1.16-.67 2.9 0 11.47-12.37 11.52-16.62 0-.34-1.86-.07-5.8.86-4.9 1.15-3.83 1.6-10.2-4.48-6.35-6.07-8.67-7.97-9.02-7.4m-307.53 4.75c-.72.2-.66.7.07.7.34 0 .6-.2.6-.45s-.03-.44-.07-.42c-.04.02-.3.1-.6.17m-4.43 1c0 .16.34.3.75.3.4 0 .75-.14.75-.3 0-.17-.34-.3-.75-.3-.4 0-.75.13-.75.3m372.02 2.4c-.45.5-.82 1.1-.82 1.35s-.14.45-.3.45c-.17 0-.3.27-.3.6 0 .33-.14.6-.3.6-.17 0-.3.25-.3.57 0 .8-.56.93-3.78.93-2.13 0-2.83.1-2.83.4 0 .53 1.25 2.18 2.57 3.4l1.1 1h3.23c3.58 0 4.93-.34 7.05-1.8 1.5-1.03 1.76-1.8.6-1.8-.4 0-.8-.14-.9-.3-.1-.17-.44-.3-.74-.3-.56 0-1.12-1.1-1.8-3.6-.22-.75-.44-1.2-.5-1-.08.2.14 1.2.48 2.22.34 1.03.62 2.05.62 2.25 0 .2.16.44.37.5.8.3-.17.58-4.44 1.3-4.9.8-5.06.8-6.3-.47-1.1-1.17-.97-1.26 2.42-1.43l2.87-.15.9-1.84c1.15-2.34 1.94-3.3 2.55-3.05.3.1.43.04.35-.2-.23-.7-.97-.53-1.8.38M29.14 112.2c-.22.14-.32.4-.2.6.23.38 1.37-.1 1.37-.58 0-.36-.6-.37-1.16-.02m325.73 8.1c-1.36 2.58-2.5 6.03-1.98 6.03.15 0 .3-.13.3-.3 0-.16.47-.97 1.07-1.8.75-1.04 1.08-1.83 1.08-2.55 0-.58.12-.97.27-.88.15.1.27-.17.27-.58 0-1.16-.4-1.14-1.03.07M43.57 123c-2.83.98-3.2 2.1-.96 2.84 1.1.36 1.73 1.65 1.8 3.58.02 1.22 1.45 2.6 1.96 1.92.2-.27.45-.4.56-.3.1.1.2-.03.2-.3 0-.28.14-.5.3-.5.18 0 .25-.13.16-.28-.1-.14.04-.34.28-.44.25-.1.68-.65.96-1.23.48-1.02 1.9-1.58 1.9-.77 0 .8 3.52.33 3.73-.48.8-3.23-5.97-5.75-10.9-4.05m9.37 2.27c1.5 1.38 1.1 1.76-1.6 1.6-2.76-.16-2.5-.3-4.15 1.94-1.85 2.5-2.76 1.75-2.76-2.28v-1.34l1.9-.18c1.02-.1 2.27-.22 2.76-.27 2.42-.3 3.07-.2 3.86.54m301.77 7.36c0 .17.1.3.23.3s.25.3.28.65c.04.36.18.73.32.83.15.1.46.62.7 1.16.22.53.52.97.64.97.13 0 .23.15.23.32s.26.6.6.95c.32.36.6.9.6 1.2 0 .3.1.53.24.53.6 0 .57-.44-.12-1.52-.4-.63-.73-1.27-.73-1.4 0-.53-1-2.2-1.37-2.36-.2-.08-.55-.55-.75-1.03-.35-.83-.9-1.2-.9-.57M78.57 134.2c.2.2.36.66.36 1.04s.14.7.3.7c.17 0 .3-.42.3-.92 0-.54-.13-.84-.3-.74-.16.1-.3.05-.3-.13 0-.17-.16-.32-.36-.32-.28 0-.28.08 0 .36m-1.97.3c.17.55.82.64.82.1 0-.25-.2-.47-.48-.47-.26 0-.42.16-.35.36m235.63 2.33c.1.17.45.3.77.3s.58.14.58.3c0 .17.27.3.6.3.33 0 .6.14.6.3 0 .17.26.3.57.3.32 0 .62.1.68.25.17.4 4.08 1.93 4.42 1.72.57-.35.36-.68-.64-1.05-.53-.2-1.2-.5-1.5-.64-.28-.14-.7-.26-.94-.26-.37 0-1.32-.42-3.55-1.54-.7-.36-1.8-.34-1.57.03m-233.3.52c0 .2-1.1.37-2.84.43-2.63.1-2.9.17-3.7.94l-.88.83-.77-.76c-.6-.6-.8-.7-.93-.34-.2.53.13.8 2.1 1.7 1.52.7 1.57.75 1.66 2.04.1 1.33 1.03 2.48 1.34 1.64.38-1.03 1.95-2.2 2.96-2.2 1.02 0 2.18-.47 2.6-1.04.1-.15-.12-.83-.52-1.5s-.7-1.33-.7-1.47c0-.13-.07-.32-.17-.42-.1-.1-.18-.02-.18.16m-.46 1.98c.77.56.35 1.06-1.08 1.3-.88.13-1.3.38-1.54.9-.78 1.72-2.3-.36-1.6-2.2.2-.55 3.46-.56 4.22 0m280.43.8c0 .16.2.3.44.3.25 0 .45-.14.45-.3 0-.17-.2-.3-.46-.3-.25 0-.45.13-.45.3m.9.85c0 .53.8 1.32 1 .98.13-.2.07-.34-.1-.34-.2 0-.27-.13-.18-.27.1-.15-.03-.35-.28-.44-.25-.1-.45-.07-.45.06m1.2 2.08c0 .13.33.94.74 1.8.4.85.75 1.7.75 1.87 0 .36-4.78.35-5.26 0-.17-.13-1.18-.32-2.25-.42-1.08-.1-3.04-.32-4.36-.5-1.32-.16-4.12-.4-6.23-.5l-3.8-.18-.9 1.02c-.5.56-1 1.27-1.1 1.58-.1.3-.6 1-1.12 1.52-.52.53-1.82 1.96-2.9 3.17-1.07 1.2-2.76 3.1-3.76 4.18-1 1.08-2.2 2.48-2.64 3.1-.57.76-1.06 1.12-1.56 1.12-.54 0-.74.16-.74.6 0 .92 1.2.75 2.33-.32.55-.5.92-1.05.82-1.2-.1-.15.1-.28.4-.28.64 0 1.2-.9.58-.92-.2 0-.1-.13.25-.27.33-.13 1.2-1.04 1.95-2 .73-.97 1.57-2.02 1.86-2.34.3-.3.52-.7.52-.84s.14-.17.3-.07c.17.1.3.02.3-.16s.36-.66.8-1.07c.44-.4.67-.73.52-.73-.14 0 .2-.44.8-.98.58-.53 1.1-1.1 1.15-1.27.16-.54.62-1.22.63-.95 0 .14.53-.3 1.17-1 .64-.7 1.2-1.14 1.27-.97.07.2 1.38.36 3.2.4 1.68.06 3.07.22 3.07.36 0 .14.53.2 1.2.1.66-.06 1.27 0 1.36.14.1.15.28.2.4.12.15-.1 1.4-.02 2.77.14 7.04.8 9.4.7 9.54-.38 0-.12.03-.26.04-.3.2-.62.18-1.12-.04-1.12-.15 0-.27-.18-.27-.4 0-.2-.3-.72-.68-1.12-.38-.4-.65-.83-.6-.95.04-.13-.06-.23-.23-.23-.18 0-.3.1-.3.24m-329.63 4.24c-.1.16-.02.56.18.88.3.47.3.7-.06 1.1-.5.6-.7 3.44-.24 3.44.17 0 .7-.28 1.2-.63.93-.66 1.96-.6 2.73.16.88.9 1.4.68 2.33-.96 1.06-1.93 1.06-1.86.1-1.86-.42 0-1.52-.54-2.44-1.2-1.66-1.18-3.4-1.6-3.84-.92m3.26 1.86c1.38.67 2.4 2.06 1.53 2.06-.25 0-.7-.17-1.03-.37-.44-.27-.9-.28-1.8-.04-1.45.4-1.88-.25-1.04-1.53.6-.93.67-.93 2.34-.12m288.87 6.33c0 .87.57 1.3.58.46 0-.45-.13-.82-.3-.82-.16 0-.3.17-.3.37"/><path fill="#d06910" d="M110.23 5.78c-.8 1.1-1.1 2.04-.76 2.4.28.26.36.22.36-.17 0-.97 1-.48 3.48 1.73 2.44 2.18 2.53 2.23 3.5 1.92.54-.18 1.5-.4 2.1-.47.62-.08 1.13-.26 1.13-.4 0-.16.47-.28 1.05-.28 1.45 0 1.17 1.93-.75 5.2-.77 1.3-.66 1.8.94 4.16.65.96 1.17 2.1 1.17 2.55.02 1.65 1.48 2.74 2.1 1.58.37-.7.16-2.07-.32-2.07-.16 0-.3-.2-.3-.45 0-.24-.12-.45-.3-.45-.15 0-.3-.27-.3-.6 0-.32-.12-.6-.3-.6-.15 0-.3-.27-.3-.6 0-.32-.12-.6-.3-.6-.15 0-.3-.27-.3-.6 0-.33-.13-.6-.3-.6-.5 0-.32-1.2.3-1.86.34-.36.6-.9.6-1.17 0-.3.15-.6.3-.72.18-.1.3-.5.3-.92 0-.4.15-.73.32-.73.18 0 .28-.52.25-1.18-.05-.65-.18-1.12-.3-1.05-.12.08-.27 0-.33-.2-.15-.45-3.44-.03-3.98.52-1.1 1.08-2.63.53-5.14-1.84-1.3-1.24-2.48-2.25-2.6-2.26-.13 0-.23-.13-.23-.3 0-.42-.78-.37-1.1.08m-1 4.12c0 .33.13.6.3.6.16 0 .3-.27.3-.6 0-.33-.14-.6-.3-.6-.17 0-.3.27-.3.6m-37.9 2c-.12.1-.2.84-.2 1.63 0 .85-.16 1.5-.4 1.6-.3.14-.3.2 0 .35.46.2.52 2.52.1 2.52-.45 0-.4 2.63.06 2.8.3.13.3.16 0 .18-.24.02-.38.47-.4 1.15 0 1.32-.15 1.58-1.26 2.15-.45.24-1.32.9-1.92 1.5-.6.6-1 .87-.88.63s0-.17-.26.16c-.27.33-.52.57-.55.53-.16-.18-1.4.3-1.4.54 0 .15-.2.27-.45.27-.23 0-.6.24-.82.53-.22.3-.77.72-1.23.96-2 1.02-.33 3.3 2.4 3.3.63 0 1.8.5 2.2.93.16.2 3.64 1.4 4.94 1.73.85.2.9.3 1 1.94.04.94.2 1.7.36 1.7.16 0 .3.4.3.9s.12.9.3.9c.15 0 .3.65.3 1.44.02 3 1.86 5.4 3.46 4.56.77-.4 1.3-1.36.6-1.1-.63.25-1.08-.87-2.57-6.34l-1.36-5-1.8-.55c-1-.3-2.55-.88-3.45-1.3-.9-.4-2.3-.9-3.08-1.1-2.3-.54-1.5-1.8 2.7-4.1.7-.4 1.28-.8 1.28-.9 0-.13.4-.4.9-.6.5-.2.9-.48.9-.63 0-.15.2-.26.43-.26.78 0 .92-.7 1.1-5.7.1-2.72.25-5.27.3-5.66.08-.47-.08-.82-.48-1.05-.33-.2-.68-.45-.77-.58-.1-.12-.27-.13-.38-.02m37.47.5c-.14.3-.16.6-.06.72.3.3.55-.13.4-.72-.1-.52-.13-.52-.35 0m-33.62.78c-.1.18-.04.32.16.32s.6.3.92.65c.3.36.63.58.7.5.1-.08-.24-.5-.7-.97-.56-.52-.95-.7-1.08-.5m32.7.62c-.1.17-.46.3-.8.3-.32 0-1.16.4-1.85.86-.7.47-1.63.94-2.08 1.05-.98.25-1.28 2.3-.34 2.3.4 0 .42-.08.15-.42-.3-.34-.08-.5 1.16-.92.84-.28 1.6-.64 1.7-.8.1-.18 1.06-.7 2.1-1.17 1.07-.48 1.93-1 1.93-1.18 0-.4-1.7-.42-1.95-.02m-16.96 1.84c0 .15-.28.26-.6.26-.42 0-.56.13-.42.38.16.27.12.3-.15.05-.36-.34-1.87-.05-4.23.8-1.03.4-1.03.4-.3.6.7.2.67.22-.24.25-.7.02-.94-.08-.78-.35.17-.3.13-.3-.2 0-.22.2-.85.38-1.4.38-.88 0-1 .1-.83.6.1.35.05.6-.13.6s-.32.14-.32.3c0 .4.76.4 1.58-.04 1.5-.78 1.76-.86 2.92-.86.66 0 1.2-.13 1.2-.3 0-.16.4-.3.88-.3.5 0 .97-.13 1.07-.3.1-.16.86-.3 1.68-.3 1.45 0 1.48 0 1.3-.78-.14-.5-.07-.87.16-1 .25-.15.1-.24-.4-.24-.42 0-.78.12-.78.26m175.45 1.96c-.12.12.02.55.3.96.34.53.38.8.14.88-.6.2-.4 1.98.3 2.4.77.5 1.2.16.5-.37-.56-.4-.74-1.96-.23-1.96.42 0 .37-1.3-.06-1.74-.4-.4-.64-.45-.93-.16m-4.1.67c0 .14.26.33.57.42.4.1.53 0 .42-.28-.17-.45-1-.58-1-.15M115.2 24.23c-.4.8-.88 1.53-1.1 1.67-.2.13-.37.4-.37.57 0 .2.34.02.75-.36.4-.38.75-.82.75-.98 0-.15.4-.65.9-1.1.48-.46.8-.92.7-1.02-.47-.47-.96-.1-1.63 1.23m-70.8-.42c.42.23.83.35.9.3.2-.18-.67-.7-1.2-.7-.24.02-.1.2.3.4m222.37.5c0 .17.33.3.75.3.4 0 .75-.13.75-.3 0-.16-.34-.3-.75-.3-.42 0-.75.14-.75.3m-1.7.68c-1.14 1.76-1.28 2.64-.4 2.4.36-.08.6-.4.6-.8 0-.35.26-.83.6-1.07.43-.3.5-.48.2-.65-.5-.33-.73-.3-1 .13M90 27.32c0 .26.2.73.44 1.05.58.76.58.43 0-.65-.23-.48-.43-.65-.44-.4m21.8.47c-.13.3-.42.42-.8.32-.32-.1-.6-.03-.6.14 0 .34 1.5.24 2.03-.15.2-.14.3-.38.2-.53-.25-.4-.64-.3-.84.22m175.67.1c0 1.6 2.4 5.7 3.32 5.7.48 0 1.14.17 1.46.37.32.2.68.27.8.15.3-.3-.8-1.1-1.48-1.1-.78-.02-1.4-.74-1.4-1.64 0-.43-.14-.77-.3-.77-.17 0-.3-.33-.3-.74 0-.4-.14-.75-.3-.75-.17 0-.3-.2-.3-.46 0-.54-.7-1.33-1.2-1.33-.16 0-.3.27-.3.6m-7.36 5.4c-.1.17-.58.3-1.07.3-.48 0-.88.14-.88.3 0 .18.8.3 1.78.3s1.87-.13 1.97-.3c.1-.16.65-.3 1.22-.3s1.03-.13 1.03-.3c0-.16-.84-.3-1.93-.3-1.06 0-2.02.14-2.12.3m13.95.6c0 .16.17.23.38.15 1.8-.66 1.25 1.15-1 3.3-1.66 1.6-1.8 1.85-1.64 2.72.1.52.25 2.15.32 3.62.14 2.8.4 3.23 1.36 2.35.55-.5.65-1.38.2-1.83-.1-.12-.2-.76-.2-1.44 0-.67-.14-1.7-.3-2.26-.28-.98 2.58-4.5 3.66-4.5.13 0 .23-.55.23-1.2v-1.2h-1.5c-.82 0-1.5.12-1.5.28m44.53.13c-.16.42.34 2.14 1.2 4.1.9 2.13 1.32 3.17 1.86 4.78.3.92.65 1.8.8 1.95.12.15.23.52.23.82 0 .6.72.72 1.3.18.38-.36.04-2-.7-3.3-.17-.28-.23-.72-.13-.98.2-.55-.37-.63-.6-.1-.3.77-.72-.42-.56-1.6.1-.75.05-1.16-.18-1.16-.18 0-.33-.4-.33-.93 0-.6-.26-1.15-.66-1.5-.36-.3-.5-.56-.3-.56.24 0 .26-.16.07-.52-.15-.28-.34-.76-.43-1.05-.2-.62-1.34-.7-1.57-.1m-195.14 1.42c-.68.63-.68.67-.15 1.06.6.45.96 5.86 1 15.27.04 5.45-.82 4.5 10.47 11.5 5.42 3.35 6.52 4.16 6.5 4.8-.03.77-.08.76 1.25.2 1.53-.63 1.3-1.5-.68-2.68-.86-.52-1.94-1.27-2.4-1.7-.47-.4-1.32-.97-1.9-1.25-.58-.27-1.63-1.04-2.33-1.7-1.14-1.07-1.4-1.52-1.3-2.2.02-.13-.1-.23-.28-.23-.2 0-.24.25-.13.6.18.6-.28.84-.6.3-.1-.17-.43-.3-.7-.3-.76 0-2.3-1.4-1.75-1.6.23-.1.57 0 .75.18.22.2.34.22.34.02 0-.17-.35-.47-.77-.66-.45-.2-.7-.22-.58-.05.68 1.13-3.52-.7-4.25-1.83-.15-.22-.33-4.86-.4-10.3-.18-10.95-.23-11.16-2.1-9.42m-47.9.56c.2.6.34 1.26.26 1.5-.1.4-.1.4.2 0 .46-.64.4-1.03-.27-1.83l-.6-.7.4 1.04m-11.64.6c-.38.7-.48 1.92-.14 1.6.44-.45 2.24-.52 2.5-.12.1.16.54.14 1.07-.06.68-.26 1.04-.26 1.45 0 .33.2 1.86.33 3.82.32 1.8 0 2.97-.07 2.6-.14-.37-.07-.68-.33-.68-.56 0-.28-.34-.44-.97-.46-1.38-.03-3.53-.2-6.78-.48-1.54-.14-2.84-.18-2.88-.1m56.44 1.17c-.46.3-1.4 1.1-2.1 1.75-.7.65-1.66 1.44-2.16 1.76-1.74 1.1-6.3 4.42-6.83 4.97-.6.62-3.33.8-3.67.26-.1-.15-.6-.3-1.1-.3-2.23 0-10.22-3.04-10.08-3.84.04-.28-.18-.53-.52-.6-.5-.1-.53-.03-.23.28.54.56.47.87-.22.87-.33 0-.6-.1-.6-.24 0-.14-.3-.22-.68-.2-.37.04-.94-.08-1.27-.26-1.6-.86-2.4-1-2.96-.46-.78.74-.54 1.9.4 2 1.36.17 4.6 1.02 6.64 1.75 1.1.4 2.2.7 2.47.7.26 0 1.53.36 2.82.8 2.43.8 6.73 1.9 7.42 1.9.4 0 3.38-2.3 4.66-3.6.42-.43 1.43-1.3 2.25-1.94.83-.64 2.02-1.68 2.65-2.3.63-.64 1.3-1.16 1.5-1.16.44-.02 3.17-2.7 2.76-2.7-.18 0-.7.26-1.16.57m-91.53.57c.1.37.3.75.45.84.4.26.3-.3-.17-.94-.42-.56-.43-.56-.27.1m32.62 2.54c-.8.88-1.26 1.77-.52.98.82-.88 1.4-1.65 1.26-1.65-.07 0-.4.3-.74.68m199.57.05c-.1.24-.13.8-.07 1.28.1.7.14.63.26-.42.14-1.3.07-1.6-.2-.84M105.7 41c-.42.18-.52 1-.1 1 .14 0 .33-.26.4-.6.1-.32.15-.58.12-.57-.02.02-.2.1-.42.18m25.13 2.52c-.24.32-.54.6-.68.6-.13 0-.53.26-.9.6-.34.32-.8.6-1.03.6-.2 0-.4.1-.4.25 0 .14-.36.2-.8.14-.8-.1-.8-.1-.14.2.9.4 5.1-2.24 4.5-2.84-.07-.07-.32.13-.55.46m155.74-.43c0 .14-1.1.8-2.44 1.45-1.35.65-2.28 1.24-2.08 1.3.2.07.52-.02.7-.2.2-.2.58-.34.88-.34.3 0 .54-.12.54-.3 0-.15.27-.3.6-.3.33 0 .6-.12.6-.3 0-.15.2-.3.42-.3.5 0 1.23-.83.96-1.1-.1-.1-.2-.07-.2.1m-254.05.5c.12.3.2.73.2.93 0 .2.2.63.44.95.37.5.36.36-.02-.77-.25-.73-.54-1.4-.63-1.5-.1-.07-.1.1 0 .4m314.2 2.55c.1.17.43.27.7.23.3-.05.88.04 1.3.2.4.16 1 .33 1.34.38.33.05 1.07.18 1.65.3.9.17.97.15.44-.2-1-.62-5.76-1.43-5.44-.9m-239.18 1.08c.36.55.8.92.94.83.16-.1.13-.22-.07-.3-.2-.05-.37-.27-.37-.46 0-.18-.26-.5-.58-.7-.53-.34-.53-.3.07.64m277.96.02c.25 1.1.42 1.34.4.58 0-.32-.13-.78-.3-1.03-.22-.32-.25-.2-.1.46m-32.14.26c.33.26.8.48 1.03.48.62.02.03-.47-.88-.73-.74-.2-.75-.2-.16.25m-245 1.45c0 .84.37 1.7.78 1.87.25.1.36.03.25-.13-.1-.15 0-.3.2-.3.22 0 .1-.2-.28-.46s-.6-.6-.52-.73c.08-.13.02-.33-.15-.44-.17-.1-.3 0-.3.2m246.4.33c-.2.36-.83.98-1.4 1.37-.56.4-1.75 1.33-2.63 2.1-.9.77-2.44 2.06-3.45 2.9l-1.83 1.48.16 3c.1 1.66.36 3.78.6 4.7.22.94.4 2.08.4 2.54 0 .44.08.75.16.66.33-.33.54-6.64.2-6.43-.43.27-.72-.8-.48-1.77.15-.6.27-.7.46-.4.17.27.26.1.26-.55 0-.68.17-1 .6-1.14.34-.1.6-.3.6-.45 0-.13.3-.34.65-.45.46-.15.53-.27.26-.44-.3-.16-.18-.44.43-1.08.54-.57.87-.73.96-.48.23.6.5.46 2.13-1.13.85-.8 1.65-1.5 1.78-1.5.15 0 .47-.22.74-.5.26-.3.8-.77 1.18-1.06.38-.3.53-.53.33-.53s-.36-.13-.36-.3c0-1.08-1.28-1.44-1.77-.5M50.08 51.9c.32.2.27.3-.23.45-.35.1-.64.36-.65.56 0 .2-.2.12-.4-.17-.36-.46-.44-.47-.6-.08-.1.26 0 .47.2.47s.13.15-.16.32c-.4.22-.53.7-.53 1.7l.02 1.42.45-.87c.25-.5.35-.97.23-1.06-.44-.33-.4-.93.08-.93 1.05 0 1.42.3 7.73 6.24 1.46 1.36 2.75 2.48 2.88 2.48.13 0 1.04-.27 2-.6 1-.32 2.26-.6 2.84-.6 1.16 0 3.65-1.18 3.5-1.66-.14-.4-2.6-.57-2.6-.16 0 .17-.34.32-.75.32-.42 0-.75.12-.75.27 0 .5-1.92.98-2.25.54-.17-.22-.52-.35-.78-.3-.27.05-.93-.36-1.48-.92-.64-.66-1.2-.97-1.54-.88-.72.18-1.67-.74-1.23-1.2.35-.33-.2-1.13-.8-1.13-.15 0-.74-.47-1.3-1.06-.54-.6-1.48-1.6-2.1-2.25-.6-.66-1.34-1.18-1.64-1.18-.42 0-.45.06-.12.27m59.77 1.5c0 .43.2 1.03.46 1.36.45.58.46.56.26-.3-.33-1.38-.7-1.96-.7-1.05m215.73 1.44c0 .3.76 1.27 1 1.27.33 0 .2-.62-.25-1.06-.47-.47-.77-.55-.76-.2M47.57 57.4c-.07.36-.2 1.88-.3 3.37-.3 4.23-.65 4.88-2.94 5.38-.46.1-.83.36-.83.6 0 .57-.78 1.18-1.03.78-.3-.47-.76-.38-.76.16 0 .24-.12.37-.28.27-.6-.37-5.4 2.34-5.4 3.05-.02 1.58 2.2 1 6.14-1.6.48-.3 1.95-1.1 3.28-1.75 2.42-1.2 3.15-2.06 2.2-2.6-.36-.2-.4-.55-.18-1.82.5-3.13.62-8.28.13-5.86m23.6 1.93c-.2.07-.38.58-.38 1.12 0 .54-.32 1.46-.72 2.04-.4.58-.82 1.37-.94 1.76-.1.4-.9 2.1-1.7 3.8l-1.52 3.1.56 1.25c.3.7 1.05 2 1.63 2.9.9 1.38 3.05 5.4 3.9 7.22.34.75 1.8.77 1.8.02 0-.34-.15-.62-.3-.62-.18 0-.3-.13-.3-.3 0-.16-.43-.87-.94-1.57-.52-.7-1.78-2.77-2.8-4.58-1.03-1.82-2.05-3.6-2.28-3.94-.36-.58-.3-.85.55-2.5.52-1.03.95-2 .95-2.16 0-.16.37-.86.83-1.55 2.3-3.46 3.15-6.53 1.64-6m41.03.34c0 .67.8 1.46 1.13 1.1.12-.12.05-.3-.16-.36-.2-.07-.37-.32-.37-.54 0-.23-.14-.5-.3-.6-.17-.1-.3.08-.3.4m42-.3c0 .23 2.4 1.66 2.55 1.5.05-.05-.5-.46-1.22-.9-.73-.46-1.32-.73-1.32-.6m-41.22 2.56c-.3.36-.75 1.02-1.03 1.47-.28.45-.6.82-.74.82-.13 0-.23.17-.23.38 0 .22-.4.86-.9 1.43-.48.57-.88 1.2-.9 1.4 0 .22-.1.4-.23.4-.12 0-.6.6-1.08 1.34-.47.74-.98 1.35-1.14 1.35-.16 0-.2.12-.12.27.1.13-.04.33-.28.43-.25.1-.45.35-.45.56 0 .2-.27.58-.6.8-.3.24-.5.53-.44.65.07.12-.07.42-.3.66-.6.6-1.67 2.55-1.67 3.04 0 .23-.26.48-.56.56-.53.13-1.05 1.52-.7 1.86.7.7 2.35.1 3.12-1.1 1.1-1.76 2.93-4.45 3.76-5.5.38-.5 1.63-2.3 2.8-4.04 1.16-1.74 2.44-3.62 2.85-4.2 1.35-1.86.23-4.3-1.18-2.6m44.52-.48c0 .3 1.2 1.07 1.4.9.06-.1-.22-.37-.64-.64-.42-.28-.76-.4-.76-.26m176.74 2.08c-.24.1-1.12.47-1.95.85-2.63 1.2-7.47 3.1-8.23 3.2-.72.1-1.45 1.57-.94 1.88.18.1 3.6-1.42 6.4-2.86.28-.16.72-.28.97-.28.26 0 .7-.13.98-.28 3.88-2.03 4.22-2.08 6-.82.8.55 1.86 1.25 2.37 1.57.52.3 2.1 1.36 3.5 2.33 2.64 1.8 3.52 2 3.52.78 0-.5-.14-.58-.6-.43-.43.13-1.15-.17-2.34-.98-7.3-4.95-8.3-5.46-9.68-4.98m41.1.75c0 .35-.07.56-.18.45-.28-.28-1 1.23-1 2.08 0 .4-.14.72-.3.72-.17 0-.3.2-.3.45s-.14.45-.3.45c-.17 0-.3.2-.3.42 0 .24-.13.47-.27.53-.3.1-1.84 3.08-1.84 3.56 0 .88-.9 1.2-3.42 1.2-1.4 0-2.64.12-2.74.3-.1.15-1.03.3-2.07.3-1.03 0-1.97.08-2.1.2-.1.1-.4.24-.66.27-1.02.16-1.3.44-1.3 1.3 0 .48.13.97.3 1.07.16.1.3.06.3-.1 0-.14 1.24-.4 2.76-.6 9.43-1.12 9.38-1.1 10.08-2.9.26-.66 1.04-2.15 1.72-3.3.7-1.18 1.43-2.63 1.66-3.25.7-1.97 1.1-1.48 4.3 5.26 1.4 2.94 1.55 3.07 3.48 3.36 5.5.84 7.2 1.13 8.2 1.44 1.04.32 1.2.3 1.58-.2.73-1 .5-1.36-.8-1.36-.74 0-1.14-.12-1.03-.3.1-.2-.5-.3-1.63-.3-1.02 0-1.82-.13-1.82-.3 0-.17-.74-.3-1.64-.3-.9 0-1.7-.14-1.8-.3-.12-.17-.54-.3-.95-.3-.76 0-1.6-.6-1.6-1.16 0-.16-.17-.48-.38-.7-.64-.7-1.13-1.7-1.13-2.34 0-.33-.27-.77-.6-.97-.34-.2-.6-.62-.6-.92 0-.32-.14-.46-.33-.35-.2.13-.3-.06-.23-.5.07-.47-.03-.7-.3-.63-.23.05-.3-.06-.17-.27.12-.2-.03-.53-.34-.76-.3-.22-.4-.4-.2-.4.48 0 .44-.32-.1-1.05-.4-.52-.5-.54-.74-.15-.2.3-.3.32-.3.07 0-.22-.2-.38-.46-.38s-.45.27-.45.65m-104.8 4.5c.3.3.45.3.73 0 .28-.27.2-.35-.36-.35s-.64.08-.36.36m77.2.84c0 .5.12.9.3.9.15 0 .3-.4.3-.9s-.15-.9-.3-.9c-.18 0-.3.4-.3.9m-191.6 2.7c-.5.33-.78.6-.6.6.3-.02 1.92-1.2 1.64-1.2-.08 0-.56.27-1.05.6m-5.26 1.97c-.97.36-1 .4-.26.4.43 0 .95-.18 1.16-.43.2-.25.32-.44.26-.42-.06.02-.6.22-1.16.44m-8.4 1.7c0 .54.06.58.3.22.37-.58.37-.9 0-.9-.17 0-.3.3-.3.67m-.47 1.3c-.1.3-.3.88-.46 1.26-.34.87-.35 3.1 0 2.46.37-.68 1-3.92.82-4.12-.1-.1-.25.1-.35.4m218.35 2c.06.04.52.4 1.02.82l.9.75-.73-.83c-.4-.45-.85-.82-1-.82-.18 0-.25.03-.2.08m-255.1 2.1c.13.15.97.2 1.86.16l1.62-.1-1.86-.14c-1.03-.08-1.76-.04-1.62.1m35.64.7c-.12.1-.2.55-.18.98.03.76.03.76.3-.1.26-.93.22-1.23-.13-.88M59.62 83.2c-.2.85-.1.93.34.22.2-.3.25-.64.1-.73-.14-.1-.33.12-.43.5m4.22 0c.08.13.87.2 1.77.18.9-.03 1.55-.13 1.46-.2-.25-.27-3.4-.24-3.24.02m10.52-.2c-.12.12-.22.43-.22.68 0 .34.1.37.33.13.2-.18.28-.48.22-.67-.06-.2-.2-.25-.33-.13m313.83.3c-.32.23-.52.47-.45.54.07.07.4-.06.7-.3.32-.22.53-.47.45-.54-.07-.07-.38.06-.7.3m-21.48 2.8c0 .5-.14.97-.3 1.07-.17.1-.3.78-.3 1.5s-.14 1.4-.3 1.5c-.17.1-.3.76-.3 1.46s-.14 1.4-.3 1.56c-.16.15-.36 1.1-.45 2.08-.13 1.33-.1 1.62.12 1.12.17-.37.5-.68.76-.68.35 0 .46-.33.46-1.35 0-.74.13-1.35.3-1.35.16 0 .3-.58.3-1.3 0-.7.1-1.4.26-1.56.15-.16.35-.83.44-1.5.1-.65.26-1.7.36-2.3.18-1.02.13-1.14-.44-1.14-.5 0-.63.2-.63.88m17.96-.5c-.06.68.1 1.87.28 2.17.1.17.22.98.27 1.8.05.83.23 2.46.4 3.63.18 1.18.28 2.26.24 2.4-.1.3.13.42.8.42.32 0 .46-.3.46-1.06 0-.64-.13-1-.3-.9-.17.12-.3 0-.3-.27s.13-.48.3-.48c.16 0 .3-.4.3-.86 0-.97-.7-2.53-1-2.23-.12.1-.2.03-.2-.16 0-.2.13-.35.3-.35.16 0 .3-.46.3-1.03 0-.58-.14-1.13-.3-1.23-.42-.25-.38-1.45.06-1.9.25-.24.25-.35.02-.35-.18 0-.4.17-.5.38-.15.3-.22.3-.36 0-.1-.2-.3-.38-.45-.38-.15 0-.3.17-.3.38M56.4 86.75c-.4.48-.8.95-.86 1.03-.07.08-.04.14.06.14.3 0 1.7-1.5 1.7-1.8 0-.4-.03-.37-.9.63m83.13.4c0 .4-.13.82-.3.92-.16.1-.28.62-.25 1.15.03.82.06.85.18.2.07-.4.25-.82.4-.9.43-.28.7-2.1.3-2.1-.17 0-.33.33-.33.73M48.6 88.22c0 .5.12.9.26.9s.2-.4.12-.9c-.08-.5-.2-.9-.25-.9-.07 0-.12.4-.12.9m81.06.5c.4.5.78.87.86.8.07-.06-.26-.48-.73-.93l-.87-.83.73.94m-76.5 1.63c-.35.34-.65.7-.65.77 0 .24 1.5-.9 1.5-1.15.02-.34-.12-.28-.83.38m87.28.4c-.2.4-.3.92-.22 1.14.1.24.17.16.18-.2.02-.35.2-.8.4-.98.2-.2.28-.44.2-.52-.1-.1-.34.17-.55.56m-106.24.88c0 .08.48.42 1.06.76.58.34 1.05.5 1.05.38 0-.2-.42-.47-1.87-1.18-.12-.06-.22-.04-.22.04m105.54 1c-.3.3-.24 1.3.1 1.3.16 0 .26-.33.23-.75-.07-.84-.06-.82-.33-.55m238.36.95c0 .14.37.42.82.63l.82.37-.66-.62c-.7-.67-.98-.78-.98-.38M321.2 97c-.12.17-.1.25.06.16.76-.45 1.45.28 1.37 1.45-.08 1.13.02 1.28 2.26 3.28 1.28 1.15 2.94 2.66 3.68 3.34 8.06 7.42 9.2 8.3 10.06 7.68.8-.6-1.7-4.27-2.9-4.27-.33 0-1.16-.75-1.16-1.05 0-.1-.2-.4-.45-.65-.24-.24-.45-.36-.45-.25 0 .1-.6-.4-1.35-1.16-.74-.74-1.35-1.47-1.35-1.62 0-.15-.37-.46-.82-.68-.88-.44-2.48-2-2.48-2.44 0-.14-.13-.25-.3-.25-.43 0-1.48-1.12-1.26-1.35.1-.1-.04-.1-.32 0-.33.14-.58.03-.7-.27-.1-.26-.37-.48-.6-.48-.23 0-.42-.13-.42-.3 0-.16-.2-.3-.45-.3s-.45-.12-.45-.27c0-.45-1.75-.94-2-.56m44.12.56c.4.23.64.23.88 0 .24-.25.1-.33-.55-.33-.78 0-.82.05-.33.33m-334.24 5.37c-.1.35-.14.7-.06.8.1.07.25-.15.36-.5.1-.36.14-.72.05-.8-.07-.08-.23.14-.34.5m353.02 3.73c.2.24.28.58.18.75-.1.17.08.95.4 1.74.33.8.78 1.98 1 2.64.66 2 .97 2.38 1.62 2 .3-.2.4-.34.2-.34-.22 0-.38-.4-.38-.9 0-.48-.14-.96-.3-1.06-.17-.1-.3-.52-.3-.92s-.14-.73-.3-.73c-.17 0-.3-.25-.3-.54 0-.3-.13-.68-.28-.84-.15-.15-.32-.6-.37-1-.06-.43-.4-.82-.82-.98-.6-.23-.66-.2-.35.18m-26.6 1.55c-.2.1-.3.34-.2.54.07.2-.33 1.45-.9 2.76-.56 1.3-1.52 3.53-2.12 4.93-.6 1.4-1.4 3.22-1.8 4.05-1.16 2.44-1.97 4.3-1.97 4.5 0 .12-.24.7-.5 1.27-.43.87-.45 1.16-.13 1.66.2.34.65 1.1.98 1.7.8 1.43 1.8 2.86 2.1 2.98.13.06.24.24.24.4 0 .18.87 1.66 1.94 3.3 1.07 1.64 1.95 3.04 1.95 3.13 0 .1.66 1.16 1.5 2.38 2.4 3.57 3.12 3.37-8.1 2.22-9.7-1-10.04-1.03-10.5-.93-.26.06-1.75 1.66-3.32 3.57-1.56 1.9-2.98 3.62-3.15 3.8-.16.2-1.1 1.3-2.1 2.46-1 1.15-2.46 2.87-3.26 3.82-1.17 1.4-1.54 1.67-1.87 1.4-.48-.4-.54-.05-.23 1.48.24 1.2 1.1 1.25 2 .15.37-.43 1.4-1.62 2.3-2.64 1.63-1.82 3.93-4.47 5.02-5.77.3-.36 1.07-1.3 1.73-2.07.66-.8 1.55-1.92 2-2.53 1.04-1.45 2.33-2.44 2.93-2.26.26.08 1.9.3 3.63.5 3.9.4 6.5.7 10.2 1.2 5.72.74 6.56.47 4.96-1.63-.42-.56-.77-1.23-.77-1.5 0-.28-.1-.5-.24-.5-.12 0-.42-.44-.65-.98-.23-.54-.85-1.58-1.38-2.32-.53-.75-1.22-1.9-1.55-2.56-.32-.66-1.02-1.94-1.55-2.85-.53-.9-1.13-2.02-1.32-2.47-.2-.46-.45-.83-.58-.83-.13 0-.24-.17-.24-.37 0-.2-.27-.72-.6-1.13-.6-.8-.8-2.1-.3-2.1.17 0 .3-.2.3-.44 0-.25.28-.93.6-1.52.34-.6.6-1.3.6-1.6 0-.3.9-2.25 1.96-4.34 1.07-2.1 1.95-4 1.95-4.25s.26-.93.6-1.52c.32-.6.6-1.27.6-1.5 0-.25.1-.45.22-.45.37 0 1.02-1.74.92-2.47-.1-.68-1.1-1-1.96-.65m-8.37.76c-.08.15.4.27 1.05.27.66 0 1.28-.13 1.38-.28.1-.16-.36-.28-1.04-.27-.68 0-1.3.14-1.38.28M42.1 113.03c-.23.1-.4.7-.4 1.47 0 1.4.42 1.8.7.7.18-.67 1.72-.62 1.96.05.06.15.3.28.53.28.22 0 .4.13.4.3 0 .16.15.3.33.3.17 0 .75.4 1.27.9 1.14 1.06 1.12 1.06 3.56.33 2.86-.86 4.15-1.03 4.17-.57.02.2.17.07.35-.3.52-1.07-1.7-2.28-2.32-1.27-.1.16-.62.3-1.15.3-.53 0-1.1.1-1.25.25-1.1.97-2.22 1.03-3.06.16-2.35-2.43-4-3.37-5.1-2.9m330 .84c0 .7.48 1.56.73 1.3.1-.1-.03-.55-.28-1.03-.36-.7-.45-.75-.45-.27m17.7.27c0 .07.42.27.93.44.8.28.9.26.56-.13-.33-.4-1.5-.64-1.5-.32m-16.63.96c-.1.3.05.7.42 1.03.32.28.6.66.6.83 0 .18.1.36.22.42.12.05.73.68 1.35 1.38.95 1.07 1.17 1.2 1.34.77.12-.3.05-.57-.17-.64-.2-.08-.87-.68-1.48-1.35-.6-.68-1.32-1.45-1.57-1.72-.26-.27-.42-.65-.36-.84.2-.56-.14-.44-.35.1m19 1.3c-.74.76-2 1.93-2.8 2.6l-1.42 1.2.28 3.14c.37 4.16.26 4.2-4.4 1.03-1.4-.96-1.66-.94-4.43.32-1.3.58-2.6 1.02-2.95.97-.74-.1-1.76.85-1.54 1.44.24.6 1.18.93 1.33.5.06-.2.35-.37.63-.37.3 0 1.08-.27 1.76-.6.7-.33 1.45-.6 1.7-.6.27 0 .48-.1.48-.24 0-.8 1.97-.8 2.8 0 .48.45 1.25.98 1.73 1.2.48.2.87.48.87.6 0 .13.2.23.45.23.24 0 .45.14.45.3 0 .17.53.3 1.18.3 1.15 0 1.85-.72 1.4-1.44-.08-.14-.18-.95-.22-1.8-.04-.87-.15-1.57-.25-1.57s-.12-.57-.05-1.27c.12-1.35.86-2.28 3.05-3.83 2.4-1.7 2.86-2.42 2.04-3.24-.48-.5-.5-.5-2.06 1.1M41.7 117.96c0 1.27-.1 1.55-.6 1.68-.32.1-.6.26-.6.4 0 .12-.63.52-1.4.9-2.68 1.23-3.46 2.92-1.9 4.1.77.6.95.44.26-.26l-.65-.65.66-.24c.36-.14.65-.37.65-.53 0-.15.52-.5 1.13-.8 2.68-1.26 3.08-1.8 3.08-4.08 0-1.18-.12-2.07-.3-2.07-.16 0-.3.7-.3 1.53m12.53-.15c-.12.13-.22.44-.22.7 0 .33.1.36.35.12.18-.2.28-.5.22-.68-.07-.2-.22-.25-.34-.13m-1.2 5.07c.3.4.63.75.76.75.1 0 .2.22.2.48 0 .6.87 1.48 1.15 1.2.12-.12-.03-.35-.32-.5-.3-.17-.45-.44-.35-.6.1-.16-.25-.7-.77-1.18-1.16-1.08-1.4-1.14-.68-.15m-10.55 3.75c-.1.18-.35.23-.54.1-.2-.1-.04.22.32.73.36.5.66 1.27.66 1.7 0 .4.15.83.3.93.18.1.3.66.3 1.23 0 .93.08 1.02.56.76.54-.3.38-2.2-.33-3.93-.1-.25-.23-.7-.28-1.02-.1-.66-.7-.95-.98-.48m1.64 6.36c0 .4.87.5 1.34.16.4-.3.35-.36-.42-.36-.5 0-.9.1-.9.2m259.7.47c.34.08.73.26.9.4.15.16.5.28.74.28.26 0 .08-.2-.4-.45-.47-.25-1.07-.43-1.34-.4-.35 0-.32.07.1.17m4.83.32c.5.32 1.25.7 1.65.8.4.14 1.27.48 1.93.77.66.3 2.68 1.15 4.5 1.9 1.8.77 3.67 1.58 4.13 1.83.76.4.82.4.82-.15 0-.32-.2-.58-.45-.58s-.7-.13-.98-.27c-.48-.25-1.04-.48-2.85-1.2-.37-.16-1.48-.58-2.47-.95-1-.37-2.6-1.05-3.6-1.52-1-.46-2.2-.93-2.7-1.03l-.9-.2.92.6M34.87 142c-.6.6-.4.8.36.44.4-.2.66-.45.6-.57-.22-.33-.55-.3-.96.13m1.3 1c-.2.82.3 1.76.77 1.47.4-.25.3-1.1-.16-1.72-.37-.5-.4-.48-.6.25m-2.57.66c0 .13-.4.4-.9.63-.88.38-1.25 1.24-.52 1.23.77-.02 2.36-2.1 1.6-2.1-.1 0-.17.1-.17.23m287.48 1.23c0 .5.14.94.3.94.2 0 .23-.34.1-.83-.27-1.17-.4-1.2-.4-.1m-291.17-.36c-.36.37-.2 1 .28 1 .45 0 1.33-.68 1.33-1.03 0-.23-1.35-.2-1.6.04m7.18.9c-.1.26-.15.5-.1.5.04.03.38.22.75.42.37.2 1.05.38 1.52.38.46 0 1.03.16 1.26.37.34.3.34.26 0-.2-.8-1.1-1.14-1.36-1.77-1.36-.34 0-.62-.14-.62-.3 0-.5-.8-.34-1.02.2m-6.57 3.9c-.1.1-.18.55-.17.97.03.77.03.77.3-.1.27-.9.23-1.2-.12-.86"/><path fill="#e4871b" d="M307.64 3.25c-.27.18-.15.35.45.62.44.2 2.53 1.5 4.64 2.9 3.64 2.4 5.94 3.24 5.94 2.18 0-.13.2-.25.43-.25.25 0 1.03-.3 1.74-.7 3.7-1.98 3.75-2 4.72-2 1.3 0 1.3.06 0 5.12-.64 2.55-1.17 4.7-1.17 4.78 0 .1.53.76 1.2 1.5.66.75 1.64 1.88 2.17 2.53.53.64 1.4 1.67 1.94 2.3 1.8 2.02 1.08 2.37-4.9 2.37-3.66 0-4.46.2-4.95 1.16-.22.44-.9 1.54-1.5 2.45-.58.9-1.45 2.36-1.9 3.2-1.18 2.18-2.84 2.2-2.87.05 0-.28-.14-.6-.3-.7-.17-.1-.3-.5-.3-.9s-.14-.74-.3-.74c-.17 0-.3-.4-.3-.88s-.14-.96-.3-1.06c-.17-.1-.3-.43-.3-.74 0-1.7-1.53-2.94-3.78-3.06-.75-.04-1.43-.18-1.5-.3-.1-.14-.7-.25-1.34-.25-.65 0-1.18-.13-1.18-.3 0-.16-.48-.3-1.05-.3-.58 0-1.06.14-1.06.3 0 .17.33.3.74.3.4 0 .82.14.93.3.1.17.64.3 1.2.3.55 0 1.1.14 1.2.3.1.17.58.3 1.07.3 1.5 0 3.28.7 3.28 1.28 0 .3.16.53.35.53.2 0 .26.1.16.2s-.02.54.2.97c.22.43.57 1.53.78 2.44.2.92.5 1.8.64 2 .14.17.16.4.06.5-.1.12-.04.2.15.2.2 0 .35.35.35.76 0 .4.13.75.3.75.16 0 .3.34.3.74 0 2.15 2.1.88 3.65-2.2.4-.76.8-1.43.92-1.48.13-.06.23-.3.23-.53 0-.23.13-.42.3-.42.17 0 .3-.2.3-.44 0-.25.13-.45.3-.45.17 0 .3-.13.3-.3 0-.17.36-.84.8-1.5l.78-1.2h3.4c2.08 0 3.42-.1 3.42-.3 0-.16.7-.3 1.52-.3.83 0 1.45.12 1.36.26-.08.14.3.1.88-.08.58-.17 1.04-.46 1.04-.62 0-.28-1.88-2.8-2.35-3.15-.1-.08-.6-.66-1.06-1.3-.47-.62-1.28-1.58-1.8-2.1-1.48-1.55-2.44-4.4-1.46-4.4.13 0 .4-.34.58-.75.2-.4.22-.67.07-.58-.15.1-.27-.05-.27-.32 0-.26.14-.4.3-.3.3.18.46-1.04.34-2.47-.04-.37.1-.68.28-.68.2 0 .27-.2.17-.45-.1-.3.02-.46.35-.47.3-.02.37-.08.14-.18-.2-.08-.38-.42-.38-.76 0-.54.06-.56.5-.2.45.38.48.3.28-.74-.15-.8-.1-1.1.1-.96.18.1.32.06.32-.1 0-.17-.13-.4-.3-.5-.16-.1-.3-.03-.3.14 0 .18-.2.32-.47.32-.24 0-.37-.13-.27-.3.1-.16.06-.3-.1-.3s-.36.2-.45.43c-.1.24-.46.6-.83.8-.6.3-.64.28-.45-.22.18-.44.14-.48-.16-.17-.2.2-.6.37-.86.37-.62 0-2.1.7-2.1.98 0 .12-.4.22-.92.22-.53 0-.84.13-.73.3.1.17-.03.3-.28.3-.26 0-.47.14-.47.3 0 .17-.26.3-.58.3-.32 0-.67.14-.77.3-.36.58-2.17.35-2.34-.3-.1-.37-.42-.6-.82-.6-.4 0-.72-.23-.8-.6-.1-.33-.36-.6-.6-.6-.2 0-.4-.13-.4-.3 0-.16-.35-.3-.77-.3-.5 0-1.16-.4-1.92-1.2-1.17-1.2-2.54-1.58-3.54-.95m-.36 2.73c0 .5.13.97.3 1.07.18.1.3-.25.3-.88 0-.6-.14-1.07-.3-1.07-.17 0-.3.4-.3.88M109.83 9c0 .83-.12 1.5-.25 1.5-.14 0-.28.68-.3 1.5-.04.83.06 1.5.2 1.5.28 0 .46-.62 1.17-4.02l.24-1.18 2.46 2.12 2.46 2.13 1.58-.4c4.33-1.07 4.53-.92 2.93 2.25-1.2 2.35-1.14 2.85.45 5.44.74 1.2 1.35 2.3 1.35 2.43 0 .33-2.63.3-2.83-.04-.1-.14-.86-.27-1.7-.28-1.7 0-1.9.15-3.44 2.53-1.95 3.03-3.73 2.64-3.73-.8 0-.98-.14-1.77-.3-1.77-.17 0-.3-.27-.3-.6 0-.35-.14-.55-.3-.45-.4.26-.38 1.45.04 1.88.2.18.32 1.15.3 2.16-.05 1.97.45 3.13 1.46 3.4.32.08.57.06.55-.05-.08-.65.1-1 .47-.85.26.1.48-.08.6-.48.08-.35.24-.55.34-.45.28.3 1.1-.68 1.9-2.24.78-1.54.9-1.6 1.9-1.08.38.2.9.46 1.2.6.3.14 1.2.26 2 .26.83 0 1.58.14 1.68.3.23.38 1.35.4 1.35.04 0-.14-.2-.43-.45-.63s-.45-.76-.45-1.25c0-.52-.47-1.56-1.16-2.6-1.6-2.36-1.7-2.85-.94-4.16 1.92-3.27 2.2-5.2.75-5.2-.58 0-1.05.12-1.05.27 0 .15-.5.33-1.13.4-.6.1-1.56.3-2.1.48-.97.3-1.06.26-3.5-1.92-3.03-2.7-3.47-2.8-3.47-.73m198.24-.26c-.3 1.42-.23 2.96.1 2.96.18 0 .3-.85.3-1.95 0-2.14-.12-2.45-.4-1M71.9 11.3c-.4.4-.2.86.47 1.16.5.22.64.5.56 1.04-.06.42-.2 2.98-.3 5.7-.2 5-.33 5.7-1.1 5.7-.25 0-.44.13-.44.27s-.4.43-.9.64c-.5.2-.9.47-.9.6 0 .1-.58.5-1.28.9-2.18 1.2-4.12 2.74-4.12 3.26 0 .36.42.6 1.42.85.78.2 2.17.7 3.08 1.1.9.42 2.45 1 3.44 1.3l1.8.56.65 2.25c.38 1.25.68 2.07.7 1.84 0-.23-.25-1.33-.6-2.45l-.6-2.05-1.6-.47c-.9-.26-1.7-.47-1.8-.47-.1 0-.9-.33-1.82-.75-.9-.4-2.16-.92-2.78-1.12-1.52-.5-1.43-.76.83-2.24 6.77-4.43 6.28-3.73 6.33-9.2.04-6-.27-5.84 4.3-2.28 3.66 2.84 3.97 3 4.96 2.83 1.4-.25 5.15-1.28 7.2-1.98 2.27-.77 2.27-.68.14 4.85C88 27.17 88 27.5 89.4 29.26c.66.82 1.84 2.38 2.63 3.45.8 1.08 1.54 2 1.66 2.06.3.13.3 1.47 0 1.65-.13.08-2.32.02-4.88-.12-4.62-.26-5.7-.2-5.7.36 0 .23-1.03 1.95-1.87 3.12-.9 1.27-3.1 3.92-3.3 4-.12.06-.23.3-.23.53 0 .83-.64.4-1.23-.86l-.6-1.28.2 1.05c.43 2.32 2.22 3.52 2.22 1.5 0-.32.14-.6.3-.6.16 0 .3-.17.3-.4 0-.2.34-.55.75-.73.4-.2.75-.48.75-.64 0-.16.42-.78.93-1.36.5-.58.86-1.06.77-1.06-.1 0 .16-.35.57-.8.4-.43.83-1.2.96-1.7.27-1 2.13-1.16 5.66-.47.85.17 1.86.28 2.25.25 1.76-.16 2.95.04 2.95.48 0 .66 1.1.55 1.28-.12.2-.72-.63-2.58-1.68-3.82-.44-.52-.8-1.04-.8-1.15 0-.25-1.77-2.86-2.3-3.4-1-1.03-1.16-2.25-.45-3.57.2-.36.35-.86.35-1.12 0-.25.32-1.17.72-2.04.4-.87.8-1.92.92-2.34.37-1.3.9-2.4 1.16-2.4.13 0 .2-.5.15-1.12-.1-1.07-.15-1.13-1.18-1.14-1.08 0-1.1 0-.84.9.15.5.26.95.26 1 0 .03-.66.06-1.48.06-.8 0-1.57.14-1.67.3-.1.17-.58.3-1.07.3-.48 0-.88.14-.88.3 0 .17-.54.3-1.2.3-.66 0-1.5.16-1.88.35-1.4.73-1.72.86-2.16.86-.25 0-.46-.13-.46-.3 0-.16.14-.3.3-.3.45 0 .36-.5-.17-1.03-.27-.26-.64-.38-.83-.27-.2.1-.25.1-.12-.05.26-.3-1.8-2.25-3.02-2.88-.45-.23-1.03-.65-1.3-.94-.26-.3-.66-.53-.87-.53-.2 0-.3-.08-.2-.2.23-.2-2.17-2.2-2.66-2.2-.18 0-.4.1-.52.2m235.96 2.65c0 .58-.16.76-.68.76-.84.03-1.72.67-1.72 1.28 0 .32-.2.42-.6.3-.47-.1-.6 0-.6.52 0 .46-.14.62-.44.5-.5-.2-2.35 1.4-2.03 1.76.13.13.02.17-.23.08-.87-.3-1.9.86-1.68 1.9.28 1.45.7 1.83 1.37 1.25.54-.47.54-.5-.04-.98-.6-.48-.6-.5.36-1.23.52-.4 1.23-.98 1.56-1.27.33-.3.72-.52.85-.52.15 0 .87-.6 1.6-1.35.75-.74 1.47-1.35 1.6-1.35.7-.02 1.63-1.14 1.44-1.75-.28-.88-.76-.82-.76.1m-199.7.87c-1 .52-2.15 1.15-2.56 1.43-.4.27-1.26.65-1.88.85-1.14.36-1.15 1.2 0 1.2.24 0 .33.15.2.35-.13.22-.08.27.14.13.2-.1.35-.5.35-.88 0-.54.48-.9 2.5-1.92 1.37-.68 2.67-1.45 2.88-1.7.23-.27.35-.46.3-.43-.07.02-.93.46-1.93.97m-24.02 2.93c-.1.14.25.25.75.25s.92-.05.92-.1c0-.26-1.52-.4-1.67-.15m176.3.55c0 .17.42.3.92.3s.9-.13.9-.3c0-.16-.4-.3-.9-.3s-.9.14-.9.3m4.73.17c.53.37.67.76.67 1.9 0 1.24.1 1.47.9 1.94 1.22.73 1.18 1.4-.1 1.4-1 0-2.3 1-2.3 1.74 0 .95-1.24 1-1.6.1-.4-1.08-.67-1.18-.9-.33-.08.34-.03.6.12.6.14 0 .27.28.27.6 0 .34.13.6.3.6.16 0 .3.2.3.43 0 .24.17.48.37.55.53.18 1.43-.1 1.43-.43 0-.15-.14-.2-.3-.1-.48.3-.3-.8.26-1.8.34-.57.82-.93 1.33-1 .44-.04.8-.2.8-.36 0-.4 1.43-.37 1.56.02.17.52 1.1 0 1-.56-.06-.28-.12-.6-.13-.73-.02-.12-.24-.22-.5-.22s-.38-.13-.28-.3c.1-.16-.1-.3-.45-.3-.36 0-.56-.13-.45-.3.1-.17.08-.3-.06-.27-.76.14-1-.1-1-1.05 0-.56.16-1.08.35-1.14.72-.24-.43-1.44-1.37-1.44h-.9l.67.47m-2.63.48c0 .35 1.42.32 1.63-.02.1-.16-.23-.27-.73-.26-.5 0-.9.14-.9.28m-234.44 4.2c.43.43.5 1.76.1 1.76-.14 0-.2.65-.14 1.43.54 6.48.45 7.28-.85 7.28-.22 0-.57.28-.77.6-.2.34-.53.6-.7.6-.2 0-.6.35-.93.76-.33.42-.7.68-.85.6-.36-.23-1.43 1.4-1.33 2.04.12.77.73 1.4 1.3 1.4.38-.03.36-.1-.1-.32-.53-.24-.5-.26.2-.17.48.08.87-.04.96-.3.1-.2-.04-.4-.28-.4-.83 0-.45-.5 2.36-3.2l2.82-2.67-.4-2.4c-.2-1.3-.4-2.62-.4-2.93 0-.36-.17-.5-.45-.4-.36.15-.38.04-.15-.58.16-.42.2-.9.12-1.04-.25-.4 2.02-.33 2.96.1.44.2.8.48.8.6 0 .13.2.23.46.23.25 0 .45.14.45.3 0 .17.15.3.32.3s.66.24 1.1.52c.95.63 2.08.82 2.34.4.1-.18.45-.3.77-.3.65 0 1.6-.5 2.5-1.3.33-.28.8-.5 1.08-.5.27 0 .64-.16.82-.34.68-.68 1.74-.2 1.7.78-.06 1.3-.26 2.37-.53 2.8-.14.2-.16.7-.07 1.1.1.4.08.78-.05.86-1.05.64 1.36 5.3 2.73 5.3.48 0 .15-.66-.8-1.6-1.64-1.64-2.13-2.53-1.68-3.07.38-.46.77-1.96 1.08-4.2.1-.65.3-1.33.43-1.5.55-.7-.07-1.94-.96-1.94-.58 0-3.55 1.15-3.86 1.5-.07.08-.5.35-.96.58-.44.23-.76.5-.7.6.06.1-.2.2-.6.22-.4.02-1.08.13-1.5.23-.5.13-.7.07-.66-.2.05-.22-.3-.4-.8-.47-.5-.06-1.08-.36-1.3-.68-.23-.32-.57-.57-.77-.57-.2 0-.6-.26-.87-.6-.3-.32-.8-.6-1.13-.6-.34 0-.68-.17-.76-.38-.08-.22-.65-.43-1.27-.47-.9-.06-1.04 0-.74.3m230.24.7c0 .6.14.76.75.76.4 0 .75-.13.75-.3 0-.16-.13-.3-.28-.3-.17 0-.5-.2-.76-.47-.43-.42-.47-.4-.47.3m115.6.94c-.2.23-.38.6-.38.85 0 .24-.17.5-.36.55-.23.08-.27.33-.1.7.22.53.26.54.37.06.28-1.14.98-.5 2.94 2.64.33.53.97 1.38 1.4 1.9l.82.94h3.92c4.8 0 4.83.08 2.03 3.7-1.03 1.36-1.98 2.63-2.1 2.83-.2.32.1 1.94.63 3.38.1.26.18.53.2.6.6 1.93.9 2.7 1.1 2.7.4 0 .3 1.15-.1 1.4-.62.4-1.46.2-3.66-.83-.4-.18-1.07-.27-1.5-.2-.44.1-.72.02-.7-.18.05-.2-.48-.38-1.2-.43-.75-.06-1.28.04-1.28.22 0 .17-.2.3-.46.3-.24 0-.45.15-.45.3 0 .18-.2.3-.46.3-.24 0-.45.15-.45.3 0 .18-.15.3-.33.3-.44 0-1.3.9-1.06 1.13.25.24 1.36-.36 2.62-1.44 1.02-.88 2.46-1.17 2.82-.6.1.18.65.3 1.22.3s1.04.15 1.04.3c0 .18.26.3.6.3.32 0 .6.15.6.3 0 .18.32.3.73.3.4 0 .8.15.92.3.1.18.65.3 1.23.3h1.05l-.2-1.4c-.1-.8-.32-1.57-.47-1.72-.14-.16-.26-.6-.26-.96 0-.37-.14-.76-.3-.86-.17-.1-.3-.5-.3-.92 0-.4-.1-.73-.24-.73-.13 0-.27-.4-.3-.93-.1-1.13-.3-1.53-.7-1.3-.14.1-.26.02-.26-.18 0-.22.25-.3.62-.2.45.12.58.05.46-.26-.1-.28.04-.43.43-.43.44 0 .6-.2.6-.8 0-.43.08-.7.2-.6.3.3 1.95-1.57 1.7-1.95-.12-.2-.06-.25.15-.12.2.13.35 0 .36-.33.02-.66.73-1.66 1-1.4.1.12.2-.04.2-.34 0-.3-.08-.47-.18-.38-.25.26-1.95-.4-1.77-.67.08-.12-1.6-.28-3.73-.34-3.85-.1-4.76-.3-3.92-.9.34-.22.28-.25-.23-.1-.5.14-.68.06-.68-.28 0-.26-.3-.77-.66-1.13-.4-.4-.53-.7-.3-.77.55-.2-.74-2.17-1.42-2.17-.18 0-.33-.14-.33-.3 0-.2.16-.23.37-.1.22.1.27.1.12-.07-.14-.15-.4-.27-.6-.27-.2 0-.36-.16-.36-.35 0-.57-.27-.66-.67-.23m-87.72 3.36c-.24.46-.64 1.06-.9 1.34-.24.28-.63 1.02-.86 1.65-.23.63-.56 1.23-.74 1.35-.18.1-.24.28-.15.38.25.23 1.17-.14 1.17-.47 0-.15.3-.6.64-1 .36-.4.8-1.04 1-1.4.56-1.15.9-.92 1.97 1.43 1.2 2.63 1.93 3.1 4.64 3.1 2.23 0 2.2.5-.15 2.8-1.57 1.55-1.8 1.9-1.62 2.58 1 3.86.75 4.74-1.06 3.76-.74-.4-1.58-.82-1.87-.92-.3-.1-.53-.3-.53-.44 0-.56-1-.23-2.64.88-2.15 1.44-2.66 1.63-3.4 1.23-.47-.26-.53-.42-.25-.75.2-.24.3-.97.24-1.63-.08-.84 0-1.2.27-1.2.2 0 .37-.38.37-.9 0-.5-.12-.9-.27-.9-.16 0-.73-.48-1.27-1.06-.55-.58-1.16-1.05-1.38-1.05-.2 0 .22.64.95 1.42.73.77 1.27 1.52 1.2 1.65-.2.27-.77 3.6-.87 4.84-.04.48.1.93.3 1 .38.15 5.26-2.2 5.6-2.72.16-.22.23-.22.24 0 0 .17.5.5 1.1.7.6.23 1.38.66 1.7.97.34.3.85.56 1.14.56.3 0 .62.15.72.3.77 1.26.92-1.8.27-5.57-.16-.82.02-1.1 1.64-2.67 2.26-2.16 2.8-3.97 1-3.3-.2.07-.37 0-.37-.16 0-.43-.82-.36-.98.08-.12.3-.28.3-.78 0-.35-.2-1.04-.37-1.53-.37-.93 0-3.33-4.1-3.33-5.7 0-.86-.73-.73-1.22.23m85.15 1.9c-.16.6-.14.6.4.1.7-.6.73-.72.18-.72-.23 0-.5.3-.58.64m-.37 1.84c-.27 1.24-.9 1.7-2.3 1.72-.63 0-1.14.13-1.14.28 0 .14-.5.34-1.13.43-2.17.33-3.08.58-3.08.86 0 .16-.13.2-.27.12-.4-.25-.97.6-.76 1.13.17.48 1.9 1.7 2.38 1.7.13 0-.06-.24-.4-.55-1.15-.98-.57-1.66 2.04-2.4.73-.23 1.58-.52 1.86-.67.3-.15 1-.27 1.58-.27.58 0 1.06-.1 1.08-.22.03-.3.16-.97.4-2.13.13-.52.15-.94.07-.94-.1 0-.25.45-.37.98m-33.28.85c.1.15.04.28-.1.28-.17 0-.37.24-.46.53-.24.72-1.17 2.23-1.72 2.78-.7.7-2.16 3.05-2 3.2.08.08-.18.5-.58.92-.4.43-.72 1.03-.72 1.33 0 .3-.1.53-.22.5-.13-.06-.26.02-.3.15-.03.13-.26.44-.52.7-.25.25-.4.58-.3.73.1.17-1.26.28-3.3.28-2.1 0-3.46.13-3.46.3 0 .18-.2.3-.45.3s-.45-.12-.45-.3c0-.15-.74-.3-1.65-.3-.9 0-1.65.15-1.65.3 0 .18-.46.3-1.03.3-.57 0-1.12.15-1.22.3-.3.5-.43 1.5-.18 1.5.12 0 .4.38.64.84.5 1 1.5 2.17 1.85 2.17.4 0 1.13.8 1.13 1.27 0 .53 1.33 2.04 1.8 2.04.52 0 1.53 1.22 1.3 1.58-.08.15.12.54.47.87.64.6.86 1.9.36 2.2-.25.16-.5 1.27-.77 3.6-.08.68-.26 1.5-.4 1.82-.46 1.03-.95 2.72-.95 3.22 0 .25-.12.5-.27.57-.5.2-.52 2.77 0 2.88.3.06.47-.17.5-.7.1-1.06.3-1.33 1.02-1.33.62 0 5.5-1.9 8.28-3.2 3.23-1.52 3.03-1.6 11.56 4.17 1.2.8 1.9 1.1 2.33.97.46-.15.6-.06.6.44 0 1.22-.9 1.02-3.52-.77-1.4-.97-3-2.02-3.5-2.34-.52-.33-1.6-1.03-2.37-1.58-.78-.55-1.65-1-1.94-1-.4 0-.33.1.22.4.74.38 2.68 1.65 5.47 3.57.77.53 1.4 1.07 1.42 1.2 0 .12.22.22.47.22.24 0 .45.13.45.3 0 .16.2.3.44.3s.45.13.45.3c0 .16.26.3.6.3.32 0 .6.13.6.3 0 .16.23.3.52.3.63 0 1.7-1.1 1.2-1.27-.16-.06-.3-1-.3-2.2-.02-1.77-.05-1.9-.24-.88-.17.98-.22 1.04-.25.34-.02-.46-.23-1.6-.46-2.54-.23-.93-.5-3.05-.6-4.7l-.15-3 1.83-1.5c1-.82 2.56-2.12 3.44-2.9.88-.76 2.07-1.7 2.64-2.1.56-.38 1.2-1 1.4-1.37.48-.94 1.75-.58 1.75.5 0 .17.12.3.3.3.15 0 .3-.33.3-.74 0-.55-.17-.75-.63-.75-.34 0-.55-.1-.48-.2.07-.14-.35-.27-.94-.32-.6-.04-1.24-.22-1.45-.4-.2-.17-.9-.37-1.52-.43-1.67-.18-2.55-.35-3.4-.65-.4-.15-.95-.26-1.2-.24-.24.02-.6-.1-.82-.24-.2-.16-.37-.18-.37-.06s-.34 0-.75-.26c-.7-.46-1.66-.4-1.66.12 0 .14-.25.3-.54.36-.44.1.8.42 4.73 1.24 3.64.76 6 1.5 6 1.87 0 .22-.12.4-.25.4s-1.32.92-2.64 2.04c-1.3 1.1-2.98 2.5-3.7 3.07-2.46 1.97-2.77 2.36-2.6 3.25.32 1.5 1.13 10.62.97 10.8-.1.07-2.3-1.24-4.9-2.94-4.8-3.1-5.62-3.44-7.06-2.77-.36.17-1.27.6-2.02.95-3.56 1.68-7.2 2.96-7.2 2.53 0-.65 1.46-6.94 2-8.6.78-2.4.7-2.64-2.04-5.7-4.5-5.02-5.5-6.36-5-6.5.06-.02 2.32-.14 5.04-.3 6.66-.33 6.64-.32 7.93-2.27.6-.88 1.08-1.75 1.08-1.9 0-.18.15-.32.34-.32.2 0 .28-.3.2-.7-.1-.53-.03-.7.26-.58.22.1.4 0 .4-.18 0-.46 2.77-4.53 3.1-4.53.12 0 .44.52.7 1.13.25.62.64 1.53.86 2.03.22.5.98 2.5 1.68 4.48.7 1.96 1.34 3.4 1.4 3.2.08-.22 0-.68-.18-1.03-.17-.35-.6-1.45-.94-2.44-.35-1-.74-2.07-.88-2.4-2.38-5.65-2.42-5.78-1.53-6.47l.73-.58h-.7c-.37 0-.62-.12-.53-.25.08-.13-.12-.26-.44-.28-.33-.04-.5.07-.4.23m-53.6.58c0 .17-.45.3-1.02.3-.57 0-1.12.14-1.22.3-.25.4.73.4 1.9-.02.9-.3 1.3-.87.65-.87-.16 0-.3.14-.3.3m-139.23.58c0 .18-.27.33-.6.33-.3 0-.66.15-.77.33-.1.18-.45.27-.76.2-.3-.1-.7.03-.9.26-.18.22-.52.4-.73.4-.22 0-.64.4-.92.9-.3.48-.63.8-.77.73-.13-.1-.24.06-.24.33s-.13.4-.3.3c-.14-.08-.57.14-.93.52-.36.37-.54.48-.4.23.15-.28 0-.24-.4.13-.37.32-.67.73-.67.93 0 .2-.24.63-.53.97-.65.76-3.78 2.64-3.5 2.1.1-.2-.37.2-1.04.9-.68.7-1.32 1.26-1.4 1.24-.1 0-.5.26-.9.6-.4.36-.8.64-.88.64-.08 0-.22.03-.3.05-1.13.28-3.26.08-3.03-.3.07-.1-.64-.2-1.57-.2-1.66-.02-4.85-1.13-4.85-1.7 0-.13-.4-.24-.9-.24-.52 0-1.22-.26-1.57-.6-.65-.6-1.73-.8-1.73-.33 0 .64 8.37 3.64 10.16 3.64.5 0 .98.15 1.08.3.34.56 3.08.37 3.67-.25.53-.55 5.1-3.87 6.83-4.97.5-.32 1.47-1.1 2.16-1.76 1.4-1.32 2.78-2.3 3.25-2.3.4 0-2.33 2.66-2.77 2.68-.2 0-.87.52-1.5 1.15-.63.63-1.82 1.67-2.65 2.3-.82.65-1.83 1.52-2.25 1.94-1.28 1.3-4.25 3.6-4.66 3.6-.7 0-5-1.1-7.42-1.9-1.3-.44-2.56-.8-2.82-.8-.26 0-1.38-.3-2.47-.7-2.03-.74-5.28-1.6-6.63-1.75-.95-.1-1.2-1.27-.4-2 .56-.55 1.4-.4 3.02.5.57.32.68.3.68-.08 0-.25-.2-.46-.47-.46-.26 0-.4-.1-.32-.23.08-.13-.28-.27-.8-.3-.52-.05-1-.2-1.1-.32-.2-.33-1.2-.3-1.2 0 0 .15-.42.26-.9.26-.84 0-.9.1-.9 1.06 0 .58.14 1.05.32 1.05.2 0 .27.3.18.7-.1.36-.04.93.1 1.26.13.33.25.43.27.2.04-.7.63-.03.63.72 0 .4.13.73.3.73.16 0 .3.2.3.46 0 .25.13.45.3.45.15 0 .2.2.12.43-.1.23-.02.5.16.62.2.1.27.32.18.46-.1.15.14.48.5.74.38.26.55.47.38.47-.17 0-.33.3-.35.62-.02.33.06.54.2.47.1-.1.38.13.6.46.3.48.3.56 0 .38-.27-.16-.3-.07-.14.35.47 1.15.75 2.3.6 2.52-.07.13.08.3.34.4.26.1.38.33.28.5-.1.16-.05.3.13.3.2 0 .33.4.33.88 0 .5.2 1 .43 1.13.23.13.46.37.5.54.24 1.06.37 1.34.6 1.34.15.02.27.22.27.47 0 .25.34.6.75.74 1 .4 1 1.68.02 3.05-.4.56-1.68 2.43-2.84 4.17-1.17 1.73-2.42 3.54-2.8 4.03-.88 1.13-2.74 3.85-3.78 5.52-.8 1.27-.83 1.3-2.2 1.17-1.3-.12-1.38-.08-1.38.6 0 1.1 1.22 1.77 2.46 1.33.54-.2 1.44-.3 2-.2.56.07 3.45.03 6.42-.1 3.6-.14 5.47-.1 5.62.1.14.2.22.17.22-.06 0-.18.28-.3.6-.23.33.06.72-.1.87-.36.18-.33.48-.4 1.05-.26.44.1.72.33.63.5-.1.16.48.28 1.48.28.98 0 1.67.13 1.67.32 0 .17.14.23.3.13.17-.1.3.17.3.66 0 .65.08.74.3.4.25-.4.3-.38.3.08 0 .3.34.9.76 1.3.4.42.68.87.6 1-.1.13.66 1.1 1.64 2.16 1 1.05 2.02 2.35 2.28 2.9.27.52.6.96.75.96.14 0 .26.18.26.4 0 .45 1.63 2 2.1 2 .17 0 .3.27.3.6 0 .33.14.6.3.6.17 0 .3.15.3.34 0 .18.44.9.96 1.57.52.68.96 1.26.97 1.28.47 1.04 2.27-.47 2.27-1.9 0-.22.16-.7.35-1.07.2-.36.32-.95.28-1.3-.05-.36.06-.74.24-.85.17-.1.32-.5.33-.85 0-.36.2-.92.44-1.24.24-.33.44-.9.44-1.3 0-.37.13-.95.3-1.28.16-.33.44-.88.62-1.23.25-.5.24-.6-.08-.4-.32.2-.32.15 0-.24.47-.6.74-1.82.33-1.58-.37.24-.13-1.64.46-3.42.25-.76.54-2 .63-2.78.2-1.73.86-2.73 1.35-2.06.25.34.37.36.48.07.1-.2.47-.38.86-.38.38 0 .78-.14.9-.3.1-.17.5-.3.9-.3.38 0 .78-.12.87-.27.1-.16.7-.37 1.34-.48.66-.1 1.43-.38 1.74-.6.3-.24.9-.44 1.3-.45.4 0 1.54-.4 2.52-.9.97-.5 2.15-.9 2.6-.9.64 0 .82-.12.7-.45-.15-.36.1-.45 1.2-.45.76 0 1.38-.14 1.38-.3 0-.17.47-.3 1.05-.3.57 0 1.04-.14 1.04-.3 0-.17.1-.3.23-.27.62.1.97-.08.97-.5 0-.26.14-.4.3-.28.18.1.3-.17.28-.66 0-.45-.1-.66-.18-.46-.24.6-1 .43-1.3-.3-.2-.54-.27-.56-.28-.13 0 .33-.44.72-1.06.98-1.3.55-1.26.56-1.23-.22.02-.63-1.08-1.44-6.5-4.8-11.3-7-10.43-6.04-10.46-11.5-.04-9.4-.4-14.8-1-15.25-.7-.5.46-1.77 1.48-1.63.6.1.6.34.76 10.06.15 9.84.16 9.98.82 10.64.37.37.68.5.68.3s-.12-.36-.26-.36c-.46 0-1.07-16.04-.63-16.64.33-.46-.4-5.04-.84-5.18-.2-.07-.36.02-.36.2m132.33.58c0 .83 1.3 2.45 1.68 2.07.1-.1-.08-.34-.4-.55-.67-.4-.1-1.27 1.02-1.56.3-.08.13-.16-.43-.18-.53-.02-.97-.17-.97-.33s-.2-.3-.45-.3c-.3 0-.45.3-.45.86M47.1 36.9c0 .17.15.3.3.3.18 0 .3.4.3.9 0 1.12-.67 1.5-2.65 1.5-.83 0-1.6.14-1.7.3-.1.18-.9.3-1.8.3-1.5 0-1.63.07-2.07.96-.7 1.4-.3 1.78.43.4.38-.7.58-.75 2.46-.75 1.17 0 2.05-.12 2.05-.3 0-.16.95-.3 2.23-.3 2.53 0 2.9-.3 2.13-1.9-.45-.95-1.65-1.97-1.65-1.4m96.17.9c.1.15.3 4.5.47 9.67.26 8.4.35 9.44.82 9.78 1.08.8 6.37 4.27 6.5 4.27.2 0 4.67 2.86 5.22 3.32.22.2 1.23.84 2.24 1.45 2.33 1.42 2.37 1.58.45 2.25-3.13 1.1-7.3 2.6-8.33 3.03-1.84.75-2.8 1.1-5.55 2.07-3.26 1.13-2.98.67-4.8 8.12-3.28 13.52-3.06 13.07-5.02 10.45-.7-.96-2.58-3.38-4.15-5.37-1.56-2-3.65-4.66-4.63-5.93-1.77-2.28-1.8-2.3-3.16-2.3-1.46.03-8.4.44-14.26.86-4.9.35-4.9.37-2.1-3.72 1.26-1.8 3.17-4.64 4.28-6.3 1.1-1.64 2.5-3.67 3.13-4.5 1.53-2.03 1.45-2.6-1.4-9.26-.6-1.34-1.4-3.38-1.8-4.54-.4-1.15-1.07-3.04-1.5-4.2-.42-1.15-.77-2.2-.77-2.34 0-.36 1.9.04 5.4 1.15 1.73.54 4.03 1.2 5.1 1.5 1.07.26 2.7.73 3.6 1.03 4.62 1.53 5.16 1.47 7.8-.96.4-.38 2.3-1.98 4.2-3.55 8.22-6.8 7.9-6.57 8.24-6m-68.2 1.5c0 .26.1.73.25 1.06.16.38.26.43.26.15 0-.24-.12-.7-.26-1.04-.16-.38-.26-.43-.26-.15m-47.6.6c-.1.18.1.3.43.3.33 0 .6-.13.6-.3 0-.16-.2-.3-.43-.3-.23 0-.5.14-.6.3m339.4.06c.1.14.3.25.45.25 1.34 0 1.77 1.4 1.78 5.62 0 5 .1 5.23 1.76 4.23.68-.4 1.14-.83 1.03-.94-.12-.1.03-.2.3-.2.3 0 .44-.13.33-.3-.12-.2-.55-.1-1.2.28-1.32.78-1.34.73-1.46-3.77-.08-3.36-.16-3.86-.66-4.13-.3-.17-.75-.52-1-.8-.47-.47-1.6-.67-1.33-.2m-335.25.86c.08.5.27 1.07.43 1.27.15.2.6 1.24.96 2.3.4 1.08.77 2.03.88 2.1.1.1.37.53.6 1 .5.94 1.73 1.12 2.04.3.1-.3.34-.63.5-.75.23-.15.22-.33-.04-.6-.3-.28-.37-.26-.37.15 0 1.15-1.3.22-2.36-1.67-.35-.63-.63-1.4-.63-1.73 0-.32-.13-.6-.3-.6-.16 0-.3-.16-.3-.38 0-.63-.7-2-1.14-2.15-.28-.1-.35.1-.24.76m310.17-.1c0 .48.56 1.1.8.88.1-.12.04-.33-.18-.47-.33-.2-.33-.28 0-.4.3-.12.26-.18-.1-.2-.3 0-.53.08-.53.2m-229.77 1.44c0 .27.17.4.4.3.22-.07.4 0 .4.15 0 .16.27.3.6.3 1.17 0 .52-.95-.78-1.13-.4-.07-.62.07-.62.37M37.8 44.84c0 .26-.13.47-.3.47-.16 0-.3.15-.3.3 0 .5.44.35.83-.27.23-.37.26-.66.07-.77-.16-.1-.3.03-.3.28m10.9 7.26c-.1.25-.02.6.17.8.26.25.34.25.34 0 0-.2.3-.43.63-.54.73-.23.63-.4-.3-.6-.4-.07-.72.06-.82.34m-.6 2c.03.2.2.45.34.57.17.12.13.38-.1.64-.2.28-.4 1.7-.48 3.4-.07 1.64-.25 3.68-.4 4.55-.2 1.28-.18 1.63.18 1.83.95.53.22 1.4-2.2 2.6-1.33.65-2.8 1.44-3.28 1.75-.47.3-1.84 1.1-3.04 1.73l-2.2 1.16-.6-.66c-.68-.73-.75-.7-1 .4-.23.9.28 1.7 1.15 1.84.34.05 1.08.36 1.65.7 1.4.8 3.82 1.92 4.2 1.92.4 0 1.58.67 1.86 1.05.13.18.22.12.23-.14 0-.3.17-.22.48.22.25.37.7.67 1 .67.28 0 .7.17.92.38.32.3.35.3.16-.05-.16-.28-.13-.35.1-.2.2.1.35.4.35.64 0 .23.12.42.25.42s.25 1.02.26 2.26c.02 1.95.13 2.37.74 3.02.54.58.62.8.3 1-.5.3-.13 3 .46 3.23.23.1.4.58.4 1.15 0 1.18.27 1.94.66 1.94.16 0 .22-.1.14-.23-.08-.15.12-.27.44-.3.37-.02.52.1.4.32-.1.2.43-.3 1.2-1.07.75-.78 1.37-1.57 1.37-1.74 0-.17.15-.23.3-.13.18.1.3.04.3-.14 0-.17.77-1.06 1.68-1.96 1-.98 1.6-1.8 1.46-2-.15-.23-.1-.26.18-.1.28.18.34.1.2-.23-.12-.34.02-.5.48-.58.36-.05.8-.36.96-.7.2-.38.57-.57 1.05-.54.43.03 1.98.12 3.47.2 1.48.08 2.9.2 3.15.28 1.75.53 3.56.82 5.1.82 1.86 0 2-.1 1.8-1.5-.07-.6-.9-1.47-.9-.96 0 .2.13.36.3.36.16 0 .3.28.3.62 0 .75-1.45.73-1.8-.02-.84-1.83-3-5.84-3.9-7.2-.57-.92-1.3-2.23-1.62-2.9l-.56-1.27 1.5-3.1c.83-1.7 1.6-3.4 1.72-3.8.12-.38.54-1.17.94-1.76.4-.6.72-1.5.72-2.05 0-.9.6-1.55 1.02-1.1.54.53-.53 3.34-2.3 5.97-.45.7-.82 1.4-.82 1.56 0 .17-.4 1.08-.9 2.04-1.12 2.15-1.24 1.54 1.05 5.38 1.07 1.8 1.94 3.1 1.95 2.9 0-.45-.54-1.46-1.23-2.33-.76-.95-2.08-3.37-2.08-3.8 0-.57 3.95-8.35 4.25-8.35.13 0 .25-.27.25-.6 0-.3.13-.65.3-.75.55-.34.34-2.42-.3-3-.58-.53-.62-.53-1.16.1-.44.5-.9.65-2.1.65-1.1 0-1.48.1-1.38.37.2.52-2.2 1.72-3.46 1.72-.58 0-1.85.28-2.83.6-.98.33-1.9.6-2.02.6-.13 0-1.42-1.12-2.87-2.48-5.02-4.72-5.94-5.55-6.6-5.9-.86-.44-1.6-.42-1.5.05m6.06 4.56c4.78 4.5 4.5 4.38 7.98 3.5 1.23-.3 2.77-.66 3.43-.78.66-.12 1.83-.4 2.6-.66 2.4-.8 2.53-.58 1.18 2.15-4.56 9.2-4.36 8-1.97 12 4.15 6.95 4.26 7.28 2.34 6.8-.63-.16-2.5-.38-4.13-.48-1.64-.1-3.58-.33-4.32-.5-.73-.16-1.56-.22-1.83-.12-.75.27-2.88 3.22-2.8 3.9.05.55.04.55-.18.03-.2-.48-.33-.42-1.07.55-.45.6-1.17 1.45-1.6 1.9-.4.45-1.08 1.2-1.48 1.68-1.23 1.45-1.55.72-2.8-6.4-.74-4.18-.83-4.37-2.36-5.05-2.02-.9-6.9-3-8.22-3.56-1.68-.7-1.53-1 1.27-2.62 2.54-1.46 2.73-1.56 5.5-2.97 2.7-1.36 2.9-1.7 2.9-4.75 0-1.16.14-2.66.3-3.36.16-.7.37-2.17.47-3.28.24-2.52-.27-2.73 4.8 2.02m272.18-3.62c.44.44.58 1.07.24 1.07-.12 0-.38-.22-.6-.5-.7-.94-.44-1.35.35-.56m23.53.03c-.52.63-.13.93.44.35.26-.25.47-.54.47-.64 0-.33-.54-.16-.92.3M56.6 57.77c-.26.67-.27.65.57.8.75.15.75.14.23-.48-.3-.35-.55-.68-.57-.72-.02-.05-.13.13-.23.4m94.8 1.03c.1.18.38.32.62.32.25 0 .37-.14.27-.3-.1-.17-.4-.3-.65-.3s-.36.13-.26.3m195.3.65c.08.28 0 .56-.18.62-.2.05-.25.4-.12.92.1.45.34.74.5.64.4-.24.36-1.68-.05-2.24-.27-.4-.3-.38-.16.05m-285.42.72c-.7.5.02.76 1.1.38.52-.18.94-.44.94-.6 0-.35-1.47-.2-2.04.2m314.2 7.08c-.2.53-.3 1.03-.24 1.1.08.08.27-.22.44-.65.48-1.26.66-1.02 2.94 3.68 1.24 2.57 2.38 4.56 2.7 4.67.62.25 4.4.78 6.53.93l1.5.1-1.5-.28c-.83-.15-2.45-.42-3.6-.6-3.1-.44-3.02-.38-4.52-3.52-3.14-6.63-3.6-7.2-4.26-5.42m-332.7-.24c-.34.25-.43.48-.24.6.17.1.48 0 .7-.26.5-.62.22-.83-.46-.34m228.86.8c-.23.38-.25.6-.06.6.18 0 .4-.2.5-.47.26-.7-.03-.78-.44-.12m102.7 1.86l-.47.97.6-.75c.6-.73.8-1.2.5-1.2-.1 0-.36.44-.63.97m-1.26 2.1c-.34.58-.8 1.54-1 2.15-.5 1.4-.8 1.63-2.42 1.95-.87.17-1.04.26-.53.3 1.78.06 2.47-.5 3.62-2.92 1.17-2.46 1.32-3.16.32-1.47m-229.93 3.74c0 .66-.6 1.1-.6.45 0-.38.14-.68.3-.68.17 0 .3.1.3.22m223.04.9c.28.06.76.06 1.05 0 .3-.1.05-.15-.53-.15-.6 0-.82.05-.53.13m26.86.75c-.4.63-.5.64-1.65.27-.67-.22-1.4-.34-1.62-.26-.23.07.02.23.54.34l.95.22-3.7 3.65-3.7 3.67.27 1.65c.77 4.88 1.18 7.74 1.18 8.2 0 .42-.9.07-4.5-1.8l-4.53-2.3-1.56.8c-.85.45-2.23 1.22-3.06 1.7-4.33 2.6-5.4 2.77-5.1.87.14-.77.1-1.18-.12-1.18-.2 0-.33.57-.33 1.32 0 1.06-.12 1.34-.6 1.47-1 .27-.8 1.42.24 1.42.8 0 7.2-3.08 7.58-3.65.1-.15.47-.3.83-.33.35-.02.64-.15.64-.28 0-.35 2.33-.3 2.54.06.1.17.4.3.64.3s.73.27 1.08.6c.36.33.9.6 1.2.6.3 0 .54.15.54.32s.7.65 1.57 1.05c1.66.76 2.68 1.35 2.93 1.67.16.2.82.35 1.42.3.2-.03.38-.45.38-.97 0-.78-.1-.9-.68-.82-.45.06-.64-.04-.58-.33.05-.23-.06-1.37-.23-2.55-.17-1.17-.36-2.8-.4-3.63-.07-.82-.2-1.7-.28-1.95-.56-1.48-.3-3.12.34-2.14.2.3.6.08 1.72-1 5.48-5.2 6.52-6.16 6.76-6.16.14 0 .26-.4.26-.9 0-1.07-.36-1.16-.97-.24M142.2 78.82c-.2.96-.47 1.95-.6 2.2-.35.64-.34-1.6 0-2.46.16-.38.37-.95.47-1.26.4-1.23.5-.13.14 1.52m218.12-1.78c-.62.06-1.13.24-1.13.4 0 .6 7.48 7.78 8.1 7.78.6 0 .64.1.46 1.13-.1.62-.27 1.66-.36 2.32-.1.66-.3 1.33-.44 1.5-.15.14-.25.82-.24 1.5.03 1.05.08.94.46-.9.24-1.15.57-2.5.73-3.02.5-1.58.36-2.72-.38-3.2-.37-.26-2.15-1.9-3.95-3.64-3.5-3.37-3.47-3.27-1.27-3.8l.94-.22-.9.02c-.5 0-1.4.07-2.02.14M72 79.8c.92 1.3 1.37 1.47.55.2-.4-.6-.8-1.08-.95-1.08-.13 0 .04.4.4.9m-44.8.04c-.44.33-.73.76-.62.93.1.17.06.23-.1.12-.3-.18-1.88 1.38-4.44 4.38-.66.77-1.36 1.4-1.55 1.4-.2.02-.4.2-.5.4-.12.3-.15.3-.17 0-.02-.3-.15-.3-.66 0-.52.3-.67.3-.78 0-.08-.2-.4-.38-.7-.38-.3 0-.64-.13-.75-.3-.26-.43-2.65-.37-3.12.08-.32.3-.43.3-.54 0-.1-.22-.67-.38-1.4-.38-.92 0-1.13-.1-.8-.3.32-.2.02-.28-1.05-.26-1.2.02-1.35.07-.75.26l.75.24-.8.03c-.47 0-.76.18-.72.4.2.9.7 1.86.95 1.78.14-.06.3.06.38.26.07.2-.02.28-.2.16-.23-.13-.3-.04-.17.26.3.84 1 .53 1-.46v-.92l3.53.2c1.94.13 3.84.34 4.22.48 1.48.55 2.13.3 3.96-1.54 1-1 1.8-1.94 1.8-2.1 0-.46 3-3.3 3.5-3.3.52 0 .98 1.15 1.2 2.98.1.75.36 2.32.6 3.47.25 1.16.5 2.4.6 2.8.06.37.42.8.8.94 2.26.92 2.6 1.1 2.6 1.3 0 .12.28.22.6.22.34 0 .6.1.6.25 0 .13.68.43 1.5.65.83.23 1.5.52 1.5.66 0 .13.2.24.4.24 1.28 0 1.43 1.1.3 2-1.6 1.26-3.33 2.2-4 2.2-.33 0-.6.12-.6.25s-.46.43-1.04.66c-.58.22-1.05.52-1.05.65 0 .14-.23.25-.53.25-.3 0-.55.23-.56.52 0 .3-.07 1.88-.12 3.53-.06 1.65-.22 3.08-.36 3.18-.14.1-.2.64-.15 1.2.07.58.2.82.3.57.63-1.72.84-2.83.84-4.5 0-2.03.5-3.9 1.05-3.9.18 0 .8-.4 1.37-.9.57-.48 1.4-.9 1.85-.9.44 0 .9-.14 1-.3.1-.17.44-.3.76-.3s.58-.14.58-.3c0-.17.2-.3.46-.3.25 0 .45-.1.45-.23.02-.26 1.46-.98 1.97-.98.48 0 1.15-1.37.94-1.93-.1-.27-.38-.48-.63-.48s-.46-.13-.46-.3c0-.16-.4-.3-.9-.3-.48 0-.9-.1-.9-.22 0-.23-1.42-.98-1.86-.98-.13 0-.78-.34-1.44-.75-.65-.4-1.2-.7-1.2-.6 0 .1-.67-.2-1.5-.66-1.5-.8-1.5-.8-1.53-2.4-.04-1.65-.05-1.74-.34-2.48-.18-.46-.4-1.68-.7-3.67-.4-2.9-1.17-3.66-2.6-2.6M141.05 83c-.26.86-.26.86-.3.1 0-.43.07-.87.2-.98.33-.35.37-.05.1.87m-1.03 4.38c-.1.53-.3 1.04-.46 1.13-.15.1-.33.5-.4.92-.12.65-.15.62-.18-.2-.03-.53.1-1.05.26-1.15.16-.1.3-.5.3-.92 0-.4.15-.73.33-.73.22 0 .27.34.15.96M10.05 90.02c-.1.17-.06.3.1.3.15 0 .35.27.44.6.15.63 1.1.85 1.1.26 0-.67-1.36-1.63-1.65-1.16m1.65 2.4c0 .47.14.95.3 1.05.17.1.3.4.3.68 0 .27.36.86.8 1.3l.78.83-.7 1.15c-.4.63-.7 1.23-.66 1.34.04.1-.13.36-.38.56-.24.2-.44.7-.44 1.08 0 .4-.13.72-.3.72-.16 0-.3.15-.3.32 0 .18.13.25.28.15.14-.1.1.15-.08.55-.2.4-.42.6-.5.45-.1-.15-.37.2-.6.78-.22.57-.5 1.05-.62 1.05-.4 0-.6 2.08-.27 2.72.2.34.43.55.52.46.1-.08 0-.36-.2-.62-.22-.25-.3-.45-.16-.45.12 0 .38.2.58.48.3.42.4.32.7-.67.2-.63 1.23-2.97 2.32-5.18 2.15-4.38 2.18-4.6.87-6.54-.42-.6-.97-1.56-1.23-2.1-.58-1.22-1-1.26-1-.1m309.56 4.74c-.1.1-.18.9-.18 1.77 0 .88-.14 1.68-.3 1.78-.23.13-.2.36.06.68.3.36.3.42.02.25-.34-.18-.63 4.1-.4 5.78.04.23-.08.32-.25.22-.18-.12-.3.3-.3 1.1-.03 1.8-.18 3.06-.42 3.45-.1.18-.03.38.17.45.3.1.3.3.03.85-.65 1.36-.7 1.76-.2 1.57.35-.13.43.02.35.7-.06.53-.25.83-.5.77-.3-.07-.4.18-.3.97.07.58.03 1.06-.1 1.06s-.15.24-.04.53c.1.28.07.43-.05.3-.3-.25-1.06.43-.86.77.07.13-.1.2-.42.15-.3-.06-.53.04-.5.2.03.18-.3.35-.75.4-.44.03-.85.2-.9.35-.06.17-.36.3-.68.3-.3 0-.57.14-.57.32 0 .17-.14.23-.3.13-.17-.1-.3.05-.3.33 0 .3-.1.45-.2.34-.1-.1-.76.2-1.47.7-.7.5-1.42.9-1.6.9-.18 0-.32.1-.32.23s-.5.42-1.13.64c-.62.24-1.87.92-2.77 1.52-.9.6-2.46 1.56-3.45 2.1-3.42 1.9-3.5 2.26-.82 3.5 3.67 1.7 4.2 1.9 4.55 1.9.18 0 .33.15.33.3 0 .18.37.3.83.3.5 0 1.02.26 1.28.6.27.4.77.6 1.35.6.57 0 1.08.24 1.35.6.43.6 1.1.88.75.3-.23-.36.87-.38 1.58-.02 2.24 1.12 3.2 1.53 3.56 1.53.24 0 .66.13.95.28.3.16.96.44 1.5.64.84.3.93.46.78 1.23-.1.5-.04.87.12.87s.38.77.5 1.72c.1.95.33 2.47.5 3.38.17.9.38 2.2.48 2.85.1.65.28 1.32.43 1.47.16.16.28.72.28 1.26 0 .53.14 1.06.3 1.16.17.1.3.56.3 1.03s.12.9.27.96c.15.04.32 1.24.37 2.64.05 1.4.25 2.88.46 3.28.46.9 1.3 1.1 1.3.3 0-.4.2-.58.73-.58.42 0 .82-.12.9-.26.1-.14-.15-.2-.53-.12-.6.1-.73-.02-.9-.83-.3-1.56-.26-1.92.23-1.52.34.3.7.02 1.87-1.38.8-.95 1.92-2.27 2.5-2.93.6-.68 1.62-1.9 2.3-2.7.7-.84 2.43-2.93 3.88-4.66 1.45-1.74 2.67-3.2 2.73-3.27.05-.07.94-.12 1.98-.1h1.88l-1.78-.3-1.78-.32-1.37 1.5c-1.8 1.93-3.94 4.48-4.54 5.38-.26.4-.73.97-1.05 1.27-.3.3-1.5 1.67-2.67 3.05-1.15 1.37-2.45 2.9-2.87 3.4l-.78.88-.38-1.92c-.34-1.7-1.75-7.92-2.43-10.76-.14-.58-.5-2.3-.82-3.83-.32-1.52-.67-2.87-.8-3-.2-.18-8.47-3.6-15.4-6.32-1.52-.6-2.77-1.25-2.77-1.44 0-.28 3.35-2.5 3.77-2.5.08 0 .84-.46 1.7-1.02 1.55-1 5.62-3.37 8.97-5.25 2.6-1.46 2.66-1.7 3.44-16.64.28-5.46.2-5.43 4.37-1.62 6.23 5.7 10.3 9.3 10.9 9.7.64.4.38.45 8.86-1.75 1.55-.4 3.65-.9 4.64-1.1 1-.2 2.2-.48 2.72-.64.5-.15 1.15-.27 1.43-.27.27 0 .76-.17 1.08-.37 1.34-.83.95.8-1.3 5.53-.74 1.53-1.43 3.12-1.55 3.53-.1.4-.45 1.22-.75 1.8-1.2 2.38-2.4 5.1-2.4 5.52 0 .24-.13.53-.3.63-.94.58-.05 2.38 4.78 9.7.73 1.1 1.74 2.75 2.23 3.65.5.9 1.13 1.9 1.42 2.2 2.08 2.24 1.53 2.76-2.52 2.35-1.87-.2-4.13-.33-5.03-.3-1.9.04.13.33 5.87.82 4.4.38 4.4.38 2.25-2.8-.84-1.24-1.5-2.3-1.5-2.4 0-.08-.9-1.48-1.96-3.12-1.07-1.64-1.95-3.12-1.95-3.3 0-.16-.12-.34-.25-.4-.3-.12-1.3-1.55-2.1-2.98-.33-.6-.78-1.36-1-1.7-.3-.5-.28-.78.14-1.65.26-.58.5-1.15.5-1.26 0-.22.8-2.08 1.95-4.52.4-.83 1.2-2.6 1.78-3.98.58-1.36 1.54-3.58 2.12-4.92.58-1.35 1-2.64.9-2.85-.16-.45 1.08-.87 1.8-.6.72.3.25 3.2-.54 3.2-.1 0-.2.2-.2.45 0 .6.17.57.9-.15.32-.33.6-.97.6-1.43 0-.66.06-.73.32-.37.23.33.26.06.12-.98-.13-.97-.08-1.42.15-1.42.22 0 .2-.13-.06-.38-.62-.58-2.8-.62-3.37-.06-.26.25-.6.38-.78.28-.18-.1-.23 0-.13.28.15.38-.07.47-1.2.47-.76 0-1.38.13-1.38.3 0 .16-.4.3-.85.3-.46 0-.97.12-1.13.27-.15.15-1.23.3-2.38.36-1.16.05-2.26.2-2.45.33-.2.13-.77.28-1.28.3-.5.05-.93.18-.93.3 0 .13-.48.23-1.04.23s-1.07.12-1.12.27c-.06.16-.5.34-1 .4-1.5.2-2.63.8-2.45 1.26.15.4-.38.77-1.17.77-.34 0-3.97-3.14-9.15-7.9-.74-.7-2.4-2.2-3.7-3.35-2.23-2-2.33-2.15-2.25-3.27.08-1.12-.78-2.04-1.37-1.45m-301.1 7.75c-.24.45-.84.56-2.3.4-.34-.03-1.15-.03-1.8 0l-1.2.05.87.38c.83.35 2.17.28 4.9-.27.82-.17.98-.1.97.36 0 .47-.05.5-.3.1-.16-.24-.3-.3-.3-.12 0 .44 2 2.24 2.23 2 .1-.1.18.05.18.33 0 .27.14.5.3.54.17.02.43.05.58.07.48.07.75.5.3.5-.43 0 .55.8 1.03.83.37.03 1.08 1.06.9 1.33-.07.13.02.23.2.23.2 0 .26.14.15.3-.1.17-.06.28.1.23.16-.05.33.05.37.22.2.8 2.4 1.5 2.4.75 0-.17-.16-.27-.35-.23-.7.16-.57-.66.14-.84.95-.23 1.35-1.64.43-1.47-.32.05-.78.27-1 .46-.48.4-.8.15-3.46-2.5-.8-.8-1.52-1.43-1.62-1.43-.26 0-2.23-2.18-2.24-2.48 0-.43-1.17-.22-1.43.25m-7.2 1.46c-1.38.4-1.2.77.38.77 1.43 0 1.6-.12.98-.7-.27-.25-.66-.27-1.35-.07m370.52.76c0 .35-.13.57-.28.47-.15-.1-.45.23-.67.73-.22.5-.5.9-.65.9-.13 0-.16.13-.05.3.1.2.35.13.63-.15.25-.25.38-.57.28-.73-.28-.45.37-.68 1-.34.5.28.56.2.52-.63-.06-1.06-.78-1.57-.78-.55m-25.36 0c-.1.17-.4.3-.64.3s-.36-.13-.26-.3c.1-.16.4-.3.63-.3.25 0 .37.14.27.3m26.4 2.26c.12.33.36 1.07.52 1.65.76 2.66 1.16 3.3 2.05 3.3.48 0 .94.13 1.05.3.1.16.57.3 1.05.3.47 0 .95.13 1.05.3.1.16.5.3.9.3 1.56 0 1.3.36-2.83 3.84l-1.02.86.3 2.83c.4 3.65.4 3.65-3.03 1.3-2.32-1.58-1.8-1.55-4.45-.32-3.6 1.66-3.57 1.66-3.35.14.1-.72.32-1.43.46-1.58.15-.16.26-.66.26-1.1 0-.46.13-.92.3-1.02.64-.4.2-1.2-1.8-3.38-2.8-3.05-2.8-3.37.25-3.37 1.3 0 2.75-.14 3.23-.3 1.05-.38 2.16-2.4 1.3-2.4-.15 0-.28.2-.28.47 0 1.12-.83 1.4-4 1.4-3.54-.03-4.1.08-4.1.77.02.64.9 1.87.9 1.25 0-.24.23 0 .52.52.6 1.1 2.56 3.26 3.13 3.47.32.12.32.27.02.8-.2.34-.38 1-.38 1.45 0 .65-.08.73-.3.38-.23-.34-.3-.22-.3.53 0 .53-.14.97-.3.97-.17 0-.3.4-.3.88 0 .5-.14.98-.3 1.08-.4.25-.4 1.35 0 1.35.17 0 .38-.18.47-.4.1-.24.44-.36.8-.3.38.08 1.73-.34 3.02-.93 2.77-1.27 3.03-1.3 4.44-.33 4.65 3.16 4.76 3.13 4.4-1.03l-.3-3.13 1.43-1.2c4.46-3.8 4.57-3.96 2.74-4.2-.6-.06-1.8-.4-2.7-.72-1.17-.44-1.72-.52-2.13-.3-.68.4-.93.03-1.85-2.7-.36-1.03-.75-1.97-.88-2.1-.13-.1-.14.07 0 .4m-26.96 4.06c-.27.54-.5 1.17-.5 1.4 0 .2-.87 2.1-1.94 4.2-1.07 2.1-1.94 4.08-1.94 4.42 0 .35.27-.03.6-.88.75-1.95 1.56-3.45 1.86-3.45.13 0 .23-.2.23-.42 0-.6.77-2 1-1.77.1.1.2-.1.2-.45 0-.36.1-.65.25-.65.26 0 .37-.2.9-1.84.43-1.27-.1-1.7-.67-.56M42.4 115.12c-.1.3-.34.67-.52.8-.22.18-.2.3.05.4.25.1.38.85.38 2.2 0 2.25-.4 2.8-3.06 4.05-.62.3-1.13.65-1.13.8 0 .16-.3.4-.65.53-.77.28.52 1.83 1.53 1.83.26 0 .85.2 1.3.43 1.05.55 1.78.67 2.26.37.54-.34.97.03.97.82 0 .38.1.78.23.9.5.5.9 3.53.48 3.7-.57.22-.48.6.2.83.82.26 1.8-.1 1.8-.62 0-.23.22-.43.48-.43s.38-.14.27-.3c-.13-.23-.3-.23-.58 0-.75.62-1.65-.6-2.12-2.85-.45-2.16-.97-2.9-1.9-2.65-.3.08-.7-.07-.92-.33-.22-.26-.58-.47-.8-.47-.23 0-.42-.13-.42-.3 0-.16-.25-.3-.56-.3-.46 0-1.17-.85-.86-1.03 4.14-2.48 4.4-2.82 4.33-5.73-.06-2.82-.16-2.83 4.2.32.56.4.8.4 1.95.02 1.83-.6 3.56-.87 3.56-.56 0 .54-.95 3.53-1.2 3.8-.16.16-.3.44-.3.62 0 .36 2.2 2.85 2.5 2.85.47 0 .17-.97-.5-1.7l-.74-.8.62-1.52c.34-.83.68-1.83.76-2.2.08-.37.26-.75.4-.84.15-.1.27-.43.27-.76 0-.7-.87-.62-4.14.36-2.44.73-2.42.73-3.56-.33-.52-.5-1.1-.9-1.27-.9-.18 0-.32-.14-.32-.3 0-.17-.18-.3-.4-.3-.25 0-.48-.13-.54-.28-.22-.6-1.73-.7-1.95-.13m310.07 10.04c-.27.53-.48 1.15-.48 1.37 0 .22-.15.4-.3.4-.52 0-.33 1.3.3 2.1.3.4.58.92.58 1.13 0 .2.1.37.24.37.13 0 .4.37.58.83.2.45.8 1.57 1.32 2.47.53.9 1.23 2.2 1.55 2.85.33.66 1.02 1.8 1.55 2.56.53.74 1.15 1.78 1.4 2.32.22.54.52.98.64.98.13 0 .23.22.23.5 0 .27.34.94.76 1.5 1.6 2.1.76 2.37-4.97 1.62-3.7-.48-6.3-.8-10.2-1.2-1.75-.2-3.37-.4-3.63-.48-.26-.08-.72.04-1.02.26-.48.35-.04.43 3.3.6 2.14.1 4.97.33 6.3.5 1.3.17 3.27.4 4.34.5 1.06.1 2.07.28 2.24.4.48.36 5.25.37 5.25 0 0-.17-.35-1-.76-1.86-.4-.86-.75-1.88-.75-2.27 0-.38-.14-.62-.3-.52-.35.2-1-.95-.76-1.35.1-.16-.1-.3-.45-.3-.5 0-.6-.12-.46-.6.14-.45.08-.55-.28-.4-.33.1-.47 0-.47-.4 0-.32-.28-.87-.6-1.23-.34-.35-.6-.78-.6-.95 0-.17-.1-.32-.24-.32-.12 0-.42-.44-.65-.97-.22-.54-.53-1.06-.68-1.15-.14-.1-.28-.46-.3-.82-.04-.36-.17-.65-.3-.65-.15 0-.24-.17-.2-.37.08-.73-.03-1.16-.3-1-.13.08-.4-.38-.6-1.03-.2-.65-.6-1.35-.9-1.56-.62-.45-.65-2.68-.04-3.82.2-.37.3-.73.2-.8-.06-.1-.35.28-.6.8M54 125c0 .1.15.42.3.73.8 1.46.1 2.26-1.8 2.15-1-.06-1.8-.22-1.8-.38 0-.83-1.47-.2-1.83.78-.2.58-.64 1.13-.96 1.23-.43.16-.48.25-.17.44.4.24 1.1-.4 1.13-1.02.04-.53 1.6-1.1 2.16-.78.3.16 1.36.3 2.34.3 2.22 0 2.72-.44 2.13-1.88-.5-1.23-1.5-2.26-1.5-1.56m257.33 9.4c1 .47 2.6 1.15 3.6 1.52 1 .37 2.1.8 2.47.94 1.8.73 2.37.96 2.85 1.2.3.16.73.28.98.28s.45.26.45.58c0 .55-.06.56-.82.15-.46-.25-2.3-1.06-4.13-1.82-1.82-.76-3.84-1.62-4.5-1.9-.66-.3-1.53-.64-1.93-.77-.4-.12-1.15-.5-1.65-.8l-.92-.6.9.2c.5.1 1.7.56 2.7 1.02m-231.73.93c0 .75.06 1.05.13.68.07-.36.07-.97 0-1.34-.07-.37-.13-.07-.13.67m-45 7.5c-.36.32-.74.9-.86 1.27-.4 1.24-1.8 1.9-2 .93-.08-.47-.1-.47-.6 0-.26.28-.7.5-.96.5-.3 0-.45.25-.4.7.05.68.83 1.74.83 1.14 0-.56.96-1.23 1.75-1.24.94 0 1.5-.4 2.28-1.62l.56-.86.62 1.28c.35.7 1.04 1.5 1.53 1.78 1.46.8 1.85 1.25 1.34 1.56-1.1.65-1.3.86-1.13 1.04.3.3 2.2-.42 2.8-1.07.67-.74.15-1.5-1.04-1.5-1.53 0-2.4-.63-2.2-1.6.1-.58.06-.82-.14-.7-.52.32-1.03-.57-.82-1.42.24-.97-.63-1.07-1.6-.17m41.02.17c-.4.42-.52.7-.27.6.4-.15 1.36-1.36 1.1-1.36-.06 0-.43.34-.83.76m269.5.45c1.85.33 4.15.32 2.84 0-.5-.14-1.65-.24-2.55-.24h-1.66l1.35.25M31 148c.1.3.07.86-.07 1.24-.44 1.14-.63 2.86-.35 3.03.35.2.65-1.03.45-1.8-.1-.37.03-.8.3-1 .62-.52.6-1.06-.03-1.57-.44-.36-.48-.35-.3.1m306.58.7c-.38.4-.63.74-.54.74.3 0 1.54-1.2 1.4-1.35-.1-.1-.47.18-.86.6m-300.6 3.5c-.68 1.2-.6 1.4.33.7.34-.25.52-.7.46-1.1-.1-.66-.15-.62-.77.4"/></g></svg>